font-awesome-extension.ufo
<glyph name="smaller" format="2">
  <advance width="512"/>
  <unicode hex="E200"/>
  <note>
smaller
</note>
  <outline>
    <contour>
      <point x="106" y="242"/>
      <point x="106" y="270"/>
      <point x="117" y="281" type="qcurve" smooth="yes"/>
      <point x="135" y="300" type="line" smooth="yes"/>
      <point x="136" y="301"/>
      <point x="137" y="301" type="qcurve"/>
      <point x="326" y="491" type="line" smooth="yes"/>
      <point x="336" y="501"/>
      <point x="366" y="501"/>
      <point x="377" y="491" type="qcurve" smooth="yes"/>
      <point x="395" y="472" type="line" smooth="yes"/>
      <point x="406" y="462"/>
      <point x="406" y="432"/>
      <point x="395" y="422" type="qcurve" smooth="yes"/>
      <point x="230" y="256" type="line"/>
      <point x="395" y="90" type="line" smooth="yes"/>
      <point x="406" y="80"/>
      <point x="406" y="50"/>
      <point x="395" y="40" type="qcurve" smooth="yes"/>
      <point x="377" y="21" type="line" smooth="yes"/>
      <point x="366" y="11"/>
      <point x="336" y="11"/>
      <point x="326" y="21" type="qcurve" smooth="yes"/>
      <point x="137" y="211" type="line"/>
      <point x="135" y="212" type="line"/>
      <point x="117" y="231" type="line" smooth="yes"/>
    </contour>
  </outline>
</glyph>
<glyph name="snowing" format="2">
  <advance width="512"/>
  <unicode hex="E201"/>
  <note>
snowing
</note>
  <outline>
    <contour>
      <point x="447" y="374"/>
      <point x="500" y="320"/>
      <point x="500" y="244"/>
      <point x="446" y="191"/>
      <point x="409" y="191" type="qcurve" smooth="yes"/>
      <point x="65" y="191" type="line" smooth="yes"/>
      <point x="12" y="191"/>
      <point x="12" y="231" type="qcurve" smooth="yes"/>
      <point x="12" y="253"/>
      <point x="43" y="285"/>
      <point x="65" y="285" type="qcurve" smooth="yes"/>
      <point x="73" y="285"/>
      <point x="81" y="282" type="qcurve"/>
      <point x="81" y="283" type="line" smooth="yes"/>
      <point x="81" y="309"/>
      <point x="117" y="346"/>
      <point x="143" y="346" type="qcurve" smooth="yes"/>
      <point x="144" y="346"/>
      <point x="146" y="345"/>
      <point x="147" y="345" type="qcurve"/>
      <point x="147" y="349" type="line" smooth="yes"/>
      <point x="147" y="397"/>
      <point x="215" y="465"/>
      <point x="262" y="465" type="qcurve" smooth="yes"/>
      <point x="305" y="465"/>
      <point x="370" y="409"/>
      <point x="376" y="367" type="qcurve"/>
      <point x="394" y="374"/>
      <point x="409" y="374" type="qcurve" smooth="yes"/>
    </contour>
    <contour>
      <point x="114" y="172"/>
      <point x="106" y="172" type="qcurve" smooth="yes"/>
      <point x="97" y="172"/>
      <point x="97" y="164" type="qcurve" smooth="yes"/>
      <point x="97" y="155"/>
      <point x="106" y="155" type="qcurve" smooth="yes"/>
      <point x="114" y="155"/>
      <point x="114" y="164" type="qcurve" smooth="yes"/>
    </contour>
    <contour>
      <point x="199" y="164"/>
      <point x="190" y="164" type="qcurve" smooth="yes"/>
      <point x="182" y="164"/>
      <point x="182" y="155" type="qcurve" smooth="yes"/>
      <point x="182" y="147"/>
      <point x="190" y="147" type="qcurve" smooth="yes"/>
      <point x="199" y="147"/>
      <point x="199" y="155" type="qcurve" smooth="yes"/>
    </contour>
    <contour>
      <point x="160" y="113"/>
      <point x="152" y="113" type="qcurve" smooth="yes"/>
      <point x="143" y="113"/>
      <point x="143" y="104" type="qcurve" smooth="yes"/>
      <point x="143" y="96"/>
      <point x="152" y="96" type="qcurve" smooth="yes"/>
      <point x="160" y="96"/>
      <point x="160" y="104" type="qcurve" smooth="yes"/>
    </contour>
    <contour>
      <point x="337" y="181"/>
      <point x="329" y="181" type="qcurve" smooth="yes"/>
      <point x="320" y="181"/>
      <point x="320" y="172" type="qcurve" smooth="yes"/>
      <point x="320" y="164"/>
      <point x="329" y="164" type="qcurve" smooth="yes"/>
      <point x="337" y="164"/>
      <point x="337" y="172" type="qcurve" smooth="yes"/>
    </contour>
    <contour>
      <point x="290" y="130"/>
      <point x="281" y="130" type="qcurve" smooth="yes"/>
      <point x="273" y="130"/>
      <point x="273" y="121" type="qcurve" smooth="yes"/>
      <point x="273" y="113"/>
      <point x="281" y="113" type="qcurve" smooth="yes"/>
      <point x="290" y="113"/>
      <point x="290" y="121" type="qcurve" smooth="yes"/>
    </contour>
    <contour>
      <point x="346" y="121"/>
      <point x="337" y="121" type="qcurve" smooth="yes"/>
      <point x="329" y="121"/>
      <point x="329" y="113" type="qcurve" smooth="yes"/>
      <point x="329" y="104"/>
      <point x="337" y="104" type="qcurve" smooth="yes"/>
      <point x="346" y="104"/>
      <point x="346" y="113" type="qcurve" smooth="yes"/>
    </contour>
    <contour>
      <point x="226" y="104"/>
      <point x="218" y="104" type="qcurve" smooth="yes"/>
      <point x="209" y="104"/>
      <point x="209" y="96" type="qcurve" smooth="yes"/>
      <point x="209" y="87"/>
      <point x="218" y="87" type="qcurve" smooth="yes"/>
      <point x="226" y="87"/>
      <point x="226" y="96" type="qcurve" smooth="yes"/>
    </contour>
    <contour>
      <point x="290" y="64"/>
      <point x="281" y="64" type="qcurve" smooth="yes"/>
      <point x="273" y="64"/>
      <point x="273" y="55" type="qcurve" smooth="yes"/>
      <point x="273" y="47"/>
      <point x="281" y="47" type="qcurve" smooth="yes"/>
      <point x="290" y="47"/>
      <point x="290" y="55" type="qcurve" smooth="yes"/>
    </contour>
    <contour>
      <point x="403" y="164"/>
      <point x="394" y="164" type="qcurve" smooth="yes"/>
      <point x="386" y="164"/>
      <point x="386" y="155" type="qcurve" smooth="yes"/>
      <point x="386" y="147"/>
      <point x="394" y="147" type="qcurve" smooth="yes"/>
      <point x="403" y="147"/>
      <point x="403" y="155" type="qcurve" smooth="yes"/>
    </contour>
    <contour>
      <point x="114" y="87"/>
      <point x="106" y="87" type="qcurve" smooth="yes"/>
      <point x="97" y="87"/>
      <point x="97" y="79" type="qcurve" smooth="yes"/>
      <point x="97" y="70"/>
      <point x="106" y="70" type="qcurve" smooth="yes"/>
      <point x="114" y="70"/>
      <point x="114" y="79" type="qcurve" smooth="yes"/>
    </contour>
  </outline>
</glyph>
<glyph name="soda" format="2">
  <advance width="512"/>
  <unicode hex="E202"/>
  <note>
soda
</note>
  <outline>
    <contour>
      <point x="213" y="14" type="line"/>
      <point x="208" y="16" type="line"/>
      <point x="202" y="17"/>
      <point x="189" y="33"/>
      <point x="186" y="45" type="qcurve" smooth="yes"/>
      <point x="181" y="71"/>
      <point x="190" y="111" type="qcurve" smooth="yes"/>
      <point x="193" y="130"/>
      <point x="186" y="162" type="qcurve" smooth="yes"/>
      <point x="172" y="238"/>
      <point x="183" y="316" type="qcurve" smooth="yes"/>
      <point x="185" y="332"/>
      <point x="195" y="359"/>
      <point x="212" y="389"/>
      <point x="213" y="391" type="qcurve" smooth="yes"/>
      <point x="227" y="419"/>
      <point x="227" y="454" type="qcurve"/>
      <point x="220" y="454" type="line"/>
      <point x="220" y="467" type="line"/>
      <point x="222" y="469" type="line"/>
      <point x="222" y="496" type="line"/>
      <point x="256" y="498" type="line"/>
      <point x="290" y="496" type="line"/>
      <point x="290" y="469" type="line"/>
      <point x="292" y="467" type="line"/>
      <point x="292" y="454" type="line"/>
      <point x="285" y="454" type="line"/>
      <point x="286" y="444" type="line" smooth="yes"/>
      <point x="286" y="435"/>
      <point x="293" y="403"/>
      <point x="299" y="391" type="qcurve" smooth="yes"/>
      <point x="300" y="389"/>
      <point x="317" y="359"/>
      <point x="327" y="332"/>
      <point x="329" y="316" type="qcurve" smooth="yes"/>
      <point x="340" y="238"/>
      <point x="326" y="162" type="qcurve" smooth="yes"/>
      <point x="319" y="130"/>
      <point x="322" y="110" type="qcurve"/>
      <point x="332" y="72"/>
      <point x="326" y="45" type="qcurve" smooth="yes"/>
      <point x="320" y="17"/>
      <point x="299" y="14" type="qcurve"/>
    </contour>
  </outline>
</glyph>
<glyph name="sofa" format="2">
  <advance width="512"/>
  <unicode hex="E203"/>
  <note>
sofa
</note>
  <outline>
    <contour>
      <point x="405" y="217"/>
      <point x="405" y="186" type="qcurve" smooth="yes"/>
      <point x="405" y="131" type="line"/>
      <point x="107" y="131" type="line"/>
      <point x="107" y="186" type="line" smooth="yes"/>
      <point x="107" y="217"/>
      <point x="149" y="217" type="qcurve" smooth="yes"/>
      <point x="363" y="217" type="line" smooth="yes"/>
    </contour>
    <contour>
      <point x="450" y="290" type="line"/>
      <point x="404" y="272"/>
      <point x="404" y="240" type="qcurve" smooth="yes"/>
      <point x="404" y="229" type="line"/>
      <point x="108" y="229" type="line"/>
      <point x="108" y="240" type="line" smooth="yes"/>
      <point x="108" y="272"/>
      <point x="62" y="290" type="qcurve"/>
      <point x="62" y="326" type="line" smooth="yes"/>
      <point x="62" y="349"/>
      <point x="112" y="381"/>
      <point x="147" y="381" type="qcurve" smooth="yes"/>
      <point x="179" y="381" type="line"/>
      <point x="180" y="381" type="line"/>
      <point x="331" y="381" type="line"/>
      <point x="333" y="381" type="line"/>
      <point x="365" y="381" type="line"/>
      <point x="366" y="381" type="line"/>
      <point x="369" y="381" type="line"/>
      <point x="369" y="380" type="line"/>
      <point x="403" y="379"/>
      <point x="450" y="348"/>
      <point x="450" y="326" type="qcurve" smooth="yes"/>
    </contour>
    <contour>
      <point x="500" y="285"/>
      <point x="500" y="274" type="qcurve" smooth="yes"/>
      <point x="500" y="131" type="line"/>
      <point x="420" y="131" type="line"/>
      <point x="420" y="240" type="line" smooth="yes"/>
      <point x="420" y="258"/>
      <point x="458" y="285"/>
      <point x="487" y="288" type="qcurve"/>
    </contour>
    <contour>
      <point x="54" y="285"/>
      <point x="92" y="258"/>
      <point x="92" y="240" type="qcurve" smooth="yes"/>
      <point x="92" y="131" type="line"/>
      <point x="12" y="131" type="line"/>
      <point x="12" y="274" type="line" smooth="yes"/>
      <point x="12" y="285"/>
      <point x="25" y="288" type="qcurve"/>
    </contour>
  </outline>
</glyph>
<glyph name="soup" format="2">
  <advance width="512"/>
  <unicode hex="E204"/>
  <note>
soup
</note>
  <outline>
    <contour>
      <point x="13" y="15" type="line"/>
      <point x="499" y="15" type="line"/>
      <point x="499" y="56" type="line"/>
      <point x="13" y="56" type="line"/>
    </contour>
    <contour>
      <point x="151" y="402"/>
      <point x="151" y="405" type="qcurve" smooth="yes"/>
      <point x="151" y="407" type="line"/>
      <point x="151" y="409" type="line"/>
      <point x="152" y="411"/>
      <point x="152" y="414" type="qcurve" smooth="yes"/>
      <point x="152" y="415"/>
      <point x="152" y="416" type="qcurve"/>
      <point x="153" y="418" type="line"/>
      <point x="153" y="419"/>
      <point x="154" y="421" type="qcurve"/>
      <point x="154" y="422"/>
      <point x="155" y="423" type="qcurve"/>
      <point x="156" y="428"/>
      <point x="160" y="431" type="qcurve"/>
      <point x="164" y="437"/>
      <point x="166" y="439" type="qcurve" smooth="yes"/>
      <point x="167" y="440" type="line"/>
      <point x="169" y="442" type="line"/>
      <point x="171" y="444" type="line"/>
      <point x="172" y="445" type="line"/>
      <point x="173" y="445" type="line"/>
      <point x="174" y="446" type="line"/>
      <point x="174" y="447" type="line"/>
      <point x="176" y="448" type="line" smooth="yes"/>
      <point x="180" y="451"/>
      <point x="182" y="454" type="qcurve" smooth="yes"/>
      <point x="187" y="459" type="line"/>
      <point x="187" y="460"/>
      <point x="190" y="464"/>
      <point x="191" y="466" type="qcurve" smooth="yes"/>
      <point x="193" y="470"/>
      <point x="193" y="474" type="qcurve" smooth="yes"/>
      <point x="195" y="486"/>
      <point x="195" y="490" type="qcurve" smooth="yes"/>
      <point x="195" y="495" type="line" smooth="yes"/>
      <point x="195" y="497"/>
      <point x="196" y="497" type="qcurve" smooth="yes"/>
      <point x="197" y="497" type="line"/>
      <point x="198" y="496"/>
      <point x="201" y="494"/>
      <point x="202" y="494" type="qcurve"/>
      <point x="212" y="486"/>
      <point x="220" y="474"/>
      <point x="224" y="458"/>
      <point x="222" y="449" type="qcurve" smooth="yes"/>
      <point x="221" y="441"/>
      <point x="215" y="431" type="qcurve" smooth="yes"/>
      <point x="211" y="423"/>
      <point x="203" y="417" type="qcurve" smooth="yes"/>
      <point x="199" y="414" type="line"/>
      <point x="197" y="412" type="line"/>
      <point x="196" y="412"/>
      <point x="194" y="410" type="qcurve" smooth="yes"/>
      <point x="193" y="409" type="line"/>
      <point x="192" y="409" type="line"/>
      <point x="190" y="407"/>
      <point x="189" y="407" type="qcurve"/>
      <point x="189" y="406"/>
      <point x="187" y="404" type="qcurve"/>
      <point x="186" y="404"/>
      <point x="184" y="402" type="qcurve" smooth="yes"/>
      <point x="183" y="401" type="line"/>
      <point x="182" y="400" type="line"/>
      <point x="181" y="399" type="line"/>
      <point x="181" y="398"/>
      <point x="180" y="397" type="qcurve" smooth="yes"/>
      <point x="179" y="396" type="line"/>
      <point x="179" y="394" type="line"/>
      <point x="177" y="390"/>
      <point x="177" y="386" type="qcurve" smooth="yes"/>
      <point x="177" y="382" type="line"/>
      <point x="177" y="379" type="line" smooth="yes"/>
      <point x="177" y="375"/>
      <point x="178" y="374" type="qcurve"/>
      <point x="178" y="372" type="line"/>
      <point x="176" y="372" type="line"/>
      <point x="176" y="372"/>
      <point x="170" y="374" type="qcurve" smooth="yes"/>
      <point x="168" y="375" type="line"/>
      <point x="168" y="376"/>
      <point x="167" y="376" type="qcurve"/>
      <point x="164" y="378"/>
      <point x="163" y="379" type="qcurve" smooth="yes"/>
      <point x="159" y="383" type="line" smooth="yes"/>
      <point x="158" y="384"/>
      <point x="156" y="388"/>
      <point x="155" y="389" type="qcurve"/>
      <point x="155" y="390"/>
      <point x="154" y="391" type="qcurve"/>
      <point x="154" y="392" type="line"/>
      <point x="153" y="393"/>
      <point x="153" y="396" type="qcurve"/>
    </contour>
    <contour>
      <point x="230" y="399"/>
      <point x="230" y="405" type="qcurve" smooth="yes"/>
      <point x="230" y="407" type="line"/>
      <point x="230" y="409" type="line" smooth="yes"/>
      <point x="230" y="410"/>
      <point x="231" y="413"/>
      <point x="231" y="415"/>
      <point x="232" y="416" type="qcurve"/>
      <point x="232" y="418" type="line" smooth="yes"/>
      <point x="232" y="419"/>
      <point x="233" y="421" type="qcurve"/>
      <point x="233" y="422"/>
      <point x="234" y="423" type="qcurve"/>
      <point x="238" y="431" type="line" smooth="yes"/>
      <point x="242" y="437"/>
      <point x="245" y="439" type="qcurve"/>
      <point x="245" y="440"/>
      <point x="246" y="440" type="qcurve"/>
      <point x="247" y="442" type="line"/>
      <point x="248" y="442"/>
      <point x="250" y="444" type="qcurve" smooth="yes"/>
      <point x="251" y="445" type="line"/>
      <point x="252" y="445" type="line"/>
      <point x="253" y="446" type="line"/>
      <point x="253" y="447" type="line"/>
      <point x="255" y="448" type="line"/>
      <point x="261" y="454" type="line"/>
      <point x="266" y="459" type="line"/>
      <point x="268" y="463"/>
      <point x="269" y="466" type="qcurve"/>
      <point x="270" y="467"/>
      <point x="272" y="474" type="qcurve" smooth="yes"/>
      <point x="274" y="486"/>
      <point x="274" y="490" type="qcurve" smooth="yes"/>
      <point x="274" y="495" type="line"/>
      <point x="274" y="497" type="line"/>
      <point x="276" y="497" type="line"/>
      <point x="277" y="496"/>
      <point x="281" y="494" type="qcurve"/>
      <point x="292" y="486"/>
      <point x="295" y="480" type="qcurve" smooth="yes"/>
      <point x="299" y="473"/>
      <point x="300" y="466" type="qcurve"/>
      <point x="303" y="459"/>
      <point x="301" y="449" type="qcurve" smooth="yes"/>
      <point x="300" y="441"/>
      <point x="294" y="431" type="qcurve" smooth="yes"/>
      <point x="287" y="421"/>
      <point x="282" y="417" type="qcurve" smooth="yes"/>
      <point x="278" y="414" type="line"/>
      <point x="276" y="412" type="line"/>
      <point x="275" y="412"/>
      <point x="273" y="410" type="qcurve" smooth="yes"/>
      <point x="272" y="409" type="line"/>
      <point x="271" y="409" type="line"/>
      <point x="269" y="407"/>
      <point x="268" y="407" type="qcurve"/>
      <point x="265" y="404" type="line"/>
      <point x="263" y="402" type="line"/>
      <point x="262" y="401" type="line"/>
      <point x="261" y="401"/>
      <point x="261" y="400" type="qcurve"/>
      <point x="260" y="400"/>
      <point x="260" y="399" type="qcurve"/>
      <point x="259" y="398"/>
      <point x="259" y="397" type="qcurve"/>
      <point x="258" y="396" type="line"/>
      <point x="258" y="394" type="line"/>
      <point x="256" y="390"/>
      <point x="256" y="386" type="qcurve" smooth="yes"/>
      <point x="256" y="382" type="line"/>
      <point x="256" y="379" type="line"/>
      <point x="256" y="374" type="line"/>
      <point x="257" y="373"/>
      <point x="257" y="372" type="qcurve"/>
      <point x="255" y="372" type="line" smooth="yes"/>
      <point x="254" y="372"/>
      <point x="250" y="374"/>
      <point x="248" y="374"/>
      <point x="247" y="375" type="qcurve" smooth="yes"/>
      <point x="246" y="376" type="line" smooth="yes"/>
      <point x="244" y="377"/>
      <point x="242" y="379" type="qcurve" smooth="yes"/>
      <point x="238" y="383" type="line" smooth="yes"/>
      <point x="237" y="384"/>
      <point x="234" y="388"/>
      <point x="234" y="390"/>
      <point x="234" y="391" type="qcurve"/>
      <point x="233" y="392" type="line"/>
      <point x="232" y="392"/>
      <point x="232" y="396"/>
      <point x="231" y="396" type="qcurve"/>
    </contour>
  </outline>
</glyph>
<glyph name="spermatozoon" format="2">
  <advance width="512"/>
  <unicode hex="E205"/>
  <note>
spermatozoon
</note>
  <outline>
    <contour>
      <point x="465" y="26"/>
      <point x="465" y="19" type="qcurve" smooth="yes"/>
      <point x="465" y="18" type="line" smooth="yes"/>
      <point x="463" y="11"/>
      <point x="456" y="13" type="qcurve" smooth="yes"/>
      <point x="433" y="18"/>
      <point x="400" y="58"/>
      <point x="399" y="82" type="qcurve" smooth="yes"/>
      <point x="398" y="101"/>
      <point x="371" y="133"/>
      <point x="352" y="137" type="qcurve" smooth="yes"/>
      <point x="327" y="144"/>
      <point x="312" y="163" type="qcurve" smooth="yes"/>
      <point x="296" y="181"/>
      <point x="294" y="207" type="qcurve" smooth="yes"/>
      <point x="292" y="230"/>
      <point x="274" y="248" type="qcurve" smooth="yes"/>
      <point x="272" y="250" type="line"/>
      <point x="271" y="250"/>
      <point x="268" y="252"/>
      <point x="267" y="253" type="qcurve" smooth="yes"/>
      <point x="265" y="255"/>
      <point x="263" y="256" type="qcurve" smooth="yes"/>
      <point x="261" y="257" type="line" smooth="yes"/>
      <point x="254" y="261"/>
      <point x="247" y="262" type="qcurve" smooth="yes"/>
      <point x="224" y="267"/>
      <point x="191" y="308"/>
      <point x="190" y="331" type="qcurve" smooth="yes"/>
      <point x="190" y="332" type="line" smooth="yes"/>
      <point x="188" y="346"/>
      <point x="185" y="351" type="qcurve"/>
      <point x="174" y="376"/>
      <point x="150" y="385" type="qcurve"/>
      <point x="141" y="382" type="line"/>
      <point x="110" y="365"/>
      <point x="79" y="395" type="qcurve" smooth="yes"/>
      <point x="58" y="417"/>
      <point x="42" y="475"/>
      <point x="56" y="491" type="qcurve"/>
      <point x="72" y="504"/>
      <point x="130" y="488"/>
      <point x="151" y="467" type="qcurve" smooth="yes"/>
      <point x="186" y="432"/>
      <point x="161" y="399" type="qcurve" smooth="yes"/>
      <point x="160" y="398"/>
      <point x="160" y="396" type="qcurve"/>
      <point x="185" y="384"/>
      <point x="198" y="356" type="qcurve" smooth="yes"/>
      <point x="202" y="346"/>
      <point x="204" y="332" type="qcurve" smooth="yes"/>
      <point x="205" y="313"/>
      <point x="232" y="281"/>
      <point x="250" y="276" type="qcurve"/>
      <point x="258" y="275"/>
      <point x="267" y="270" type="qcurve" smooth="yes"/>
      <point x="271" y="268"/>
      <point x="273" y="266" type="qcurve"/>
      <point x="307" y="244"/>
      <point x="309" y="207" type="qcurve" smooth="yes"/>
      <point x="309" y="190"/>
      <point x="323" y="172" type="qcurve" smooth="yes"/>
      <point x="335" y="157"/>
      <point x="355" y="152" type="qcurve"/>
      <point x="356" y="151" type="line"/>
      <point x="379" y="146"/>
      <point x="412" y="105"/>
      <point x="413" y="82" type="qcurve" smooth="yes"/>
      <point x="414" y="63"/>
      <point x="441" y="31"/>
      <point x="459" y="27" type="qcurve" smooth="yes"/>
    </contour>
  </outline>
</glyph>
<glyph name="spin-double" format="2">
  <advance width="512"/>
  <unicode hex="E206"/>
  <note>
spin-double
</note>
  <outline>
    <contour>
      <point x="370" y="492"/>
      <point x="501" y="352"/>
      <point x="501" y="256" type="qcurve" smooth="yes"/>
      <point x="501" y="155"/>
      <point x="357" y="11"/>
      <point x="256" y="11" type="qcurve" smooth="yes"/>
      <point x="249" y="11"/>
      <point x="239" y="21"/>
      <point x="239" y="28" type="qcurve" smooth="yes"/>
      <point x="239" y="43"/>
      <point x="255" y="45" type="qcurve" smooth="yes"/>
      <point x="256" y="45" type="line"/>
      <point x="257" y="45" type="line" smooth="yes"/>
      <point x="346" y="52"/>
      <point x="468" y="183"/>
      <point x="468" y="273" type="qcurve" smooth="yes"/>
      <point x="468" y="359"/>
      <point x="357" y="487"/>
      <point x="274" y="500" type="qcurve"/>
    </contour>
    <contour>
      <point x="44" y="153"/>
      <point x="155" y="25"/>
      <point x="238" y="12" type="qcurve"/>
      <point x="142" y="19"/>
      <point x="11" y="160"/>
      <point x="11" y="256" type="qcurve" smooth="yes"/>
      <point x="11" y="356"/>
      <point x="152" y="498"/>
      <point x="253" y="500" type="qcurve" smooth="yes"/>
      <point x="254" y="500"/>
      <point x="255" y="500" type="qcurve"/>
      <point x="256" y="501" type="line"/>
      <point x="263" y="501"/>
      <point x="273" y="491"/>
      <point x="273" y="484" type="qcurve" smooth="yes"/>
      <point x="273" y="483" type="line" smooth="yes"/>
      <point x="273" y="467"/>
      <point x="257" y="467" type="qcurve"/>
      <point x="256" y="466" type="line"/>
      <point x="255" y="466" type="line" smooth="yes"/>
      <point x="166" y="459"/>
      <point x="44" y="328"/>
      <point x="44" y="238" type="qcurve" smooth="yes"/>
    </contour>
  </outline>
</glyph>
<glyph name="stomach" format="2">
  <advance width="512"/>
  <unicode hex="E207"/>
  <note>
stomach
</note>
  <outline>
    <contour>
      <point x="386" y="500"/>
      <point x="463" y="396"/>
      <point x="450" y="310" type="qcurve" smooth="yes"/>
      <point x="437" y="217"/>
      <point x="321" y="94"/>
      <point x="246" y="98" type="qcurve" smooth="yes"/>
      <point x="197" y="101"/>
      <point x="181" y="106" type="qcurve"/>
      <point x="147" y="111"/>
      <point x="132" y="115" type="qcurve" smooth="yes"/>
      <point x="125" y="117"/>
      <point x="115" y="117" type="qcurve"/>
      <point x="111" y="112"/>
      <point x="121" y="73"/>
      <point x="134" y="57" type="qcurve" smooth="yes"/>
      <point x="150" y="36"/>
      <point x="129" y="18" type="qcurve" smooth="yes"/>
      <point x="122" y="12"/>
      <point x="112" y="12" type="qcurve" smooth="yes"/>
      <point x="99" y="12"/>
      <point x="91" y="23" type="qcurve" smooth="yes"/>
      <point x="69" y="50"/>
      <point x="54" y="120"/>
      <point x="70" y="147" type="qcurve" smooth="yes"/>
      <point x="91" y="181"/>
      <point x="140" y="170" type="qcurve"/>
      <point x="198" y="179"/>
      <point x="209" y="216" type="qcurve"/>
      <point x="209" y="217" type="line"/>
      <point x="210" y="219" type="line"/>
      <point x="223" y="268"/>
      <point x="207" y="321" type="qcurve"/>
      <point x="170" y="328"/>
      <point x="105" y="375"/>
      <point x="93" y="421" type="qcurve" smooth="yes"/>
      <point x="90" y="432"/>
      <point x="101" y="452"/>
      <point x="112" y="455" type="qcurve" smooth="yes"/>
      <point x="139" y="460"/>
      <point x="146" y="435" type="qcurve" smooth="yes"/>
      <point x="156" y="395"/>
      <point x="195" y="381" type="qcurve"/>
      <point x="190" y="447"/>
      <point x="265" y="500"/>
      <point x="324" y="500" type="qcurve" smooth="yes"/>
    </contour>
  </outline>
</glyph>
<glyph name="storm" format="2">
  <advance width="512"/>
  <unicode hex="E208"/>
  <note>
storm
</note>
  <outline>
    <contour>
      <point x="432" y="414"/>
      <point x="481" y="364"/>
      <point x="481" y="294"/>
      <point x="432" y="245"/>
      <point x="397" y="245" type="qcurve" smooth="yes"/>
      <point x="80" y="245" type="line" smooth="yes"/>
      <point x="31" y="245"/>
      <point x="31" y="282" type="qcurve" smooth="yes"/>
      <point x="31" y="303"/>
      <point x="60" y="332"/>
      <point x="80" y="332" type="qcurve" smooth="yes"/>
      <point x="88" y="332"/>
      <point x="94" y="329" type="qcurve"/>
      <point x="94" y="330" type="line" smooth="yes"/>
      <point x="94" y="354"/>
      <point x="128" y="388"/>
      <point x="152" y="388" type="qcurve" smooth="yes"/>
      <point x="154" y="388"/>
      <point x="156" y="387" type="qcurve"/>
      <point x="156" y="388"/>
      <point x="156" y="390" type="qcurve"/>
      <point x="155" y="391" type="line"/>
      <point x="155" y="435"/>
      <point x="218" y="498"/>
      <point x="262" y="498" type="qcurve" smooth="yes"/>
      <point x="301" y="498"/>
      <point x="361" y="447"/>
      <point x="367" y="408" type="qcurve"/>
      <point x="385" y="414"/>
      <point x="397" y="414" type="qcurve" smooth="yes"/>
    </contour>
    <contour>
      <point x="168" y="15" type="line"/>
      <point x="167" y="16" type="line"/>
      <point x="212" y="130" type="line" smooth="yes"/>
      <point x="214" y="135"/>
      <point x="209" y="135" type="qcurve" smooth="yes"/>
      <point x="180" y="135" type="line" smooth="yes"/>
      <point x="174" y="135"/>
      <point x="177" y="140" type="qcurve" smooth="yes"/>
      <point x="217" y="221" type="line" smooth="yes"/>
      <point x="220" y="226"/>
      <point x="225" y="226" type="qcurve" smooth="yes"/>
      <point x="287" y="226" type="line" smooth="yes"/>
      <point x="295" y="226"/>
      <point x="290" y="221" type="qcurve"/>
      <point x="276" y="191" type="line" smooth="yes"/>
      <point x="274" y="186"/>
      <point x="279" y="186" type="qcurve" smooth="yes"/>
      <point x="303" y="186" type="line" smooth="yes"/>
      <point x="309" y="186"/>
      <point x="305" y="182" type="qcurve" smooth="yes"/>
    </contour>
  </outline>
</glyph>
<glyph name="telescope" format="2">
  <advance width="512"/>
  <unicode hex="E209"/>
  <note>
telescope
</note>
  <outline>
    <contour>
      <point x="507" y="289"/>
      <point x="497" y="263" type="qcurve" smooth="yes"/>
      <point x="488" y="238"/>
      <point x="470" y="243" type="qcurve" smooth="yes"/>
      <point x="426" y="258" type="line"/>
      <point x="406" y="232"/>
      <point x="384" y="237" type="qcurve"/>
      <point x="375" y="219"/>
      <point x="360" y="207" type="qcurve"/>
      <point x="439" y="51" type="line" smooth="yes"/>
      <point x="448" y="35"/>
      <point x="431" y="26" type="qcurve"/>
      <point x="425" y="24"/>
      <point x="423" y="24" type="qcurve" smooth="yes"/>
      <point x="411" y="24"/>
      <point x="406" y="34" type="qcurve" smooth="yes"/>
      <point x="327" y="189" type="line"/>
      <point x="321" y="187"/>
      <point x="317" y="186" type="qcurve"/>
      <point x="317" y="27" type="line" smooth="yes"/>
      <point x="317" y="20"/>
      <point x="306" y="9"/>
      <point x="299" y="9" type="qcurve" smooth="yes"/>
      <point x="291" y="9"/>
      <point x="280" y="20"/>
      <point x="280" y="27" type="qcurve" smooth="yes"/>
      <point x="280" y="186" type="line"/>
      <point x="279" y="186"/>
      <point x="271" y="188"/>
      <point x="270" y="189" type="qcurve"/>
      <point x="191" y="34" type="line" smooth="yes"/>
      <point x="186" y="24"/>
      <point x="175" y="24" type="qcurve" smooth="yes"/>
      <point x="172" y="24"/>
      <point x="166" y="26" type="qcurve"/>
      <point x="151" y="35"/>
      <point x="158" y="51" type="qcurve" smooth="yes"/>
      <point x="237" y="207" type="line"/>
      <point x="203" y="235"/>
      <point x="203" y="280" type="qcurve" smooth="yes"/>
      <point x="203" y="292"/>
      <point x="206" y="302" type="qcurve"/>
      <point x="98" y="341" type="line"/>
      <point x="84" y="331"/>
      <point x="66" y="331" type="qcurve" smooth="yes"/>
      <point x="57" y="331"/>
      <point x="49" y="334" type="qcurve" smooth="yes"/>
      <point x="24" y="343"/>
      <point x="7" y="404"/>
      <point x="20" y="439" type="qcurve" smooth="yes"/>
      <point x="30" y="467"/>
      <point x="71" y="503"/>
      <point x="93" y="503" type="qcurve" smooth="yes"/>
      <point x="102" y="503"/>
      <point x="110" y="500" type="qcurve" smooth="yes"/>
      <point x="135" y="491"/>
      <point x="143" y="462" type="qcurve"/>
      <point x="425" y="358" type="line"/>
      <point x="448" y="348"/>
      <point x="446" y="313" type="qcurve"/>
      <point x="490" y="297" type="line"/>
    </contour>
    <contour>
      <point x="112" y="429"/>
      <point x="106" y="462"/>
      <point x="97" y="466" type="qcurve"/>
      <point x="93" y="466" type="line" smooth="yes"/>
      <point x="84" y="466"/>
      <point x="61" y="444"/>
      <point x="55" y="426" type="qcurve" smooth="yes"/>
      <point x="47" y="405"/>
      <point x="52" y="372"/>
      <point x="62" y="368" type="qcurve" smooth="yes"/>
      <point x="71" y="365"/>
      <point x="97" y="388"/>
      <point x="105" y="408" type="qcurve" smooth="yes"/>
    </contour>
    <contour>
      <point x="346" y="301"/>
      <point x="334" y="303" type="qcurve" smooth="yes"/>
      <point x="321" y="305"/>
      <point x="300" y="283"/>
      <point x="296" y="249"/>
      <point x="310" y="222"/>
      <point x="323" y="221" type="qcurve" smooth="yes"/>
      <point x="335" y="219"/>
      <point x="356" y="241"/>
      <point x="360" y="275"/>
    </contour>
  </outline>
</glyph>
<glyph name="thermometer" format="2">
  <advance width="512"/>
  <unicode hex="E20A"/>
  <note>
thermometer
</note>
  <outline>
    <contour>
      <point x="305" y="127"/>
      <point x="305" y="93" type="qcurve" smooth="yes"/>
      <point x="305" y="72"/>
      <point x="277" y="44"/>
      <point x="235" y="44"/>
      <point x="207" y="72"/>
      <point x="207" y="93" type="qcurve" smooth="yes"/>
      <point x="207" y="127"/>
      <point x="240" y="139" type="qcurve"/>
      <point x="240" y="305" type="line" smooth="yes"/>
      <point x="240" y="321"/>
      <point x="272" y="321"/>
      <point x="272" y="305" type="qcurve" smooth="yes"/>
      <point x="272" y="139" type="line"/>
    </contour>
    <contour>
      <point x="337" y="133"/>
      <point x="337" y="93" type="qcurve" smooth="yes"/>
      <point x="337" y="58"/>
      <point x="290" y="12"/>
      <point x="222" y="12"/>
      <point x="175" y="58"/>
      <point x="175" y="93" type="qcurve" smooth="yes"/>
      <point x="175" y="134"/>
      <point x="207" y="158" type="qcurve"/>
      <point x="207" y="452" type="line" smooth="yes"/>
      <point x="207" y="472"/>
      <point x="235" y="500"/>
      <point x="277" y="500"/>
      <point x="305" y="472"/>
      <point x="305" y="452" type="qcurve" smooth="yes"/>
      <point x="305" y="158" type="line"/>
    </contour>
    <contour>
      <point x="321" y="66"/>
      <point x="321" y="93" type="qcurve" smooth="yes"/>
      <point x="321" y="131"/>
      <point x="289" y="150" type="qcurve"/>
      <point x="289" y="452" type="line" smooth="yes"/>
      <point x="289" y="465"/>
      <point x="269" y="484"/>
      <point x="243" y="484"/>
      <point x="223" y="465"/>
      <point x="223" y="452" type="qcurve" smooth="yes"/>
      <point x="223" y="150" type="line"/>
      <point x="191" y="131"/>
      <point x="191" y="93" type="qcurve" smooth="yes"/>
      <point x="191" y="66"/>
      <point x="229" y="28"/>
      <point x="283" y="28"/>
    </contour>
  </outline>
</glyph>
<glyph name="thermometer-high" format="2">
  <advance width="512"/>
  <unicode hex="E20B"/>
  <note>
thermometer-high
</note>
  <outline>
    <contour>
      <point x="305" y="127"/>
      <point x="305" y="93" type="qcurve" smooth="yes"/>
      <point x="305" y="73"/>
      <point x="277" y="45"/>
      <point x="235" y="45"/>
      <point x="207" y="73"/>
      <point x="207" y="93" type="qcurve" smooth="yes"/>
      <point x="207" y="127"/>
      <point x="240" y="139" type="qcurve"/>
      <point x="240" y="413" type="line" smooth="yes"/>
      <point x="240" y="430"/>
      <point x="272" y="430"/>
      <point x="272" y="413" type="qcurve" smooth="yes"/>
      <point x="272" y="139" type="line"/>
    </contour>
    <contour>
      <point x="337" y="134"/>
      <point x="337" y="93" type="qcurve" smooth="yes"/>
      <point x="337" y="59"/>
      <point x="290" y="12"/>
      <point x="222" y="12"/>
      <point x="175" y="59"/>
      <point x="175" y="93" type="qcurve" smooth="yes"/>
      <point x="175" y="134"/>
      <point x="207" y="158" type="qcurve"/>
      <point x="207" y="451" type="line" smooth="yes"/>
      <point x="207" y="471"/>
      <point x="235" y="500"/>
      <point x="277" y="500"/>
      <point x="305" y="472"/>
      <point x="305" y="451" type="qcurve" smooth="yes"/>
      <point x="305" y="158" type="line"/>
    </contour>
    <contour>
      <point x="321" y="67"/>
      <point x="321" y="93" type="qcurve" smooth="yes"/>
      <point x="321" y="132"/>
      <point x="288" y="150" type="qcurve"/>
      <point x="288" y="451" type="line" smooth="yes"/>
      <point x="288" y="465"/>
      <point x="269" y="484"/>
      <point x="256" y="484" type="qcurve" smooth="yes"/>
      <point x="242" y="484"/>
      <point x="223" y="464"/>
      <point x="223" y="451" type="qcurve" smooth="yes"/>
      <point x="223" y="150" type="line"/>
      <point x="191" y="131"/>
      <point x="191" y="93" type="qcurve" smooth="yes"/>
      <point x="191" y="67"/>
      <point x="229" y="28"/>
      <point x="283" y="28"/>
    </contour>
  </outline>
</glyph>
<glyph name="thermometer-low" format="2">
  <advance width="512"/>
  <unicode hex="E20C"/>
  <note>
thermometer-low
</note>
  <outline>
    <contour>
      <point x="305" y="126"/>
      <point x="305" y="92" type="qcurve" smooth="yes"/>
      <point x="305" y="71"/>
      <point x="277" y="43"/>
      <point x="235" y="43"/>
      <point x="207" y="71"/>
      <point x="207" y="92" type="qcurve" smooth="yes"/>
      <point x="207" y="126"/>
      <point x="240" y="138" type="qcurve"/>
      <point x="240" y="198" type="line" smooth="yes"/>
      <point x="240" y="214"/>
      <point x="272" y="214"/>
      <point x="272" y="198" type="qcurve" smooth="yes"/>
      <point x="272" y="138" type="line"/>
    </contour>
    <contour>
      <point x="338" y="134"/>
      <point x="338" y="92" type="qcurve" smooth="yes"/>
      <point x="338" y="58"/>
      <point x="290" y="10"/>
      <point x="222" y="10"/>
      <point x="174" y="58"/>
      <point x="174" y="92" type="qcurve" smooth="yes"/>
      <point x="174" y="133"/>
      <point x="207" y="158" type="qcurve"/>
      <point x="207" y="453" type="line" smooth="yes"/>
      <point x="207" y="473"/>
      <point x="235" y="502"/>
      <point x="277" y="502"/>
      <point x="305" y="474"/>
      <point x="305" y="453" type="qcurve" smooth="yes"/>
      <point x="305" y="157" type="line"/>
    </contour>
    <contour>
      <point x="322" y="65"/>
      <point x="321" y="92" type="qcurve" smooth="yes"/>
      <point x="321" y="130"/>
      <point x="289" y="149" type="qcurve"/>
      <point x="289" y="453" type="line" smooth="yes"/>
      <point x="289" y="466"/>
      <point x="270" y="486"/>
      <point x="242" y="486"/>
      <point x="223" y="466"/>
      <point x="223" y="453" type="qcurve" smooth="yes"/>
      <point x="223" y="149" type="line"/>
      <point x="190" y="130"/>
      <point x="190" y="92" type="qcurve" smooth="yes"/>
      <point x="190" y="65"/>
      <point x="229" y="26"/>
      <point x="283" y="26"/>
    </contour>
  </outline>
</glyph>
<glyph name="thin-close" format="2">
  <advance width="512"/>
  <unicode hex="E20D"/>
  <note>
thin-close
</note>
  <outline>
    <contour>
      <point x="495" y="55" type="line" smooth="yes"/>
      <point x="502" y="48"/>
      <point x="502" y="26"/>
      <point x="488" y="12"/>
      <point x="466" y="12"/>
      <point x="459" y="19" type="qcurve" smooth="yes"/>
      <point x="258" y="220" type="line"/>
      <point x="57" y="19" type="line" smooth="yes"/>
      <point x="50" y="12"/>
      <point x="38" y="12" type="qcurve" smooth="yes"/>
      <point x="27" y="12"/>
      <point x="20" y="19" type="qcurve" smooth="yes"/>
      <point x="12" y="26"/>
      <point x="12" y="48"/>
      <point x="20" y="55" type="qcurve" smooth="yes"/>
      <point x="221" y="257" type="line"/>
      <point x="20" y="458" type="line" smooth="yes"/>
      <point x="12" y="466"/>
      <point x="12" y="486"/>
      <point x="28" y="502"/>
      <point x="50" y="502"/>
      <point x="57" y="494" type="qcurve" smooth="yes"/>
      <point x="258" y="293" type="line"/>
      <point x="459" y="494" type="line" smooth="yes"/>
      <point x="466" y="502"/>
      <point x="488" y="502"/>
      <point x="502" y="486"/>
      <point x="502" y="466"/>
      <point x="495" y="458" type="qcurve" smooth="yes"/>
      <point x="294" y="257" type="line"/>
    </contour>
  </outline>
</glyph>
<glyph name="toilet" format="2">
  <advance width="512"/>
  <unicode hex="E20E"/>
  <note>
toilet
</note>
  <outline>
    <contour>
      <point x="138" y="320" type="line"/>
      <point x="138" y="429" type="line" smooth="yes"/>
      <point x="138" y="460"/>
      <point x="180" y="503"/>
      <point x="211" y="503" type="qcurve" smooth="yes"/>
      <point x="301" y="503" type="line" smooth="yes"/>
      <point x="331" y="503"/>
      <point x="374" y="460"/>
      <point x="374" y="429" type="qcurve" smooth="yes"/>
      <point x="374" y="320" type="line"/>
    </contour>
    <contour>
      <point x="455" y="277"/>
      <point x="455" y="253" type="qcurve" smooth="yes"/>
      <point x="455" y="241"/>
      <point x="439" y="225"/>
      <point x="427" y="225" type="qcurve" smooth="yes"/>
      <point x="417" y="225" type="line"/>
      <point x="406" y="202"/>
      <point x="394" y="179"/>
      <point x="372" y="149"/>
      <point x="344" y="132"/>
      <point x="325" y="128" type="qcurve"/>
      <point x="325" y="84" type="line"/>
      <point x="360" y="66"/>
      <point x="373" y="30" type="qcurve" smooth="yes"/>
      <point x="376" y="23"/>
      <point x="371" y="15" type="qcurve" smooth="yes"/>
      <point x="366" y="9"/>
      <point x="358" y="9" type="qcurve" smooth="yes"/>
      <point x="154" y="9" type="line" smooth="yes"/>
      <point x="146" y="9"/>
      <point x="141" y="15" type="qcurve" smooth="yes"/>
      <point x="136" y="23"/>
      <point x="139" y="30" type="qcurve" smooth="yes"/>
      <point x="152" y="66"/>
      <point x="187" y="84" type="qcurve"/>
      <point x="187" y="127" type="line"/>
      <point x="162" y="133"/>
      <point x="126" y="165"/>
      <point x="109" y="194"/>
      <point x="95" y="225" type="qcurve"/>
      <point x="84" y="225" type="line" smooth="yes"/>
      <point x="73" y="225"/>
      <point x="57" y="241"/>
      <point x="57" y="253" type="qcurve" smooth="yes"/>
      <point x="57" y="277"/>
      <point x="79" y="280" type="qcurve"/>
      <point x="256" y="280" type="line"/>
      <point x="433" y="280" type="line"/>
    </contour>
  </outline>
</glyph>
<glyph name="tools" format="2">
  <advance width="512"/>
  <unicode hex="E20F"/>
  <note>
tools
</note>
  <outline>
    <contour>
      <point x="334" y="308" type="line"/>
      <point x="307" y="335" type="line"/>
      <point x="381" y="409" type="line"/>
      <point x="384" y="426" type="line" smooth="yes"/>
      <point x="388" y="442"/>
      <point x="414" y="459" type="qcurve" smooth="yes"/>
      <point x="452" y="484" type="line" smooth="yes"/>
      <point x="477" y="502"/>
      <point x="484" y="496" type="qcurve"/>
      <point x="489" y="490" type="line"/>
      <point x="495" y="485" type="line" smooth="yes"/>
      <point x="501" y="479"/>
      <point x="483" y="453" type="qcurve" smooth="yes"/>
      <point x="458" y="415" type="line" smooth="yes"/>
      <point x="441" y="388"/>
      <point x="424" y="385" type="qcurve" smooth="yes"/>
      <point x="408" y="382" type="line"/>
    </contour>
    <contour>
      <point x="215" y="173" type="line"/>
      <point x="233" y="155" type="line"/>
      <point x="233" y="154"/>
      <point x="232" y="154" type="qcurve"/>
      <point x="108" y="30" type="line" smooth="yes"/>
      <point x="92" y="14"/>
      <point x="44" y="14"/>
      <point x="12" y="46"/>
      <point x="12" y="92"/>
      <point x="28" y="109" type="qcurve" smooth="yes"/>
      <point x="152" y="233" type="line"/>
      <point x="153" y="233"/>
      <point x="153" y="234" type="qcurve"/>
      <point x="172" y="216" type="line"/>
    </contour>
    <contour>
      <point x="500" y="108"/>
      <point x="500" y="54"/>
      <point x="481" y="34" type="qcurve" smooth="yes"/>
      <point x="461" y="14"/>
      <point x="433" y="14" type="qcurve" smooth="yes"/>
      <point x="406" y="14"/>
      <point x="386" y="34" type="qcurve" smooth="yes"/>
      <point x="147" y="273" type="line"/>
      <point x="133" y="270"/>
      <point x="116" y="272" type="qcurve" smooth="yes"/>
      <point x="75" y="275"/>
      <point x="46" y="304" type="qcurve" smooth="yes"/>
      <point x="6" y="344"/>
      <point x="13" y="399" type="qcurve" smooth="yes"/>
      <point x="14" y="412"/>
      <point x="34" y="416"/>
      <point x="43" y="407" type="qcurve" smooth="yes"/>
      <point x="88" y="362" type="line" smooth="yes"/>
      <point x="96" y="354"/>
      <point x="117" y="354"/>
      <point x="125" y="362" type="qcurve" smooth="yes"/>
      <point x="152" y="390" type="line" smooth="yes"/>
      <point x="160" y="398"/>
      <point x="160" y="419"/>
      <point x="152" y="427" type="qcurve" smooth="yes"/>
      <point x="109" y="470" type="line" smooth="yes"/>
      <point x="100" y="479"/>
      <point x="105" y="498"/>
      <point x="118" y="499" type="qcurve" smooth="yes"/>
      <point x="169" y="502"/>
      <point x="207" y="466" type="qcurve" smooth="yes"/>
      <point x="232" y="441"/>
      <point x="239" y="403" type="qcurve"/>
      <point x="241" y="381"/>
      <point x="239" y="370" type="qcurve"/>
      <point x="481" y="128" type="line" smooth="yes"/>
    </contour>
  </outline>
</glyph>
<glyph name="tooth" format="2">
  <advance width="512"/>
  <unicode hex="E210"/>
  <note>
tooth
</note>
  <outline>
    <contour>
      <point x="461" y="384"/>
      <point x="450" y="277"/>
      <point x="417" y="235" type="qcurve"/>
      <point x="423" y="199" type="line" smooth="yes"/>
      <point x="429" y="163"/>
      <point x="407" y="62"/>
      <point x="373" y="34" type="qcurve" smooth="yes"/>
      <point x="356" y="20" type="line" smooth="yes"/>
      <point x="338" y="6"/>
      <point x="313" y="18"/>
      <point x="324" y="58" type="qcurve"/>
      <point x="329" y="69"/>
      <point x="326" y="120"/>
      <point x="316" y="171"/>
      <point x="281" y="212"/>
      <point x="256" y="214" type="qcurve"/>
      <point x="231" y="212"/>
      <point x="196" y="171"/>
      <point x="186" y="120"/>
      <point x="183" y="69"/>
      <point x="188" y="58" type="qcurve"/>
      <point x="194" y="38"/>
      <point x="191" y="19"/>
      <point x="186" y="9"/>
      <point x="171" y="13"/>
      <point x="160" y="17"/>
      <point x="145" y="29"/>
      <point x="141" y="33"/>
      <point x="139" y="34" type="qcurve"/>
      <point x="118" y="52"/>
      <point x="93" y="108"/>
      <point x="87" y="156"/>
      <point x="90" y="210"/>
      <point x="94" y="229"/>
      <point x="95" y="235" type="qcurve"/>
      <point x="62" y="277"/>
      <point x="51" y="384"/>
      <point x="75" y="424" type="qcurve" smooth="yes"/>
      <point x="100" y="469"/>
      <point x="137" y="494" type="qcurve" smooth="yes"/>
      <point x="163" y="510"/>
      <point x="187" y="494" type="qcurve" smooth="yes"/>
      <point x="227" y="470" type="line" smooth="yes"/>
      <point x="241" y="462"/>
      <point x="271" y="462"/>
      <point x="285" y="470" type="qcurve" smooth="yes"/>
      <point x="325" y="494" type="line" smooth="yes"/>
      <point x="349" y="510"/>
      <point x="375" y="494" type="qcurve" smooth="yes"/>
      <point x="412" y="469"/>
      <point x="437" y="424" type="qcurve" smooth="yes"/>
    </contour>
  </outline>
</glyph>
<glyph name="uterus" format="2">
  <advance width="512"/>
  <unicode hex="E211"/>
  <note>
uterus
</note>
  <outline>
    <contour>
      <point x="419" y="294"/>
      <point x="383" y="294"/>
      <point x="358" y="311"/>
      <point x="358" y="337"/>
      <point x="383" y="354"/>
      <point x="419" y="354"/>
      <point x="445" y="337"/>
      <point x="445" y="311"/>
    </contour>
    <contour>
      <point x="499" y="364" type="line" smooth="yes"/>
      <point x="499" y="356"/>
      <point x="489" y="338"/>
      <point x="479" y="334" type="qcurve"/>
      <point x="478" y="322" type="line" smooth="yes"/>
      <point x="476" y="310"/>
      <point x="453" y="291"/>
      <point x="433" y="295" type="qcurve"/>
      <point x="444" y="305" type="line" smooth="yes"/>
      <point x="455" y="315"/>
      <point x="446" y="348"/>
      <point x="416" y="362" type="qcurve"/>
      <point x="420" y="364" type="line" smooth="yes"/>
      <point x="423" y="366"/>
      <point x="437" y="367"/>
      <point x="447" y="364" type="qcurve"/>
      <point x="452" y="364" type="line" smooth="yes"/>
      <point x="457" y="365"/>
      <point x="468" y="373"/>
      <point x="468" y="381" type="qcurve"/>
      <point x="466" y="389" type="line" smooth="yes"/>
      <point x="465" y="397"/>
      <point x="438" y="412"/>
      <point x="415" y="412" type="qcurve"/>
      <point x="396" y="410" type="line" smooth="yes"/>
      <point x="378" y="407"/>
      <point x="339" y="385"/>
      <point x="337" y="368" type="qcurve" smooth="yes"/>
      <point x="336" y="355" type="line" smooth="yes"/>
      <point x="335" y="342"/>
      <point x="327" y="307"/>
      <point x="320" y="298" type="qcurve" smooth="yes"/>
      <point x="316" y="292" type="line"/>
      <point x="313" y="285"/>
      <point x="298" y="263"/>
      <point x="290" y="255" type="qcurve"/>
      <point x="288" y="250" type="line" smooth="yes"/>
      <point x="285" y="244"/>
      <point x="285" y="230"/>
      <point x="288" y="223" type="qcurve" smooth="yes"/>
      <point x="291" y="216" type="line" smooth="yes"/>
      <point x="294" y="208"/>
      <point x="297" y="179"/>
      <point x="295" y="157" type="qcurve" smooth="yes"/>
      <point x="294" y="142" type="line" smooth="yes"/>
      <point x="294" y="127"/>
      <point x="286" y="86"/>
      <point x="278" y="75" type="qcurve" smooth="yes"/>
      <point x="276" y="72" type="line"/>
      <point x="273" y="70"/>
      <point x="266" y="70"/>
      <point x="263" y="75" type="qcurve"/>
      <point x="256" y="78" type="line"/>
      <point x="253" y="78"/>
      <point x="249" y="75" type="qcurve"/>
      <point x="243" y="64"/>
      <point x="234" y="75" type="qcurve" smooth="yes"/>
      <point x="217" y="100"/>
      <point x="217" y="157" type="qcurve"/>
      <point x="213" y="177"/>
      <point x="219" y="211"/>
      <point x="223" y="221"/>
      <point x="224" y="223" type="qcurve"/>
      <point x="229" y="228"/>
      <point x="225" y="246"/>
      <point x="223" y="253"/>
      <point x="222" y="255" type="qcurve"/>
      <point x="204" y="274"/>
      <point x="192" y="298" type="qcurve"/>
      <point x="177" y="318"/>
      <point x="175" y="368" type="qcurve" smooth="yes"/>
      <point x="174" y="379"/>
      <point x="156" y="396"/>
      <point x="136" y="404"/>
      <point x="110" y="410"/>
      <point x="100" y="412"/>
      <point x="97" y="412" type="qcurve" smooth="yes"/>
      <point x="83" y="412"/>
      <point x="61" y="406"/>
      <point x="51" y="398"/>
      <point x="45" y="387"/>
      <point x="44" y="382"/>
      <point x="44" y="381" type="qcurve" smooth="yes"/>
      <point x="46" y="364"/>
      <point x="65" y="364" type="qcurve"/>
      <point x="74" y="367"/>
      <point x="90" y="365"/>
      <point x="95" y="363"/>
      <point x="96" y="362" type="qcurve"/>
      <point x="77" y="353"/>
      <point x="60" y="333"/>
      <point x="61" y="317"/>
      <point x="71" y="302"/>
      <point x="77" y="296"/>
      <point x="79" y="295" type="qcurve"/>
      <point x="59" y="291"/>
      <point x="36" y="313"/>
      <point x="33" y="329"/>
      <point x="33" y="334" type="qcurve"/>
      <point x="11" y="343"/>
      <point x="13" y="371" type="qcurve" smooth="yes"/>
      <point x="14" y="397"/>
      <point x="32" y="413" type="qcurve"/>
      <point x="58" y="446"/>
      <point x="101" y="442" type="qcurve" smooth="yes"/>
      <point x="144" y="439"/>
      <point x="168" y="424" type="qcurve"/>
      <point x="188" y="416"/>
      <point x="205" y="421" type="qcurve"/>
      <point x="218" y="427"/>
      <point x="256" y="427" type="qcurve" smooth="yes"/>
      <point x="266" y="427" type="line" smooth="yes"/>
      <point x="276" y="427"/>
      <point x="301" y="424"/>
      <point x="307" y="421" type="qcurve"/>
      <point x="312" y="420" type="line" smooth="yes"/>
      <point x="317" y="419"/>
      <point x="335" y="420"/>
      <point x="344" y="424" type="qcurve" smooth="yes"/>
      <point x="351" y="428" type="line" smooth="yes"/>
      <point x="358" y="432"/>
      <point x="392" y="441"/>
      <point x="411" y="442" type="qcurve" smooth="yes"/>
      <point x="422" y="442" type="line" smooth="yes"/>
      <point x="434" y="442"/>
      <point x="468" y="428"/>
      <point x="480" y="413" type="qcurve" smooth="yes"/>
      <point x="484" y="408" type="line"/>
      <point x="489" y="404"/>
      <point x="499" y="383"/>
      <point x="499" y="371" type="qcurve" smooth="yes"/>
    </contour>
    <contour>
      <point x="262" y="292"/>
      <point x="293" y="370"/>
      <point x="311" y="390"/>
      <point x="317" y="394" type="qcurve"/>
      <point x="288" y="384"/>
      <point x="256" y="388" type="qcurve"/>
      <point x="247" y="388" type="line" smooth="yes"/>
      <point x="238" y="387"/>
      <point x="208" y="390"/>
      <point x="195" y="394" type="qcurve"/>
      <point x="208" y="381" type="line" smooth="yes"/>
      <point x="222" y="368"/>
      <point x="250" y="292"/>
      <point x="250" y="242" type="qcurve"/>
      <point x="252" y="234" type="line" smooth="yes"/>
      <point x="253" y="227"/>
      <point x="245" y="216"/>
      <point x="234" y="220" type="qcurve"/>
      <point x="234" y="190" type="line" smooth="yes"/>
      <point x="233" y="159"/>
      <point x="240" y="90"/>
      <point x="248" y="83" type="qcurve"/>
      <point x="248" y="84" type="line"/>
      <point x="249" y="86"/>
      <point x="253" y="88"/>
      <point x="256" y="88" type="qcurve"/>
      <point x="264" y="83" type="line"/>
      <point x="281" y="99"/>
      <point x="278" y="220" type="qcurve"/>
      <point x="267" y="216"/>
      <point x="260" y="229"/>
      <point x="261" y="239"/>
      <point x="262" y="242" type="qcurve"/>
    </contour>
    <contour>
      <point x="129" y="294"/>
      <point x="93" y="294"/>
      <point x="67" y="311"/>
      <point x="67" y="337"/>
      <point x="93" y="354"/>
      <point x="129" y="354"/>
      <point x="154" y="337"/>
      <point x="154" y="311"/>
    </contour>
  </outline>
</glyph>
<glyph name="w3c" format="2">
  <advance width="512"/>
  <unicode hex="E212"/>
  <note>
w3c
</note>
  <outline>
    <contour>
      <point x="432" y="208"/>
      <point x="398" y="208" type="qcurve" smooth="yes"/>
      <point x="370" y="208"/>
      <point x="352" y="229" type="qcurve" smooth="yes"/>
      <point x="334" y="252"/>
      <point x="334" y="286" type="qcurve" smooth="yes"/>
      <point x="334" y="320"/>
      <point x="352" y="343" type="qcurve" smooth="yes"/>
      <point x="371" y="365"/>
      <point x="398" y="365" type="qcurve" smooth="yes"/>
      <point x="431" y="365"/>
      <point x="448" y="330" type="qcurve" smooth="yes"/>
      <point x="450" y="326"/>
      <point x="449" y="323" type="qcurve"/>
      <point x="447" y="320"/>
      <point x="444" y="318" type="qcurve"/>
      <point x="426" y="310" type="line" smooth="yes"/>
      <point x="422" y="308"/>
      <point x="419" y="310" type="qcurve" smooth="yes"/>
      <point x="415" y="312"/>
      <point x="415" y="314" type="qcurve"/>
      <point x="409" y="323" type="line"/>
      <point x="404" y="328"/>
      <point x="398" y="328" type="qcurve" smooth="yes"/>
      <point x="387" y="328"/>
      <point x="381" y="316" type="qcurve" smooth="yes"/>
      <point x="374" y="305"/>
      <point x="374" y="267"/>
      <point x="381" y="256" type="qcurve"/>
      <point x="386" y="245"/>
      <point x="398" y="245" type="qcurve" smooth="yes"/>
      <point x="406" y="245"/>
      <point x="410" y="250" type="qcurve" smooth="yes"/>
      <point x="411" y="252"/>
      <point x="415" y="258"/>
      <point x="415" y="260"/>
      <point x="419" y="264" type="qcurve" smooth="yes"/>
      <point x="422" y="266"/>
      <point x="426" y="264" type="qcurve" smooth="yes"/>
      <point x="444" y="255" type="line"/>
      <point x="448" y="254"/>
      <point x="450" y="248"/>
      <point x="449" y="244" type="qcurve"/>
    </contour>
    <contour>
      <point x="255" y="208"/>
      <point x="242" y="214" type="qcurve" smooth="yes"/>
      <point x="228" y="222"/>
      <point x="221" y="233" type="qcurve" smooth="yes"/>
      <point x="216" y="240"/>
      <point x="222" y="244" type="qcurve"/>
      <point x="236" y="258" type="line" smooth="yes"/>
      <point x="239" y="261"/>
      <point x="242" y="260" type="qcurve"/>
      <point x="246" y="260"/>
      <point x="249" y="257" type="qcurve"/>
      <point x="256" y="245"/>
      <point x="271" y="245" type="qcurve" smooth="yes"/>
      <point x="285" y="245"/>
      <point x="285" y="257" type="qcurve" smooth="yes"/>
      <point x="285" y="259"/>
      <point x="283" y="265" type="qcurve"/>
      <point x="280" y="269"/>
      <point x="269" y="269" type="qcurve" smooth="yes"/>
      <point x="259" y="269" type="line"/>
      <point x="254" y="267"/>
      <point x="252" y="271" type="qcurve"/>
      <point x="249" y="274"/>
      <point x="249" y="277" type="qcurve" smooth="yes"/>
      <point x="249" y="298" type="line" smooth="yes"/>
      <point x="249" y="301"/>
      <point x="252" y="304" type="qcurve" smooth="yes"/>
      <point x="254" y="306"/>
      <point x="259" y="306" type="qcurve" smooth="yes"/>
      <point x="269" y="306" type="line" smooth="yes"/>
      <point x="280" y="306"/>
      <point x="281" y="310" type="qcurve" smooth="yes"/>
      <point x="281" y="311"/>
      <point x="283" y="315"/>
      <point x="283" y="317"/>
      <point x="281" y="323" type="qcurve" smooth="yes"/>
      <point x="279" y="328"/>
      <point x="270" y="328" type="qcurve" smooth="yes"/>
      <point x="258" y="328"/>
      <point x="250" y="316" type="qcurve"/>
      <point x="247" y="313"/>
      <point x="243" y="313" type="qcurve" smooth="yes"/>
      <point x="241" y="313"/>
      <point x="237" y="315" type="qcurve"/>
      <point x="223" y="328" type="line" smooth="yes"/>
      <point x="219" y="332"/>
      <point x="222" y="339" type="qcurve"/>
      <point x="240" y="364"/>
      <point x="271" y="364" type="qcurve" smooth="yes"/>
      <point x="294" y="364"/>
      <point x="322" y="340"/>
      <point x="322" y="319" type="qcurve" smooth="yes"/>
      <point x="322" y="312"/>
      <point x="318" y="302" type="qcurve"/>
      <point x="312" y="292"/>
      <point x="308" y="289" type="qcurve"/>
      <point x="314" y="283"/>
      <point x="319" y="275" type="qcurve" smooth="yes"/>
      <point x="324" y="265"/>
      <point x="324" y="255" type="qcurve" smooth="yes"/>
      <point x="324" y="234"/>
      <point x="309" y="221" type="qcurve" smooth="yes"/>
      <point x="296" y="208"/>
      <point x="271" y="208" type="qcurve" smooth="yes"/>
    </contour>
    <contour>
      <point x="186" y="217" type="line" smooth="yes"/>
      <point x="185" y="210"/>
      <point x="178" y="210" type="qcurve" smooth="yes"/>
      <point x="154" y="210" type="line" smooth="yes"/>
      <point x="147" y="210"/>
      <point x="146" y="217" type="qcurve" smooth="yes"/>
      <point x="135" y="272" type="line"/>
      <point x="123" y="217" type="line" smooth="yes"/>
      <point x="122" y="210"/>
      <point x="115" y="210" type="qcurve" smooth="yes"/>
      <point x="92" y="210" type="line" smooth="yes"/>
      <point x="84" y="210"/>
      <point x="83" y="217" type="qcurve" smooth="yes"/>
      <point x="53" y="352" type="line"/>
      <point x="52" y="354"/>
      <point x="54" y="359" type="qcurve"/>
      <point x="57" y="362"/>
      <point x="61" y="362" type="qcurve" smooth="yes"/>
      <point x="85" y="362" type="line" smooth="yes"/>
      <point x="93" y="362"/>
      <point x="93" y="356" type="qcurve"/>
      <point x="105" y="296" type="line"/>
      <point x="117" y="356" type="line" smooth="yes"/>
      <point x="118" y="362"/>
      <point x="126" y="362" type="qcurve" smooth="yes"/>
      <point x="144" y="362" type="line" smooth="yes"/>
      <point x="150" y="362"/>
      <point x="152" y="356" type="qcurve"/>
      <point x="164" y="296" type="line"/>
      <point x="176" y="356" type="line"/>
      <point x="178" y="362"/>
      <point x="184" y="362" type="qcurve" smooth="yes"/>
      <point x="208" y="362" type="line" smooth="yes"/>
      <point x="212" y="362"/>
      <point x="214" y="359" type="qcurve" smooth="yes"/>
      <point x="217" y="356"/>
      <point x="216" y="352" type="qcurve" smooth="yes"/>
    </contour>
    <contour>
      <point x="29" y="491" type="line" smooth="yes"/>
      <point x="21" y="491"/>
      <point x="17" y="486" type="qcurve" smooth="yes"/>
      <point x="12" y="481"/>
      <point x="12" y="474" type="qcurve" smooth="yes"/>
      <point x="12" y="124" type="line" smooth="yes"/>
      <point x="12" y="120"/>
      <point x="15" y="115" type="qcurve" smooth="yes"/>
      <point x="17" y="112"/>
      <point x="23" y="108" type="qcurve"/>
      <point x="251" y="22" type="line"/>
      <point x="252" y="21"/>
      <point x="262" y="21"/>
      <point x="263" y="22" type="qcurve"/>
      <point x="489" y="108" type="line" smooth="yes"/>
      <point x="494" y="110"/>
      <point x="497" y="115" type="qcurve" smooth="yes"/>
      <point x="500" y="120"/>
      <point x="500" y="124" type="qcurve" smooth="yes"/>
      <point x="500" y="474" type="line" smooth="yes"/>
      <point x="500" y="482"/>
      <point x="495" y="486" type="qcurve"/>
      <point x="491" y="491"/>
      <point x="483" y="491" type="qcurve" smooth="yes"/>
    </contour>
  </outline>
</glyph>
<glyph name="walking" format="2">
  <advance width="512"/>
  <unicode hex="E213"/>
  <note>
walking
</note>
  <outline>
    <contour>
      <point x="227" y="422"/>
      <point x="216" y="433" type="qcurve" smooth="yes"/>
      <point x="204" y="445"/>
      <point x="204" y="461" type="qcurve" smooth="yes"/>
      <point x="204" y="476"/>
      <point x="215" y="489" type="qcurve" smooth="yes"/>
      <point x="226" y="501"/>
      <point x="242" y="501" type="qcurve" smooth="yes"/>
      <point x="258" y="502"/>
      <point x="270" y="490" type="qcurve" smooth="yes"/>
      <point x="280" y="480"/>
      <point x="282" y="463" type="qcurve" smooth="yes"/>
      <point x="282" y="448"/>
      <point x="260" y="422"/>
      <point x="244" y="422" type="qcurve" smooth="yes"/>
    </contour>
    <contour>
      <point x="384" y="285"/>
      <point x="384" y="276" type="qcurve" smooth="yes"/>
      <point x="384" y="268"/>
      <point x="379" y="263" type="qcurve" smooth="yes"/>
      <point x="374" y="257"/>
      <point x="366" y="257" type="qcurve"/>
      <point x="358" y="259" type="line"/>
      <point x="297" y="293" type="line"/>
      <point x="292" y="298"/>
      <point x="292" y="299" type="qcurve"/>
      <point x="274" y="327" type="line"/>
      <point x="269" y="280" type="line"/>
      <point x="266" y="257" type="line"/>
      <point x="264" y="231" type="line"/>
      <point x="277" y="211" type="line"/>
      <point x="282" y="204" type="line"/>
      <point x="287" y="197" type="line"/>
      <point x="298" y="181" type="line"/>
      <point x="300" y="177" type="line"/>
      <point x="306" y="168" type="line"/>
      <point x="306" y="168"/>
      <point x="308" y="164" type="qcurve"/>
      <point x="308" y="161"/>
      <point x="309" y="159" type="qcurve"/>
      <point x="309" y="158"/>
      <point x="310" y="154" type="qcurve" smooth="yes"/>
      <point x="312" y="149" type="line"/>
      <point x="338" y="52" type="line"/>
      <point x="341" y="36"/>
      <point x="329" y="26" type="qcurve"/>
      <point x="328" y="26"/>
      <point x="327" y="25" type="qcurve" smooth="yes"/>
      <point x="326" y="24" type="line" smooth="yes"/>
      <point x="320" y="19"/>
      <point x="310" y="19" type="qcurve"/>
      <point x="298" y="21"/>
      <point x="292" y="30" type="qcurve"/>
      <point x="290" y="32"/>
      <point x="286" y="40" type="qcurve"/>
      <point x="261" y="136" type="line"/>
      <point x="235" y="178" type="line"/>
      <point x="233" y="180" type="line"/>
      <point x="228" y="136" type="line" smooth="yes"/>
      <point x="228" y="133"/>
      <point x="227" y="132" type="qcurve"/>
      <point x="225" y="128"/>
      <point x="225" y="127" type="qcurve"/>
      <point x="224" y="125"/>
      <point x="224" y="123" type="qcurve"/>
      <point x="180" y="26" type="line" smooth="yes"/>
      <point x="172" y="11"/>
      <point x="157" y="11" type="qcurve" smooth="yes"/>
      <point x="145" y="10"/>
      <point x="138" y="18" type="qcurve" smooth="yes"/>
      <point x="130" y="26"/>
      <point x="130" y="37" type="qcurve" smooth="yes"/>
      <point x="130" y="40"/>
      <point x="132" y="48" type="qcurve"/>
      <point x="173" y="139" type="line"/>
      <point x="177" y="178" type="line"/>
      <point x="182" y="221" type="line"/>
      <point x="186" y="254" type="line"/>
      <point x="196" y="331" type="line"/>
      <point x="171" y="306" type="line"/>
      <point x="168" y="283" type="line"/>
      <point x="165" y="249" type="line"/>
      <point x="163" y="237" type="line"/>
      <point x="163" y="231"/>
      <point x="158" y="226" type="qcurve" smooth="yes"/>
      <point x="152" y="220"/>
      <point x="146" y="220" type="qcurve" smooth="yes"/>
      <point x="145" y="220"/>
      <point x="141" y="221"/>
      <point x="140" y="221" type="qcurve"/>
      <point x="134" y="224"/>
      <point x="133" y="226" type="qcurve"/>
      <point x="128" y="231"/>
      <point x="128" y="238" type="qcurve" smooth="yes"/>
      <point x="128" y="240" type="line"/>
      <point x="128" y="241" type="line"/>
      <point x="137" y="320" type="line"/>
      <point x="139" y="326"/>
      <point x="141" y="330" type="qcurve"/>
      <point x="201" y="390" type="line"/>
      <point x="212" y="402" type="line"/>
      <point x="226" y="413"/>
      <point x="238" y="413" type="qcurve" smooth="yes"/>
      <point x="259" y="413"/>
      <point x="272" y="396" type="qcurve" smooth="yes"/>
      <point x="286" y="374" type="line"/>
      <point x="306" y="341" type="line"/>
      <point x="319" y="321" type="line"/>
      <point x="376" y="290" type="line" smooth="yes"/>
    </contour>
  </outline>
</glyph>
<glyph name="virus" format="2">
  <advance width="512"/>
  <unicode hex="E214"/>
  <note>
virus
</note>
  <outline>
    <contour>
      <point x="506" y="256"/>
      <point x="493" y="249" type="qcurve" smooth="yes"/>
      <point x="473" y="238" type="line"/>
      <point x="453" y="226" type="line" smooth="yes"/>
      <point x="439" y="218"/>
      <point x="436" y="205" type="qcurve" smooth="yes"/>
      <point x="429" y="183"/>
      <point x="420" y="167" type="qcurve"/>
      <point x="420" y="166" type="line"/>
      <point x="413" y="154"/>
      <point x="417" y="140" type="qcurve" smooth="yes"/>
      <point x="423" y="117" type="line"/>
      <point x="429" y="94" type="line" smooth="yes"/>
      <point x="432" y="81"/>
      <point x="419" y="84" type="qcurve" smooth="yes"/>
      <point x="396" y="90" type="line"/>
      <point x="373" y="96" type="line" smooth="yes"/>
      <point x="359" y="100"/>
      <point x="346" y="93" type="qcurve" smooth="yes"/>
      <point x="329" y="83"/>
      <point x="309" y="77" type="qcurve" smooth="yes"/>
      <point x="297" y="74"/>
      <point x="288" y="61" type="qcurve" smooth="yes"/>
      <point x="276" y="40" type="line"/>
      <point x="264" y="19" type="line" smooth="yes"/>
      <point x="256" y="6"/>
      <point x="249" y="19" type="qcurve" smooth="yes"/>
      <point x="237" y="40" type="line"/>
      <point x="226" y="61" type="line" smooth="yes"/>
      <point x="218" y="73"/>
      <point x="205" y="77" type="qcurve" smooth="yes"/>
      <point x="187" y="83"/>
      <point x="168" y="92" type="qcurve"/>
      <point x="168" y="93" type="line"/>
      <point x="154" y="99"/>
      <point x="141" y="96" type="qcurve" smooth="yes"/>
      <point x="117" y="89" type="line"/>
      <point x="94" y="83" type="line" smooth="yes"/>
      <point x="88" y="82"/>
      <point x="82" y="88"/>
      <point x="84" y="93" type="qcurve"/>
      <point x="90" y="117" type="line"/>
      <point x="96" y="140" type="line" smooth="yes"/>
      <point x="100" y="155"/>
      <point x="93" y="167" type="qcurve"/>
      <point x="78" y="203" type="line"/>
      <point x="75" y="216"/>
      <point x="61" y="224" type="qcurve" smooth="yes"/>
      <point x="40" y="236" type="line"/>
      <point x="19" y="248" type="line" smooth="yes"/>
      <point x="6" y="256"/>
      <point x="19" y="263" type="qcurve" smooth="yes"/>
      <point x="40" y="275" type="line"/>
      <point x="61" y="287" type="line" smooth="yes"/>
      <point x="73" y="293"/>
      <point x="77" y="307" type="qcurve" smooth="yes"/>
      <point x="83" y="325"/>
      <point x="92" y="344" type="qcurve"/>
      <point x="92" y="345" type="line"/>
      <point x="100" y="358"/>
      <point x="96" y="371" type="qcurve" smooth="yes"/>
      <point x="89" y="395" type="line"/>
      <point x="83" y="418" type="line" smooth="yes"/>
      <point x="82" y="424"/>
      <point x="88" y="430"/>
      <point x="93" y="428" type="qcurve" smooth="yes"/>
      <point x="116" y="422" type="line"/>
      <point x="139" y="416" type="line" smooth="yes"/>
      <point x="154" y="412"/>
      <point x="166" y="419" type="qcurve" smooth="yes"/>
      <point x="183" y="429"/>
      <point x="204" y="435" type="qcurve" smooth="yes"/>
      <point x="218" y="439"/>
      <point x="224" y="452" type="qcurve"/>
      <point x="236" y="472" type="line"/>
      <point x="248" y="493" type="line" smooth="yes"/>
      <point x="256" y="506"/>
      <point x="263" y="493" type="qcurve" smooth="yes"/>
      <point x="274" y="473" type="line"/>
      <point x="286" y="452" type="line" smooth="yes"/>
      <point x="293" y="439"/>
      <point x="307" y="436" type="qcurve" smooth="yes"/>
      <point x="327" y="430"/>
      <point x="346" y="420" type="qcurve" smooth="yes"/>
      <point x="358" y="413"/>
      <point x="373" y="417" type="qcurve" smooth="yes"/>
      <point x="395" y="423" type="line"/>
      <point x="418" y="429" type="line" smooth="yes"/>
      <point x="424" y="430"/>
      <point x="430" y="424"/>
      <point x="428" y="419" type="qcurve" smooth="yes"/>
      <point x="422" y="396" type="line"/>
      <point x="416" y="374" type="line" smooth="yes"/>
      <point x="413" y="361"/>
      <point x="419" y="347" type="qcurve" smooth="yes"/>
      <point x="430" y="327"/>
      <point x="436" y="308" type="qcurve" smooth="yes"/>
      <point x="439" y="296"/>
      <point x="452" y="287" type="qcurve" smooth="yes"/>
      <point x="473" y="275" type="line"/>
      <point x="493" y="264" type="line" smooth="yes"/>
    </contour>
  </outline>
</glyph>
<glyph name="telegram-circle" format="2">
  <advance width="512"/>
  <unicode hex="E215"/>
  <note>
telegram-circle
</note>
  <outline>
    <contour>
      <point x="499" y="353"/>
      <point x="499" y="159"/>
      <point x="357" y="21"/>
      <point x="155" y="21"/>
      <point x="13" y="159"/>
      <point x="13" y="353"/>
      <point x="155" y="491"/>
      <point x="357" y="491"/>
    </contour>
    <contour>
      <point x="374" y="358" type="line"/>
      <point x="374" y="372"/>
      <point x="354" y="363" type="qcurve"/>
      <point x="111" y="271" type="line"/>
      <point x="108" y="270" type="line" smooth="yes"/>
      <point x="105" y="269"/>
      <point x="100" y="263"/>
      <point x="100" y="260" type="qcurve" smooth="yes"/>
      <point x="101" y="253"/>
      <point x="110" y="250" type="qcurve" smooth="yes"/>
      <point x="170" y="230" type="line"/>
      <point x="170" y="229" type="line"/>
      <point x="173" y="229"/>
      <point x="192" y="159" type="qcurve" smooth="yes"/>
      <point x="196" y="147"/>
      <point x="200" y="147" type="qcurve" smooth="yes"/>
      <point x="201" y="147" type="line"/>
      <point x="202" y="148" type="line"/>
      <point x="207" y="149" type="line"/>
      <point x="246" y="184" type="line"/>
      <point x="308" y="138" type="line" smooth="yes"/>
      <point x="313" y="135"/>
      <point x="321" y="137"/>
      <point x="326" y="139"/>
      <point x="330" y="144"/>
      <point x="331" y="145"/>
      <point x="331" y="146" type="qcurve" smooth="yes"/>
    </contour>
    <contour>
      <point x="324" y="315" type="line"/>
      <point x="319" y="311"/>
      <point x="208" y="214" type="qcurve"/>
      <point x="208" y="214" type="line"/>
      <point x="206" y="212" type="line"/>
      <point x="199" y="151" type="line"/>
      <point x="198" y="152"/>
      <point x="195" y="160" type="qcurve" smooth="yes"/>
      <point x="183" y="200"/>
      <point x="174" y="227" type="qcurve" smooth="yes"/>
      <point x="173" y="230" type="line"/>
      <point x="319" y="320" type="line"/>
      <point x="323" y="322" type="line" smooth="yes"/>
      <point x="327" y="324"/>
      <point x="327" y="320" type="qcurve"/>
    </contour>
  </outline>
</glyph>
<glyph name="slash" format="2">
  <advance width="512"/>
  <unicode hex="E216"/>
  <note>
slash
</note>
  <outline>
    <contour>
      <point x="412" y="471"/>
      <point x="412" y="465" type="qcurve" smooth="yes"/>
      <point x="412" y="462" type="line"/>
      <point x="370" y="388"/>
      <point x="297" y="256" type="qcurve" smooth="yes"/>
      <point x="272" y="212"/>
      <point x="195" y="74"/>
      <point x="182" y="50" type="qcurve" smooth="yes"/>
      <point x="165" y="18" type="line"/>
      <point x="160" y="12"/>
      <point x="155" y="12" type="qcurve" smooth="yes"/>
      <point x="149" y="12"/>
      <point x="106" y="37" type="qcurve"/>
      <point x="100" y="42"/>
      <point x="100" y="48" type="qcurve" smooth="yes"/>
      <point x="100" y="53"/>
      <point x="116" y="79" type="qcurve" smooth="yes"/>
      <point x="328" y="459" type="line"/>
      <point x="348" y="494" type="line" smooth="yes"/>
      <point x="351" y="500"/>
      <point x="358" y="500" type="qcurve" smooth="yes"/>
      <point x="359" y="500"/>
      <point x="363" y="498"/>
      <point x="364" y="498" type="qcurve"/>
      <point x="376" y="492" type="line" smooth="yes"/>
      <point x="384" y="488"/>
      <point x="388" y="485" type="qcurve" smooth="yes"/>
      <point x="391" y="483"/>
      <point x="399" y="479" type="qcurve"/>
      <point x="404" y="475"/>
      <point x="406" y="475" type="qcurve"/>
    </contour>
  </outline>
</glyph>
<glyph name="telegram" format="2">
  <advance width="512"/>
  <unicode hex="E217"/>
  <note>
telegram
</note>
  <outline>
    <contour>
      <point x="473" y="466" type="line" smooth="yes"/>
      <point x="482" y="469"/>
      <point x="500" y="464"/>
      <point x="500" y="452" type="qcurve"/>
      <point x="423" y="63" type="line"/>
      <point x="419" y="56" type="line" smooth="yes"/>
      <point x="415" y="50"/>
      <point x="397" y="44"/>
      <point x="382" y="49" type="qcurve"/>
      <point x="273" y="133" type="line"/>
      <point x="202" y="69" type="line"/>
      <point x="193" y="66" type="line"/>
      <point x="193" y="65" type="line"/>
      <point x="190" y="65" type="line" smooth="yes"/>
      <point x="184" y="65"/>
      <point x="177" y="87" type="qcurve" smooth="yes"/>
      <point x="174" y="96"/>
      <point x="154" y="161"/>
      <point x="146" y="188" type="qcurve" smooth="yes"/>
      <point x="137" y="216" type="line"/>
      <point x="137" y="218" type="line"/>
      <point x="31" y="253" type="line"/>
      <point x="26" y="255" type="line" smooth="yes"/>
      <point x="22" y="257"/>
      <point x="13" y="266"/>
      <point x="12" y="272" type="qcurve" smooth="yes"/>
      <point x="12" y="278"/>
      <point x="22" y="288"/>
      <point x="29" y="291"/>
      <point x="31" y="292" type="qcurve" smooth="yes"/>
      <point x="464" y="462" type="line"/>
    </contour>
    <contour>
      <point x="418" y="381"/>
      <point x="416" y="383" type="qcurve"/>
      <point x="416" y="392"/>
      <point x="401" y="383" type="qcurve" smooth="yes"/>
      <point x="142" y="218" type="line"/>
      <point x="143" y="212" type="line"/>
      <point x="173" y="117"/>
      <point x="181" y="89" type="qcurve" smooth="yes"/>
      <point x="185" y="76"/>
      <point x="189" y="72" type="qcurve"/>
      <point x="201" y="184" type="line"/>
      <point x="204" y="188" type="line"/>
      <point x="205" y="188" type="line"/>
      <point x="205" y="189" type="line"/>
      <point x="410" y="374" type="line" smooth="yes"/>
    </contour>
  </outline>
</glyph>
<glyph name="shirt" format="2">
  <advance width="512"/>
  <unicode hex="E218"/>
  <note>
shirt
</note>
  <outline>
    <contour>
      <point x="501" y="404"/>
      <point x="499" y="391" type="qcurve"/>
      <point x="474" y="296" type="line" smooth="yes"/>
      <point x="472" y="286"/>
      <point x="461" y="286" type="qcurve" smooth="yes"/>
      <point x="397" y="286" type="line"/>
      <point x="397" y="73" type="line" smooth="yes"/>
      <point x="397" y="60"/>
      <point x="384" y="60" type="qcurve" smooth="yes"/>
      <point x="128" y="60" type="line" smooth="yes"/>
      <point x="115" y="60"/>
      <point x="115" y="73" type="qcurve" smooth="yes"/>
      <point x="115" y="286" type="line"/>
      <point x="51" y="286" type="line" smooth="yes"/>
      <point x="40" y="286"/>
      <point x="37" y="296" type="qcurve" smooth="yes"/>
      <point x="13" y="391" type="line"/>
      <point x="11" y="405"/>
      <point x="23" y="407" type="qcurve"/>
      <point x="195" y="452" type="line"/>
      <point x="200" y="452" type="line" smooth="yes"/>
      <point x="211" y="452"/>
      <point x="213" y="441" type="qcurve" smooth="yes"/>
      <point x="214" y="428"/>
      <point x="228" y="419" type="qcurve" smooth="yes"/>
      <point x="240" y="410"/>
      <point x="272" y="410"/>
      <point x="284" y="419" type="qcurve" smooth="yes"/>
      <point x="298" y="428"/>
      <point x="299" y="441" type="qcurve" smooth="yes"/>
      <point x="301" y="452"/>
      <point x="312" y="452" type="qcurve" smooth="yes"/>
      <point x="316" y="452" type="line"/>
      <point x="489" y="407" type="line" smooth="yes"/>
    </contour>
  </outline>
</glyph>
<glyph name="tacos" format="2">
  <advance width="512"/>
  <unicode hex="E219"/>
  <note>
tacos
</note>
  <outline>
    <contour>
      <point x="513" y="153"/>
      <point x="495" y="129" type="qcurve" smooth="yes"/>
      <point x="485" y="117"/>
      <point x="471" y="117" type="qcurve" smooth="yes"/>
      <point x="435" y="117"/>
      <point x="426" y="128" type="qcurve"/>
      <point x="427" y="129" type="line" smooth="yes"/>
      <point x="447" y="150"/>
      <point x="453" y="171"/>
      <point x="442" y="196" type="qcurve" smooth="yes"/>
      <point x="436" y="207"/>
      <point x="424" y="217" type="qcurve"/>
      <point x="442" y="242"/>
      <point x="430" y="264" type="qcurve" smooth="yes"/>
      <point x="421" y="284"/>
      <point x="397" y="284" type="qcurve" smooth="yes"/>
      <point x="391" y="284" type="line"/>
      <point x="388" y="295"/>
      <point x="380" y="303" type="qcurve" smooth="yes"/>
      <point x="370" y="312"/>
      <point x="354" y="318" type="qcurve"/>
      <point x="354" y="330"/>
      <point x="346" y="342" type="qcurve"/>
      <point x="401" y="327"/>
      <point x="485" y="251"/>
      <point x="497" y="208" type="qcurve" smooth="yes"/>
    </contour>
    <contour>
      <point x="434" y="172"/>
      <point x="432" y="160"/>
      <point x="418" y="146" type="qcurve" smooth="yes"/>
      <point x="414" y="142" type="line"/>
      <point x="410" y="143" type="line"/>
      <point x="403" y="144" type="line"/>
      <point x="399" y="150"/>
      <point x="398" y="153" type="qcurve" smooth="yes"/>
      <point x="395" y="159" type="line" smooth="yes"/>
      <point x="313" y="330"/>
      <point x="197" y="330" type="qcurve" smooth="yes"/>
      <point x="190" y="330" type="line"/>
      <point x="185" y="330" type="line" smooth="yes"/>
      <point x="73" y="326"/>
      <point x="25" y="234" type="qcurve"/>
      <point x="21" y="237"/>
      <point x="13" y="246"/>
      <point x="5" y="264"/>
      <point x="18" y="283"/>
      <point x="37" y="291" type="qcurve"/>
      <point x="33" y="302" type="line" smooth="yes"/>
      <point x="29" y="314"/>
      <point x="35" y="338"/>
      <point x="49" y="338" type="qcurve" smooth="yes"/>
      <point x="52" y="338"/>
      <point x="60" y="336" type="qcurve"/>
      <point x="64" y="344" type="line" smooth="yes"/>
      <point x="68" y="353"/>
      <point x="91" y="370"/>
      <point x="105" y="370" type="qcurve" smooth="yes"/>
      <point x="121" y="370"/>
      <point x="140" y="359" type="qcurve"/>
      <point x="148" y="368" type="line" smooth="yes"/>
      <point x="156" y="377"/>
      <point x="188" y="395"/>
      <point x="205" y="395" type="qcurve" smooth="yes"/>
      <point x="215" y="395"/>
      <point x="220" y="393" type="qcurve"/>
      <point x="247" y="387"/>
      <point x="259" y="365" type="qcurve" smooth="yes"/>
      <point x="263" y="357" type="line"/>
      <point x="265" y="350"/>
      <point x="265" y="343" type="qcurve" smooth="yes"/>
      <point x="265" y="342" type="line"/>
      <point x="267" y="342" type="line" smooth="yes"/>
      <point x="268" y="342"/>
      <point x="273" y="344"/>
      <point x="280" y="345"/>
      <point x="283" y="346" type="qcurve" smooth="yes"/>
      <point x="295" y="348"/>
      <point x="300" y="348" type="qcurve" smooth="yes"/>
      <point x="313" y="348"/>
      <point x="340" y="326"/>
      <point x="335" y="306" type="qcurve"/>
      <point x="334" y="304" type="line"/>
      <point x="334" y="302" type="line"/>
      <point x="338" y="302" type="line" smooth="yes"/>
      <point x="354" y="302"/>
      <point x="368" y="289" type="qcurve" smooth="yes"/>
      <point x="378" y="280"/>
      <point x="369" y="257" type="qcurve"/>
      <point x="368" y="257"/>
      <point x="368" y="256" type="qcurve"/>
      <point x="369" y="257" type="line"/>
      <point x="387" y="266"/>
      <point x="397" y="266" type="qcurve" smooth="yes"/>
      <point x="409" y="266"/>
      <point x="414" y="256" type="qcurve" smooth="yes"/>
      <point x="423" y="236"/>
      <point x="392" y="211" type="qcurve" smooth="yes"/>
      <point x="391" y="210" type="line"/>
      <point x="392" y="210" type="line" smooth="yes"/>
      <point x="415" y="210"/>
      <point x="425" y="188" type="qcurve" smooth="yes"/>
    </contour>
    <contour>
      <point x="387" y="136"/>
      <point x="393" y="128" type="qcurve" smooth="yes"/>
      <point x="401" y="120" type="line"/>
      <point x="12" y="120" type="line"/>
      <point x="16" y="170"/>
      <point x="35" y="213" type="qcurve"/>
      <point x="35" y="214"/>
      <point x="37" y="217"/>
      <point x="38" y="220"/>
      <point x="39" y="221" type="qcurve" smooth="yes"/>
      <point x="40" y="223"/>
      <point x="42" y="227" type="qcurve"/>
      <point x="43" y="228"/>
      <point x="43" y="229" type="qcurve"/>
      <point x="88" y="308"/>
      <point x="186" y="312" type="qcurve" smooth="yes"/>
      <point x="191" y="312" type="line"/>
      <point x="197" y="312" type="line" smooth="yes"/>
      <point x="258" y="312"/>
      <point x="350" y="214"/>
      <point x="379" y="150" type="qcurve"/>
      <point x="380" y="149"/>
      <point x="382" y="145" type="qcurve"/>
      <point x="382" y="143"/>
      <point x="385" y="140" type="qcurve"/>
    </contour>
    <contour>
      <point x="207" y="222"/>
      <point x="221" y="222"/>
      <point x="231" y="232"/>
      <point x="231" y="246"/>
      <point x="221" y="256"/>
      <point x="207" y="256"/>
      <point x="197" y="246"/>
      <point x="197" y="232"/>
    </contour>
    <contour>
      <point x="254" y="171" type="line" smooth="yes"/>
      <point x="254" y="177"/>
      <point x="251" y="180" type="qcurve"/>
      <point x="246" y="188"/>
      <point x="237" y="188" type="qcurve" smooth="yes"/>
      <point x="233" y="188"/>
      <point x="229" y="186" type="qcurve" smooth="yes"/>
      <point x="224" y="183"/>
      <point x="221" y="178" type="qcurve" smooth="yes"/>
      <point x="220" y="176"/>
      <point x="220" y="171" type="qcurve" smooth="yes"/>
      <point x="220" y="169" type="line" smooth="yes"/>
      <point x="220" y="162"/>
      <point x="230" y="153"/>
      <point x="237" y="153" type="qcurve" smooth="yes"/>
      <point x="246" y="153"/>
      <point x="251" y="162" type="qcurve"/>
      <point x="254" y="165"/>
      <point x="254" y="170" type="qcurve" smooth="yes"/>
    </contour>
    <contour>
      <point x="288" y="209"/>
      <point x="288" y="216" type="qcurve" smooth="yes"/>
      <point x="288" y="233"/>
      <point x="271" y="233" type="qcurve" smooth="yes"/>
      <point x="264" y="233"/>
      <point x="254" y="223"/>
      <point x="254" y="209"/>
      <point x="264" y="199"/>
      <point x="278" y="199"/>
    </contour>
  </outline>
</glyph>
<glyph name="sushi" format="2">
  <advance width="512"/>
  <unicode hex="E21A"/>
  <note>
sushi
</note>
  <outline>
    <contour>
      <point x="114" y="453" type="line"/>
      <point x="109" y="463"/>
      <point x="115" y="484"/>
      <point x="135" y="494"/>
      <point x="156" y="488"/>
      <point x="161" y="478" type="qcurve" smooth="yes"/>
      <point x="309" y="204" type="line"/>
      <point x="302" y="202"/>
      <point x="301" y="198" type="qcurve"/>
      <point x="185" y="336" type="line"/>
    </contour>
    <contour>
      <point x="467" y="114" type="line"/>
      <point x="467" y="102"/>
      <point x="466" y="95" type="qcurve" smooth="yes"/>
      <point x="466" y="85"/>
      <point x="463" y="76" type="qcurve"/>
      <point x="463" y="67"/>
      <point x="452" y="58" type="qcurve" smooth="yes"/>
      <point x="446" y="53"/>
      <point x="439" y="52" type="qcurve" smooth="yes"/>
      <point x="357" y="45" type="line"/>
      <point x="292" y="30" type="line"/>
      <point x="288" y="29" type="line" smooth="yes"/>
      <point x="285" y="28"/>
      <point x="273" y="25"/>
      <point x="260" y="22"/>
      <point x="244" y="20"/>
      <point x="238" y="20" type="qcurve" smooth="yes"/>
      <point x="233" y="20"/>
      <point x="227" y="22" type="qcurve" smooth="yes"/>
      <point x="222" y="24"/>
      <point x="214" y="32" type="qcurve" smooth="yes"/>
      <point x="211" y="35"/>
      <point x="211" y="37" type="qcurve"/>
      <point x="215" y="39"/>
      <point x="228" y="46" type="qcurve" smooth="yes"/>
      <point x="230" y="47"/>
      <point x="238" y="52"/>
      <point x="242" y="54"/>
      <point x="252" y="59"/>
      <point x="254" y="61" type="qcurve"/>
      <point x="270" y="71"/>
      <point x="277" y="75" type="qcurve" smooth="yes"/>
      <point x="295" y="87" type="line" smooth="yes"/>
      <point x="305" y="94"/>
      <point x="320" y="100" type="qcurve"/>
      <point x="334" y="84" type="line" smooth="yes"/>
      <point x="342" y="76"/>
      <point x="346" y="73" type="qcurve" smooth="yes"/>
      <point x="354" y="67"/>
      <point x="360" y="67" type="qcurve" smooth="yes"/>
      <point x="368" y="67"/>
      <point x="375" y="73" type="qcurve" smooth="yes"/>
      <point x="376" y="74" type="line" smooth="yes"/>
      <point x="394" y="90"/>
      <point x="371" y="115" type="qcurve"/>
      <point x="391" y="119"/>
      <point x="418" y="119" type="qcurve" smooth="yes"/>
      <point x="421" y="119" type="line" smooth="yes"/>
      <point x="444" y="119"/>
      <point x="461" y="115" type="qcurve"/>
      <point x="463" y="115" type="line"/>
      <point x="465" y="114" type="line"/>
      <point x="466" y="114" type="line"/>
    </contour>
    <contour>
      <point x="498" y="120" type="line"/>
      <point x="498" y="117"/>
      <point x="494" y="117" type="qcurve" smooth="yes"/>
      <point x="492" y="117"/>
      <point x="486" y="119" type="qcurve" smooth="yes"/>
      <point x="470" y="123"/>
      <point x="467" y="123" type="qcurve"/>
      <point x="465" y="124"/>
      <point x="463" y="124" type="qcurve"/>
      <point x="440" y="129"/>
      <point x="421" y="129" type="qcurve" smooth="yes"/>
      <point x="418" y="129" type="line" smooth="yes"/>
      <point x="383" y="127"/>
      <point x="364" y="123" type="qcurve"/>
      <point x="330" y="164" type="line"/>
      <point x="317" y="179" type="line"/>
      <point x="323" y="176" type="line" smooth="yes"/>
      <point x="341" y="169"/>
      <point x="357" y="151" type="qcurve" smooth="yes"/>
      <point x="361" y="147"/>
      <point x="362" y="147" type="qcurve"/>
      <point x="360" y="152" type="line"/>
      <point x="341" y="178"/>
      <point x="317" y="188" type="qcurve"/>
      <point x="316" y="188"/>
      <point x="315" y="189" type="qcurve"/>
      <point x="303" y="193"/>
      <point x="313" y="196" type="qcurve"/>
      <point x="314" y="196" type="line"/>
      <point x="326" y="199" type="line"/>
      <point x="332" y="200" type="line"/>
      <point x="334" y="201"/>
      <point x="335" y="201" type="qcurve" smooth="yes"/>
      <point x="342" y="201"/>
      <point x="352" y="196" type="qcurve" smooth="yes"/>
      <point x="380" y="184"/>
      <point x="399" y="157" type="qcurve" smooth="yes"/>
      <point x="401" y="154"/>
      <point x="403" y="152" type="qcurve"/>
      <point x="405" y="152"/>
      <point x="402" y="158" type="qcurve" smooth="yes"/>
      <point x="391" y="183"/>
      <point x="368" y="197" type="qcurve" smooth="yes"/>
      <point x="359" y="203"/>
      <point x="369" y="203" type="qcurve" smooth="yes"/>
      <point x="370" y="203" type="line"/>
      <point x="379" y="203" type="line" smooth="yes"/>
      <point x="394" y="201"/>
      <point x="404" y="193" type="qcurve" smooth="yes"/>
      <point x="423" y="178"/>
      <point x="436" y="155" type="qcurve" smooth="yes"/>
      <point x="439" y="151"/>
      <point x="440" y="151" type="qcurve" smooth="yes"/>
      <point x="441" y="151"/>
      <point x="439" y="156" type="qcurve" smooth="yes"/>
      <point x="428" y="177"/>
      <point x="422" y="186" type="qcurve" smooth="yes"/>
      <point x="417" y="193"/>
      <point x="421" y="193" type="qcurve" smooth="yes"/>
      <point x="422" y="193"/>
      <point x="426" y="191" type="qcurve" smooth="yes"/>
      <point x="428" y="190"/>
      <point x="437" y="186" type="qcurve" smooth="yes"/>
      <point x="448" y="181"/>
      <point x="457" y="168" type="qcurve" smooth="yes"/>
      <point x="459" y="165"/>
      <point x="468" y="147" type="qcurve" smooth="yes"/>
      <point x="470" y="142"/>
      <point x="471" y="142" type="qcurve"/>
      <point x="470" y="148" type="line" smooth="yes"/>
      <point x="470" y="151"/>
      <point x="468" y="155" type="qcurve" smooth="yes"/>
      <point x="465" y="162"/>
      <point x="468" y="162" type="qcurve"/>
      <point x="472" y="158" type="line" smooth="yes"/>
      <point x="485" y="143"/>
      <point x="495" y="125" type="qcurve" smooth="yes"/>
    </contour>
    <contour>
      <point x="232" y="59"/>
      <point x="224" y="54" type="qcurve" smooth="yes"/>
      <point x="222" y="53"/>
      <point x="210" y="46"/>
      <point x="207" y="45" type="qcurve" smooth="yes"/>
      <point x="201" y="43"/>
      <point x="198" y="43" type="qcurve" smooth="yes"/>
      <point x="193" y="43" type="line" smooth="yes"/>
      <point x="188" y="43"/>
      <point x="163" y="48" type="qcurve"/>
      <point x="151" y="52"/>
      <point x="157" y="61" type="qcurve" smooth="yes"/>
      <point x="165" y="73"/>
      <point x="176" y="76" type="qcurve" smooth="yes"/>
      <point x="186" y="80"/>
      <point x="191" y="81" type="qcurve" smooth="yes"/>
      <point x="215" y="87"/>
      <point x="233" y="87" type="qcurve" smooth="yes"/>
      <point x="236" y="87"/>
      <point x="246" y="86"/>
      <point x="249" y="86" type="qcurve"/>
      <point x="251" y="85"/>
      <point x="254" y="85" type="qcurve" smooth="yes"/>
      <point x="255" y="85" type="line"/>
      <point x="250" y="88" type="line"/>
      <point x="237" y="93"/>
      <point x="216" y="93" type="qcurve" smooth="yes"/>
      <point x="204" y="93"/>
      <point x="190" y="90" type="qcurve"/>
      <point x="186" y="90"/>
      <point x="180" y="88" type="qcurve"/>
      <point x="179" y="88"/>
      <point x="178" y="87" type="qcurve"/>
      <point x="172" y="87"/>
      <point x="177" y="97" type="qcurve" smooth="yes"/>
      <point x="181" y="103"/>
      <point x="183" y="107" type="qcurve"/>
      <point x="193" y="119"/>
      <point x="205" y="122" type="qcurve" smooth="yes"/>
      <point x="226" y="125"/>
      <point x="230" y="125" type="qcurve" smooth="yes"/>
      <point x="256" y="125"/>
      <point x="287" y="111" type="qcurve"/>
      <point x="289" y="109" type="line"/>
      <point x="290" y="109" type="line"/>
      <point x="290" y="110" type="line"/>
      <point x="288" y="111" type="line"/>
      <point x="262" y="133"/>
      <point x="228" y="133" type="qcurve" smooth="yes"/>
      <point x="220" y="133"/>
      <point x="215" y="132" type="qcurve" smooth="yes"/>
      <point x="212" y="132" type="line" smooth="yes"/>
      <point x="202" y="132"/>
      <point x="211" y="139" type="qcurve" smooth="yes"/>
      <point x="218" y="146"/>
      <point x="223" y="150" type="qcurve" smooth="yes"/>
      <point x="232" y="159"/>
      <point x="247" y="159" type="qcurve" smooth="yes"/>
      <point x="253" y="159"/>
      <point x="267" y="157" type="qcurve"/>
      <point x="313" y="107" type="line"/>
      <point x="302" y="101"/>
      <point x="290" y="94" type="qcurve" smooth="yes"/>
      <point x="282" y="89"/>
      <point x="253" y="71"/>
      <point x="250" y="69" type="qcurve" smooth="yes"/>
    </contour>
    <contour>
      <point x="255" y="183" type="line"/>
      <point x="21" y="436" type="line" smooth="yes"/>
      <point x="14" y="444"/>
      <point x="15" y="466"/>
      <point x="23" y="473" type="qcurve" smooth="yes"/>
      <point x="30" y="480"/>
      <point x="52" y="480"/>
      <point x="60" y="471" type="qcurve" smooth="yes"/>
      <point x="217" y="284" type="line"/>
      <point x="292" y="195" type="line"/>
      <point x="297" y="190" type="line"/>
      <point x="301" y="184" type="line"/>
      <point x="352" y="124" type="line"/>
      <point x="354" y="121" type="line"/>
      <point x="358" y="117" type="line"/>
      <point x="360" y="114" type="line"/>
      <point x="361" y="113" type="line"/>
      <point x="363" y="110" type="line"/>
      <point x="380" y="93"/>
      <point x="373" y="84" type="qcurve" smooth="yes"/>
      <point x="371" y="82"/>
      <point x="370" y="80" type="qcurve"/>
      <point x="365" y="76"/>
      <point x="355" y="76"/>
      <point x="341" y="90" type="qcurve" smooth="yes"/>
      <point x="329" y="103" type="line"/>
      <point x="329" y="104" type="line"/>
      <point x="326" y="107" type="line"/>
      <point x="324" y="109" type="line"/>
      <point x="322" y="111" type="line"/>
      <point x="274" y="163" type="line"/>
      <point x="262" y="176" type="line"/>
      <point x="259" y="179" type="line"/>
    </contour>
  </outline>
</glyph>
<glyph name="triangle-ruler" format="2">
  <advance width="512"/>
  <unicode hex="E21B"/>
  <note>
triangle-ruler
</note>
  <outline>
    <contour>
      <point x="21" y="12"/>
      <point x="12" y="20"/>
      <point x="12" y="26" type="qcurve" smooth="yes"/>
      <point x="12" y="68" type="line"/>
      <point x="49" y="68" type="line" smooth="yes"/>
      <point x="56" y="68"/>
      <point x="66" y="78"/>
      <point x="66" y="92"/>
      <point x="56" y="101"/>
      <point x="49" y="101" type="qcurve" smooth="yes"/>
      <point x="12" y="101" type="line"/>
      <point x="12" y="155" type="line"/>
      <point x="49" y="155" type="line" smooth="yes"/>
      <point x="56" y="155"/>
      <point x="66" y="165"/>
      <point x="66" y="179"/>
      <point x="56" y="189"/>
      <point x="49" y="189" type="qcurve" smooth="yes"/>
      <point x="12" y="189" type="line"/>
      <point x="12" y="242" type="line"/>
      <point x="49" y="242" type="line" smooth="yes"/>
      <point x="56" y="242"/>
      <point x="66" y="252"/>
      <point x="66" y="266"/>
      <point x="56" y="276"/>
      <point x="49" y="276" type="qcurve" smooth="yes"/>
      <point x="12" y="276" type="line"/>
      <point x="12" y="329" type="line"/>
      <point x="49" y="329" type="line" smooth="yes"/>
      <point x="56" y="329"/>
      <point x="66" y="339"/>
      <point x="66" y="353"/>
      <point x="56" y="363"/>
      <point x="49" y="363" type="qcurve" smooth="yes"/>
      <point x="12" y="363" type="line"/>
      <point x="12" y="486" type="line" smooth="yes"/>
      <point x="12" y="495"/>
      <point x="29" y="503"/>
      <point x="36" y="496" type="qcurve" smooth="yes"/>
      <point x="496" y="36" type="line" smooth="yes"/>
      <point x="503" y="29"/>
      <point x="495" y="12"/>
      <point x="486" y="12" type="qcurve" smooth="yes"/>
      <point x="26" y="12" type="line" smooth="yes"/>
    </contour>
    <contour>
      <point x="113" y="113" type="line"/>
      <point x="276" y="113" type="line"/>
      <point x="113" y="276" type="line"/>
    </contour>
  </outline>
</glyph>
<glyph name="tree" format="2">
  <advance width="512"/>
  <unicode hex="E21C"/>
  <note>
tree
</note>
  <outline>
    <contour>
      <point x="233" y="168"/>
      <point x="249" y="168" type="qcurve" smooth="yes"/>
      <point x="270" y="168"/>
      <point x="296" y="175" type="qcurve"/>
      <point x="296" y="13" type="line"/>
      <point x="202" y="13" type="line"/>
      <point x="202" y="162" type="line"/>
      <point x="205" y="163"/>
      <point x="216" y="169"/>
      <point x="218" y="171" type="qcurve"/>
    </contour>
    <contour>
      <point x="77" y="283"/>
      <point x="145" y="192"/>
      <point x="199" y="176" type="qcurve"/>
      <point x="175" y="165"/>
      <point x="151" y="165" type="qcurve" smooth="yes"/>
      <point x="105" y="165"/>
      <point x="40" y="229"/>
      <point x="40" y="275" type="qcurve" smooth="yes"/>
      <point x="40" y="324"/>
      <point x="78" y="359" type="qcurve"/>
      <point x="77" y="353"/>
      <point x="77" y="341" type="qcurve" smooth="yes"/>
    </contour>
    <contour>
      <point x="426" y="403"/>
      <point x="472" y="344"/>
      <point x="472" y="306" type="qcurve" smooth="yes"/>
      <point x="472" y="260"/>
      <point x="407" y="195"/>
      <point x="361" y="195" type="qcurve" smooth="yes"/>
      <point x="342" y="195"/>
      <point x="325" y="201" type="qcurve"/>
      <point x="312" y="194"/>
      <point x="296" y="189" type="qcurve" smooth="yes"/>
      <point x="270" y="182"/>
      <point x="249" y="182" type="qcurve" smooth="yes"/>
      <point x="238" y="182"/>
      <point x="233" y="183" type="qcurve" smooth="yes"/>
      <point x="227" y="183"/>
      <point x="224" y="184" type="qcurve"/>
      <point x="221" y="184"/>
      <point x="215" y="186" type="qcurve"/>
      <point x="213" y="186"/>
      <point x="204" y="188"/>
      <point x="202" y="189" type="qcurve" smooth="yes"/>
      <point x="153" y="204"/>
      <point x="90" y="288"/>
      <point x="90" y="341" type="qcurve" smooth="yes"/>
      <point x="90" y="355"/>
      <point x="93" y="370" type="qcurve"/>
      <point x="94" y="372"/>
      <point x="94" y="378"/>
      <point x="95" y="379" type="qcurve"/>
      <point x="97" y="385"/>
      <point x="97" y="388" type="qcurve"/>
      <point x="113" y="437"/>
      <point x="197" y="499"/>
      <point x="249" y="499" type="qcurve" smooth="yes"/>
      <point x="295" y="499"/>
      <point x="370" y="452"/>
      <point x="390" y="413" type="qcurve"/>
    </contour>
  </outline>
</glyph>
<glyph name="sun-cloud" format="2">
  <advance width="512"/>
  <unicode hex="E21D"/>
  <note>
sun-cloud
</note>
  <outline>
    <contour>
      <point x="447" y="238"/>
      <point x="500" y="184"/>
      <point x="500" y="108"/>
      <point x="446" y="55"/>
      <point x="409" y="55" type="qcurve" smooth="yes"/>
      <point x="65" y="55" type="line" smooth="yes"/>
      <point x="12" y="55"/>
      <point x="12" y="95" type="qcurve" smooth="yes"/>
      <point x="12" y="117"/>
      <point x="43" y="149"/>
      <point x="65" y="149" type="qcurve" smooth="yes"/>
      <point x="73" y="149"/>
      <point x="81" y="146" type="qcurve"/>
      <point x="81" y="148" type="line" smooth="yes"/>
      <point x="81" y="163"/>
      <point x="86" y="173" type="qcurve"/>
      <point x="24" y="193" type="line" smooth="yes"/>
      <point x="20" y="194"/>
      <point x="18" y="200"/>
      <point x="20" y="204" type="qcurve"/>
      <point x="60" y="259" type="line"/>
      <point x="20" y="314" type="line"/>
      <point x="18" y="318"/>
      <point x="19" y="320" type="qcurve" smooth="yes"/>
      <point x="21" y="324"/>
      <point x="24" y="325" type="qcurve" smooth="yes"/>
      <point x="88" y="346" type="line"/>
      <point x="88" y="414" type="line" smooth="yes"/>
      <point x="88" y="417"/>
      <point x="91" y="420" type="qcurve" smooth="yes"/>
      <point x="94" y="422"/>
      <point x="98" y="420" type="qcurve"/>
      <point x="162" y="400" type="line"/>
      <point x="202" y="455" type="line"/>
      <point x="206" y="457"/>
      <point x="208" y="457" type="qcurve" smooth="yes"/>
      <point x="212" y="457"/>
      <point x="214" y="455" type="qcurve"/>
      <point x="254" y="400" type="line"/>
      <point x="318" y="420" type="line" smooth="yes"/>
      <point x="322" y="421"/>
      <point x="325" y="420" type="qcurve"/>
      <point x="328" y="417"/>
      <point x="328" y="414" type="qcurve" smooth="yes"/>
      <point x="328" y="346" type="line"/>
      <point x="393" y="325" type="line" smooth="yes"/>
      <point x="395" y="324"/>
      <point x="397" y="320" type="qcurve" smooth="yes"/>
      <point x="398" y="318"/>
      <point x="396" y="314" type="qcurve"/>
      <point x="364" y="269" type="line"/>
      <point x="373" y="253"/>
      <point x="376" y="232" type="qcurve"/>
      <point x="391" y="238"/>
      <point x="409" y="238" type="qcurve" smooth="yes"/>
    </contour>
    <contour>
      <point x="297" y="329"/>
      <point x="324" y="311" type="qcurve"/>
      <point x="316" y="331"/>
      <point x="298" y="349" type="qcurve" smooth="yes"/>
      <point x="282" y="366"/>
      <point x="258" y="376" type="qcurve" smooth="yes"/>
      <point x="233" y="387"/>
      <point x="183" y="387"/>
      <point x="159" y="376" type="qcurve" smooth="yes"/>
      <point x="134" y="367"/>
      <point x="118" y="349" type="qcurve"/>
      <point x="100" y="333"/>
      <point x="91" y="308" type="qcurve" smooth="yes"/>
      <point x="80" y="284"/>
      <point x="80" y="234"/>
      <point x="91" y="209" type="qcurve"/>
      <point x="93" y="202"/>
      <point x="100" y="192" type="qcurve"/>
      <point x="118" y="210"/>
      <point x="143" y="210" type="qcurve" smooth="yes"/>
      <point x="146" y="210"/>
      <point x="147" y="209" type="qcurve"/>
      <point x="147" y="214" type="line" smooth="yes"/>
      <point x="147" y="262"/>
      <point x="214" y="329"/>
      <point x="262" y="329" type="qcurve" smooth="yes"/>
    </contour>
  </outline>
</glyph>
<glyph name="ruby-o" format="2">
  <advance width="512"/>
  <unicode hex="E21E"/>
  <note>
ruby-o
</note>
  <outline>
    <contour>
      <point x="498" y="321" type="line"/>
      <point x="498" y="318" type="line"/>
      <point x="498" y="317" type="line"/>
      <point x="498" y="315" type="line"/>
      <point x="497" y="314"/>
      <point x="497" y="313" type="qcurve"/>
      <point x="496" y="312"/>
      <point x="496" y="311" type="qcurve"/>
      <point x="495" y="310"/>
      <point x="495" y="309" type="qcurve"/>
      <point x="271" y="58" type="line"/>
      <point x="269" y="56" type="line"/>
      <point x="268" y="56"/>
      <point x="268" y="55" type="qcurve"/>
      <point x="266" y="54" type="line"/>
      <point x="266" y="54"/>
      <point x="265" y="54" type="qcurve" smooth="yes"/>
      <point x="264" y="54" type="line"/>
      <point x="263" y="53"/>
      <point x="257" y="53"/>
      <point x="256" y="54" type="qcurve"/>
      <point x="255" y="54" type="line" smooth="yes"/>
      <point x="254" y="54"/>
      <point x="252" y="56" type="qcurve"/>
      <point x="251" y="56"/>
      <point x="249" y="58" type="qcurve" smooth="yes"/>
      <point x="18" y="309" type="line" smooth="yes"/>
      <point x="16" y="311"/>
      <point x="15" y="313" type="qcurve"/>
      <point x="15" y="314"/>
      <point x="14" y="315" type="qcurve"/>
      <point x="14" y="316" type="line"/>
      <point x="14" y="318" type="line"/>
      <point x="14" y="321" type="line"/>
      <point x="14" y="322" type="line"/>
      <point x="15" y="324"/>
      <point x="15" y="325" type="qcurve"/>
      <point x="16" y="326" type="line"/>
      <point x="16" y="328"/>
      <point x="17" y="328" type="qcurve"/>
      <point x="114" y="453" type="line" smooth="yes"/>
      <point x="118" y="459"/>
      <point x="126" y="459" type="qcurve" smooth="yes"/>
      <point x="388" y="459" type="line"/>
      <point x="391" y="459" type="line"/>
      <point x="392" y="458" type="line"/>
      <point x="394" y="458" type="line"/>
      <point x="394" y="457"/>
      <point x="396" y="457"/>
      <point x="396" y="456"/>
      <point x="397" y="456" type="qcurve"/>
      <point x="398" y="455" type="line"/>
      <point x="399" y="454" type="line"/>
      <point x="400" y="453" type="line"/>
      <point x="495" y="328" type="line" smooth="yes"/>
      <point x="496" y="327"/>
      <point x="496" y="326" type="qcurve"/>
      <point x="497" y="325" type="line"/>
      <point x="497" y="324"/>
      <point x="498" y="323" type="qcurve"/>
      <point x="498" y="322" type="line"/>
    </contour>
    <contour>
      <point x="289" y="430" type="line"/>
      <point x="351" y="350" type="line"/>
      <point x="369" y="430" type="line"/>
    </contour>
    <contour>
      <point x="198" y="334" type="line"/>
      <point x="326" y="334" type="line"/>
      <point x="259" y="420" type="line"/>
    </contour>
    <contour>
      <point x="147" y="430" type="line"/>
      <point x="173" y="349" type="line"/>
      <point x="230" y="430" type="line"/>
    </contour>
    <contour>
      <point x="59" y="334" type="line"/>
      <point x="147" y="334" type="line"/>
      <point x="121" y="414" type="line"/>
    </contour>
    <contour>
      <point x="220" y="133" type="line"/>
      <point x="157" y="304" type="line"/>
      <point x="62" y="304" type="line"/>
    </contour>
    <contour>
      <point x="338" y="304" type="line"/>
      <point x="188" y="304" type="line"/>
      <point x="261" y="109" type="line"/>
    </contour>
    <contour>
      <point x="451" y="304" type="line"/>
      <point x="369" y="304" type="line"/>
      <point x="304" y="140" type="line"/>
    </contour>
    <contour>
      <point x="454" y="334" type="line"/>
      <point x="395" y="410" type="line"/>
      <point x="378" y="334" type="line"/>
    </contour>
  </outline>
</glyph>
<glyph name="ruler" format="2">
  <advance width="512"/>
  <unicode hex="E21F"/>
  <note>
ruler
</note>
  <outline>
    <contour>
      <point x="503" y="380"/>
      <point x="497" y="372" type="qcurve"/>
      <point x="140" y="15" type="line"/>
      <point x="136" y="12"/>
      <point x="132" y="12" type="qcurve" smooth="yes"/>
      <point x="127" y="12"/>
      <point x="124" y="15" type="qcurve" smooth="yes"/>
      <point x="15" y="124" type="line"/>
      <point x="9" y="132"/>
      <point x="15" y="140" type="qcurve"/>
      <point x="37" y="161" type="line" smooth="yes"/>
      <point x="40" y="164"/>
      <point x="44" y="164" type="qcurve" smooth="yes"/>
      <point x="49" y="164"/>
      <point x="52" y="161" type="qcurve" smooth="yes"/>
      <point x="100" y="112" type="line"/>
      <point x="114" y="126" type="line"/>
      <point x="66" y="175" type="line"/>
      <point x="57" y="182"/>
      <point x="66" y="190" type="qcurve" smooth="yes"/>
      <point x="84" y="208" type="line" smooth="yes"/>
      <point x="87" y="211"/>
      <point x="92" y="211" type="qcurve" smooth="yes"/>
      <point x="96" y="211"/>
      <point x="99" y="208" type="qcurve" smooth="yes"/>
      <point x="128" y="179" type="line"/>
      <point x="143" y="193" type="line"/>
      <point x="113" y="222" type="line" smooth="yes"/>
      <point x="106" y="230"/>
      <point x="113" y="237" type="qcurve" smooth="yes"/>
      <point x="132" y="256" type="line" smooth="yes"/>
      <point x="140" y="264"/>
      <point x="147" y="256" type="qcurve" smooth="yes"/>
      <point x="196" y="207" type="line"/>
      <point x="210" y="221" type="line"/>
      <point x="161" y="270" type="line" smooth="yes"/>
      <point x="158" y="273"/>
      <point x="158" y="277" type="qcurve" smooth="yes"/>
      <point x="158" y="282"/>
      <point x="161" y="285" type="qcurve" smooth="yes"/>
      <point x="179" y="303" type="line" smooth="yes"/>
      <point x="187" y="311"/>
      <point x="195" y="303" type="qcurve" smooth="yes"/>
      <point x="224" y="274" type="line"/>
      <point x="238" y="288" type="line"/>
      <point x="209" y="317" type="line" smooth="yes"/>
      <point x="205" y="321"/>
      <point x="205" y="329"/>
      <point x="209" y="333" type="qcurve" smooth="yes"/>
      <point x="227" y="351" type="line" smooth="yes"/>
      <point x="234" y="358"/>
      <point x="242" y="351" type="qcurve" smooth="yes"/>
      <point x="291" y="302" type="line"/>
      <point x="305" y="316" type="line"/>
      <point x="256" y="365" type="line" smooth="yes"/>
      <point x="253" y="368"/>
      <point x="253" y="373" type="qcurve" smooth="yes"/>
      <point x="253" y="377"/>
      <point x="256" y="380" type="qcurve" smooth="yes"/>
      <point x="275" y="399" type="line" smooth="yes"/>
      <point x="282" y="406"/>
      <point x="290" y="399" type="qcurve" smooth="yes"/>
      <point x="319" y="370" type="line"/>
      <point x="333" y="383" type="line"/>
      <point x="304" y="413" type="line" smooth="yes"/>
      <point x="301" y="416"/>
      <point x="301" y="420" type="qcurve" smooth="yes"/>
      <point x="301" y="425"/>
      <point x="304" y="428" type="qcurve" smooth="yes"/>
      <point x="322" y="446" type="line" smooth="yes"/>
      <point x="330" y="455"/>
      <point x="337" y="446" type="qcurve"/>
      <point x="386" y="398" type="line"/>
      <point x="400" y="412" type="line"/>
      <point x="351" y="460" type="line" smooth="yes"/>
      <point x="348" y="463"/>
      <point x="348" y="468" type="qcurve" smooth="yes"/>
      <point x="348" y="472"/>
      <point x="351" y="475" type="qcurve" smooth="yes"/>
      <point x="372" y="497" type="line"/>
      <point x="380" y="503"/>
      <point x="388" y="497" type="qcurve"/>
      <point x="497" y="388" type="line"/>
    </contour>
  </outline>
</glyph>
<glyph name="umbrella" format="2">
  <advance width="512"/>
  <unicode hex="E220"/>
  <note>
umbrella
</note>
  <outline>
    <contour>
      <point x="500" y="247"/>
      <point x="499" y="247"/>
      <point x="493" y="259" type="qcurve" smooth="yes"/>
      <point x="471" y="306"/>
      <point x="419" y="306" type="qcurve" smooth="yes"/>
      <point x="394" y="306"/>
      <point x="353" y="278"/>
      <point x="344" y="255" type="qcurve" smooth="yes"/>
      <point x="339" y="243"/>
      <point x="336" y="243"/>
      <point x="332" y="255" type="qcurve" smooth="yes"/>
      <point x="316" y="293"/>
      <point x="276" y="303" type="qcurve"/>
      <point x="276" y="106" type="line" smooth="yes"/>
      <point x="276" y="71"/>
      <point x="227" y="23"/>
      <point x="192" y="23" type="qcurve" smooth="yes"/>
      <point x="180" y="23" type="line" smooth="yes"/>
      <point x="145" y="23"/>
      <point x="96" y="72"/>
      <point x="96" y="106" type="qcurve"/>
      <point x="136" y="106" type="line"/>
      <point x="136" y="88"/>
      <point x="162" y="63"/>
      <point x="180" y="63" type="qcurve" smooth="yes"/>
      <point x="192" y="63" type="line" smooth="yes"/>
      <point x="210" y="63"/>
      <point x="236" y="88"/>
      <point x="236" y="106" type="qcurve" smooth="yes"/>
      <point x="236" y="303" type="line"/>
      <point x="196" y="293"/>
      <point x="180" y="255" type="qcurve" smooth="yes"/>
      <point x="176" y="243"/>
      <point x="173" y="243"/>
      <point x="168" y="255" type="qcurve" smooth="yes"/>
      <point x="159" y="278"/>
      <point x="118" y="306"/>
      <point x="93" y="306" type="qcurve" smooth="yes"/>
      <point x="41" y="306"/>
      <point x="19" y="259" type="qcurve" smooth="yes"/>
      <point x="13" y="247"/>
      <point x="12" y="247"/>
      <point x="14" y="260" type="qcurve" smooth="yes"/>
      <point x="26" y="344"/>
      <point x="151" y="461"/>
      <point x="236" y="468" type="qcurve"/>
      <point x="236" y="477"/>
      <point x="248" y="490"/>
      <point x="264" y="490"/>
      <point x="276" y="477"/>
      <point x="276" y="468" type="qcurve"/>
      <point x="361" y="461"/>
      <point x="486" y="344"/>
      <point x="498" y="260" type="qcurve" smooth="yes"/>
    </contour>
  </outline>
</glyph>
<glyph name="medicine" format="2">
  <advance width="512"/>
  <unicode hex="E221"/>
  <note>
medicine
</note>
  <outline>
    <contour>
      <point x="383" y="373" type="qcurve" smooth="yes"/>
      <point x="383" y="140" type="line" smooth="yes"/>
      <point x="383" y="72"/>
      <point x="327" y="34" type="qcurve" smooth="yes"/>
      <point x="294" y="12"/>
      <point x="256" y="12" type="qcurve" smooth="yes"/>
      <point x="203" y="12"/>
      <point x="129" y="86"/>
      <point x="129" y="139" type="qcurve" smooth="yes"/>
      <point x="129" y="373" type="line" smooth="yes"/>
      <point x="129" y="440"/>
      <point x="185" y="478" type="qcurve" smooth="yes"/>
      <point x="218" y="500"/>
      <point x="256" y="500" type="qcurve" smooth="yes"/>
      <point x="309" y="500"/>
      <point x="383" y="426"/>
    </contour>
    <contour>
      <point x="262" y="431"/>
      <point x="255" y="451" type="qcurve" smooth="yes"/>
      <point x="249" y="471"/>
      <point x="229" y="464" type="qcurve" smooth="yes"/>
      <point x="226" y="463"/>
      <point x="217" y="459"/>
      <point x="198" y="445"/>
      <point x="183" y="426"/>
      <point x="171" y="391"/>
      <point x="171" y="371" type="qcurve" smooth="yes"/>
      <point x="171" y="309" type="line" smooth="yes"/>
      <point x="171" y="300"/>
      <point x="184" y="288"/>
      <point x="192" y="288" type="qcurve" smooth="yes"/>
      <point x="200" y="288"/>
      <point x="204" y="291" type="qcurve" smooth="yes"/>
      <point x="214" y="298"/>
      <point x="214" y="309" type="qcurve" smooth="yes"/>
      <point x="214" y="371" type="line" smooth="yes"/>
      <point x="214" y="389"/>
      <point x="228" y="416"/>
      <point x="238" y="423"/>
      <point x="242" y="424" type="qcurve" smooth="yes"/>
    </contour>
    <contour>
      <point x="341" y="233" type="line" smooth="yes"/>
      <point x="341" y="244"/>
      <point x="333" y="250" type="qcurve"/>
      <point x="327" y="258"/>
      <point x="316" y="258" type="qcurve" smooth="yes"/>
      <point x="196" y="257" type="line" smooth="yes"/>
      <point x="186" y="257"/>
      <point x="171" y="242"/>
      <point x="171" y="232" type="qcurve" smooth="yes"/>
      <point x="171" y="139" type="line" smooth="yes"/>
      <point x="171" y="103"/>
      <point x="196" y="80" type="qcurve" smooth="yes"/>
      <point x="220" y="55"/>
      <point x="256" y="55" type="qcurve" smooth="yes"/>
      <point x="281" y="55"/>
      <point x="304" y="69" type="qcurve" smooth="yes"/>
      <point x="341" y="95"/>
      <point x="341" y="140" type="qcurve" smooth="yes"/>
    </contour>
  </outline>
</glyph>
<glyph name="microscope" format="2">
  <advance width="512"/>
  <unicode hex="E222"/>
  <note>
microscope
</note>
  <outline>
    <contour>
      <point x="426" y="169"/>
      <point x="426" y="157" type="qcurve" smooth="yes"/>
      <point x="426" y="150" type="line" smooth="yes"/>
      <point x="426" y="138"/>
      <point x="414" y="138" type="qcurve" smooth="yes"/>
      <point x="410" y="138" type="line" smooth="yes"/>
      <point x="402" y="138"/>
      <point x="394" y="133" type="qcurve"/>
      <point x="370" y="98"/>
      <point x="329" y="77" type="qcurve"/>
      <point x="328" y="76"/>
      <point x="320" y="73"/>
      <point x="319" y="72" type="qcurve"/>
      <point x="379" y="61"/>
      <point x="379" y="38" type="qcurve" smooth="yes"/>
      <point x="379" y="24" type="line" smooth="yes"/>
      <point x="379" y="12"/>
      <point x="367" y="12" type="qcurve" smooth="yes"/>
      <point x="268" y="12" type="line"/>
      <point x="256" y="12" type="line"/>
      <point x="244" y="12" type="line"/>
      <point x="144" y="12" type="line" smooth="yes"/>
      <point x="132" y="12"/>
      <point x="132" y="24" type="qcurve" smooth="yes"/>
      <point x="132" y="38" type="line" smooth="yes"/>
      <point x="132" y="61"/>
      <point x="192" y="72" type="qcurve"/>
      <point x="145" y="91"/>
      <point x="86" y="177"/>
      <point x="86" y="230" type="qcurve" smooth="yes"/>
      <point x="86" y="293"/>
      <point x="167" y="387"/>
      <point x="228" y="397" type="qcurve"/>
      <point x="206" y="466" type="line" smooth="yes"/>
      <point x="202" y="477"/>
      <point x="213" y="481" type="qcurve" smooth="yes"/>
      <point x="229" y="486" type="line"/>
      <point x="256" y="495" type="line" smooth="yes"/>
      <point x="264" y="497"/>
      <point x="267" y="498" type="qcurve" smooth="yes"/>
      <point x="269" y="499" type="line"/>
      <point x="271" y="499" type="line"/>
      <point x="282" y="503"/>
      <point x="286" y="492" type="qcurve" smooth="yes"/>
      <point x="319" y="391" type="line"/>
      <point x="351" y="290" type="line" smooth="yes"/>
      <point x="355" y="278"/>
      <point x="343" y="275" type="qcurve" smooth="yes"/>
      <point x="314" y="266" type="line"/>
      <point x="285" y="257" type="line" smooth="yes"/>
      <point x="274" y="253"/>
      <point x="270" y="264" type="qcurve" smooth="yes"/>
      <point x="263" y="289" type="line"/>
      <point x="256" y="309" type="line"/>
      <point x="251" y="326" type="line"/>
      <point x="249" y="331" type="line"/>
      <point x="245" y="342" type="line"/>
      <point x="202" y="338"/>
      <point x="142" y="274"/>
      <point x="142" y="230" type="qcurve" smooth="yes"/>
      <point x="142" y="183"/>
      <point x="209" y="116"/>
      <point x="256" y="116" type="qcurve"/>
      <point x="268" y="118" type="line"/>
      <point x="278" y="120" type="line" smooth="yes"/>
      <point x="287" y="122"/>
      <point x="314" y="132"/>
      <point x="322" y="138" type="qcurve"/>
      <point x="283" y="138" type="line" smooth="yes"/>
      <point x="271" y="138"/>
      <point x="271" y="150" type="qcurve" smooth="yes"/>
      <point x="271" y="157" type="line" smooth="yes"/>
      <point x="271" y="162"/>
      <point x="278" y="169"/>
      <point x="283" y="169" type="qcurve" smooth="yes"/>
      <point x="339" y="169" type="line"/>
      <point x="351" y="169" type="line"/>
      <point x="363" y="169" type="line"/>
      <point x="402" y="169" type="line"/>
      <point x="414" y="169" type="line"/>
      <point x="420" y="169" type="line" smooth="yes"/>
    </contour>
  </outline>
</glyph>
<glyph name="milk-bottle" format="2">
  <advance width="512"/>
  <unicode hex="E223"/>
  <note>
milk-bottle
</note>
  <outline>
    <contour>
      <point x="196" y="15" type="line" smooth="yes"/>
      <point x="188" y="15"/>
      <point x="176" y="27"/>
      <point x="176" y="35" type="qcurve" smooth="yes"/>
      <point x="176" y="133" type="line"/>
      <point x="225" y="133" type="line" smooth="yes"/>
      <point x="238" y="133"/>
      <point x="238" y="146" type="qcurve" smooth="yes"/>
      <point x="238" y="149" type="line" smooth="yes"/>
      <point x="238" y="162"/>
      <point x="225" y="162" type="qcurve" smooth="yes"/>
      <point x="176" y="162" type="line"/>
      <point x="176" y="195" type="line"/>
      <point x="225" y="195" type="line" smooth="yes"/>
      <point x="238" y="195"/>
      <point x="238" y="208" type="qcurve" smooth="yes"/>
      <point x="238" y="211" type="line" smooth="yes"/>
      <point x="238" y="224"/>
      <point x="225" y="224" type="qcurve" smooth="yes"/>
      <point x="176" y="224" type="line"/>
      <point x="176" y="279" type="line"/>
      <point x="336" y="279" type="line"/>
      <point x="336" y="35" type="line" smooth="yes"/>
      <point x="336" y="27"/>
      <point x="324" y="15"/>
      <point x="316" y="15" type="qcurve" smooth="yes"/>
    </contour>
    <contour>
      <point x="221" y="416" type="line" smooth="yes"/>
      <point x="238" y="435"/>
      <point x="233" y="461" type="qcurve"/>
      <point x="233" y="468" type="line" smooth="yes"/>
      <point x="233" y="480"/>
      <point x="246" y="497"/>
      <point x="266" y="497"/>
      <point x="279" y="480"/>
      <point x="279" y="468" type="qcurve" smooth="yes"/>
      <point x="279" y="461" type="line"/>
      <point x="274" y="435"/>
      <point x="291" y="416" type="qcurve" smooth="yes"/>
      <point x="299" y="408" type="line" smooth="yes"/>
      <point x="322" y="388"/>
      <point x="328" y="361" type="qcurve"/>
      <point x="184" y="361" type="line"/>
      <point x="190" y="388"/>
      <point x="213" y="408" type="qcurve" smooth="yes"/>
    </contour>
    <contour>
      <point x="175" y="292" type="line" smooth="yes"/>
      <point x="166" y="292"/>
      <point x="162" y="298" type="qcurve"/>
      <point x="156" y="302"/>
      <point x="156" y="311" type="qcurve" smooth="yes"/>
      <point x="156" y="328" type="line" smooth="yes"/>
      <point x="156" y="336"/>
      <point x="167" y="347"/>
      <point x="175" y="347" type="qcurve" smooth="yes"/>
      <point x="337" y="347" type="line" smooth="yes"/>
      <point x="345" y="347"/>
      <point x="350" y="342" type="qcurve" smooth="yes"/>
      <point x="356" y="336"/>
      <point x="356" y="328" type="qcurve" smooth="yes"/>
      <point x="356" y="311" type="line" smooth="yes"/>
      <point x="356" y="304"/>
      <point x="344" y="292"/>
      <point x="337" y="292" type="qcurve" smooth="yes"/>
    </contour>
  </outline>
</glyph>
<glyph name="minimize" format="2">
  <advance width="512"/>
  <unicode hex="E224"/>
  <note>
minimize
</note>
  <outline>
    <contour>
      <point x="500" y="94" type="line" smooth="yes"/>
      <point x="500" y="108"/>
      <point x="486" y="108" type="qcurve" smooth="yes"/>
      <point x="26" y="108" type="line" smooth="yes"/>
      <point x="12" y="108"/>
      <point x="12" y="94" type="qcurve" smooth="yes"/>
      <point x="12" y="25" type="line" smooth="yes"/>
      <point x="12" y="11"/>
      <point x="26" y="11" type="qcurve" smooth="yes"/>
      <point x="486" y="11" type="line" smooth="yes"/>
      <point x="500" y="11"/>
      <point x="500" y="25" type="qcurve" smooth="yes"/>
    </contour>
  </outline>
</glyph>
<glyph name="molecule" format="2">
  <advance width="512"/>
  <unicode hex="E225"/>
  <note>
molecule
</note>
  <outline>
    <contour>
      <point x="466" y="157"/>
      <point x="502" y="121"/>
      <point x="502" y="69"/>
      <point x="466" y="33"/>
      <point x="416" y="33"/>
      <point x="379" y="70"/>
      <point x="379" y="95" type="qcurve" smooth="yes"/>
      <point x="379" y="101"/>
      <point x="381" y="111" type="qcurve"/>
      <point x="323" y="149" type="line"/>
      <point x="295" y="121"/>
      <point x="217" y="121"/>
      <point x="189" y="149" type="qcurve"/>
      <point x="131" y="111" type="line"/>
      <point x="133" y="101"/>
      <point x="133" y="95" type="qcurve" smooth="yes"/>
      <point x="133" y="70"/>
      <point x="96" y="33"/>
      <point x="46" y="33"/>
      <point x="10" y="69"/>
      <point x="10" y="121"/>
      <point x="46" y="157"/>
      <point x="71" y="157" type="qcurve" smooth="yes"/>
      <point x="93" y="157"/>
      <point x="110" y="142" type="qcurve"/>
      <point x="169" y="181" type="line"/>
      <point x="162" y="198"/>
      <point x="162" y="215" type="qcurve" smooth="yes"/>
      <point x="162" y="248"/>
      <point x="205" y="300"/>
      <point x="237" y="306" type="qcurve"/>
      <point x="237" y="359" type="line"/>
      <point x="218" y="365"/>
      <point x="194" y="397"/>
      <point x="194" y="417" type="qcurve" smooth="yes"/>
      <point x="194" y="442"/>
      <point x="230" y="479"/>
      <point x="282" y="479"/>
      <point x="318" y="442"/>
      <point x="318" y="417" type="qcurve" smooth="yes"/>
      <point x="318" y="397"/>
      <point x="294" y="365"/>
      <point x="275" y="359" type="qcurve"/>
      <point x="275" y="306" type="line"/>
      <point x="307" y="300"/>
      <point x="350" y="248"/>
      <point x="350" y="215" type="qcurve" smooth="yes"/>
      <point x="350" y="198"/>
      <point x="343" y="181" type="qcurve"/>
      <point x="402" y="142" type="line"/>
      <point x="419" y="157"/>
      <point x="441" y="157" type="qcurve" smooth="yes"/>
    </contour>
  </outline>
</glyph>
<glyph name="moon-cloud" format="2">
  <advance width="512"/>
  <unicode hex="E226"/>
  <note>
moon-cloud
</note>
  <outline>
    <contour>
      <point x="447" y="259"/>
      <point x="501" y="205"/>
      <point x="501" y="129"/>
      <point x="447" y="76"/>
      <point x="409" y="76" type="qcurve" smooth="yes"/>
      <point x="65" y="76" type="line" smooth="yes"/>
      <point x="11" y="76"/>
      <point x="11" y="117" type="qcurve" smooth="yes"/>
      <point x="11" y="138"/>
      <point x="42" y="169"/>
      <point x="63" y="170" type="qcurve"/>
      <point x="62" y="171"/>
      <point x="57" y="175"/>
      <point x="56" y="176" type="qcurve" smooth="yes"/>
      <point x="37" y="195"/>
      <point x="23" y="225" type="qcurve" smooth="yes"/>
      <point x="11" y="253"/>
      <point x="11" y="315"/>
      <point x="23" y="342" type="qcurve" smooth="yes"/>
      <point x="33" y="367"/>
      <point x="54" y="390" type="qcurve" smooth="yes"/>
      <point x="74" y="410"/>
      <point x="100" y="423" type="qcurve" smooth="yes"/>
      <point x="127" y="434"/>
      <point x="158" y="436" type="qcurve" smooth="yes"/>
      <point x="167" y="437"/>
      <point x="170" y="429" type="qcurve" smooth="yes"/>
      <point x="174" y="420"/>
      <point x="167" y="414" type="qcurve" smooth="yes"/>
      <point x="150" y="398"/>
      <point x="141" y="378" type="qcurve" smooth="yes"/>
      <point x="132" y="357"/>
      <point x="132" y="335" type="qcurve" smooth="yes"/>
      <point x="132" y="305"/>
      <point x="147" y="281" type="qcurve" smooth="yes"/>
      <point x="148" y="279"/>
      <point x="150" y="276" type="qcurve" smooth="yes"/>
      <point x="153" y="272" type="line"/>
      <point x="165" y="307"/>
      <point x="224" y="351"/>
      <point x="262" y="351" type="qcurve" smooth="yes"/>
      <point x="305" y="351"/>
      <point x="370" y="295"/>
      <point x="377" y="253" type="qcurve"/>
      <point x="392" y="259"/>
      <point x="409" y="259" type="qcurve" smooth="yes"/>
    </contour>
    <contour>
      <point x="147" y="232"/>
      <point x="146" y="233" type="qcurve"/>
      <point x="146" y="235" type="line" smooth="yes"/>
      <point x="146" y="236"/>
      <point x="146" y="238" type="qcurve"/>
      <point x="147" y="239" type="line"/>
      <point x="134" y="251"/>
      <point x="124" y="268" type="qcurve" smooth="yes"/>
      <point x="107" y="299"/>
      <point x="107" y="335" type="qcurve" smooth="yes"/>
      <point x="107" y="372"/>
      <point x="127" y="406" type="qcurve"/>
      <point x="87" y="394"/>
      <point x="62" y="360" type="qcurve" smooth="yes"/>
      <point x="37" y="328"/>
      <point x="37" y="284" type="qcurve" smooth="yes"/>
      <point x="37" y="257"/>
      <point x="47" y="234" type="qcurve" smooth="yes"/>
      <point x="58" y="210"/>
      <point x="74" y="194" type="qcurve" smooth="yes"/>
      <point x="77" y="191"/>
      <point x="83" y="187" type="qcurve"/>
      <point x="89" y="206"/>
      <point x="122" y="231"/>
      <point x="143" y="231" type="qcurve" smooth="yes"/>
      <point x="147" y="231" type="line"/>
    </contour>
  </outline>
</glyph>
<glyph name="mushroom" format="2">
  <advance width="512"/>
  <unicode hex="E227"/>
  <note>
mushroom
</note>
  <outline>
    <contour>
      <point x="487" y="400"/>
      <point x="488" y="329" type="qcurve" smooth="yes"/>
      <point x="488" y="311"/>
      <point x="479" y="283"/>
      <point x="459" y="267"/>
      <point x="441" y="257"/>
      <point x="413" y="254"/>
      <point x="397" y="253"/>
      <point x="371" y="254"/>
      <point x="369" y="254" type="qcurve" smooth="yes"/>
      <point x="356" y="254" type="line"/>
      <point x="309" y="254" type="line"/>
      <point x="318" y="226"/>
      <point x="318" y="189" type="qcurve" smooth="yes"/>
      <point x="318" y="182"/>
      <point x="317" y="176"/>
      <point x="315" y="160"/>
      <point x="314" y="147" type="qcurve"/>
      <point x="315" y="150"/>
      <point x="338" y="142"/>
      <point x="362" y="109"/>
      <point x="362" y="80" type="qcurve" smooth="yes"/>
      <point x="362" y="49"/>
      <point x="302" y="12"/>
      <point x="210" y="12"/>
      <point x="150" y="49"/>
      <point x="150" y="80" type="qcurve" smooth="yes"/>
      <point x="150" y="109"/>
      <point x="174" y="142"/>
      <point x="198" y="150"/>
      <point x="198" y="147" type="qcurve" smooth="yes"/>
      <point x="195" y="179"/>
      <point x="195" y="189" type="qcurve" smooth="yes"/>
      <point x="195" y="224"/>
      <point x="203" y="254" type="qcurve"/>
      <point x="156" y="254" type="line"/>
      <point x="143" y="254" type="line" smooth="yes"/>
      <point x="141" y="254"/>
      <point x="115" y="253"/>
      <point x="99" y="254"/>
      <point x="71" y="257"/>
      <point x="53" y="267"/>
      <point x="34" y="283"/>
      <point x="25" y="311"/>
      <point x="25" y="329" type="qcurve" smooth="yes"/>
      <point x="25" y="400"/>
      <point x="160" y="500"/>
      <point x="352" y="500"/>
    </contour>
  </outline>
</glyph>
<glyph name="mustache" format="2">
  <advance width="512"/>
  <unicode hex="E228"/>
  <note>
mustache
</note>
  <outline>
    <contour>
      <point x="60" y="205"/>
      <point x="35" y="225"/>
      <point x="18" y="251"/>
      <point x="15" y="261"/>
      <point x="14" y="264" type="qcurve"/>
      <point x="30" y="248"/>
      <point x="64" y="248" type="qcurve" smooth="yes"/>
      <point x="78" y="248"/>
      <point x="103" y="271"/>
      <point x="121" y="300"/>
      <point x="152" y="323"/>
      <point x="172" y="323" type="qcurve" smooth="yes"/>
      <point x="198" y="323"/>
      <point x="242" y="300"/>
      <point x="253" y="286"/>
      <point x="256" y="281" type="qcurve"/>
      <point x="264" y="292" type="line" smooth="yes"/>
      <point x="272" y="302"/>
      <point x="314" y="323"/>
      <point x="340" y="323" type="qcurve" smooth="yes"/>
      <point x="365" y="323"/>
      <point x="401" y="286"/>
      <point x="431" y="248"/>
      <point x="448" y="248" type="qcurve" smooth="yes"/>
      <point x="482" y="248"/>
      <point x="498" y="264" type="qcurve"/>
      <point x="496" y="256" type="line" smooth="yes"/>
      <point x="493" y="249"/>
      <point x="477" y="226"/>
      <point x="452" y="204"/>
      <point x="404" y="189"/>
      <point x="342" y="189"/>
      <point x="273" y="222"/>
      <point x="256" y="256" type="qcurve"/>
      <point x="239" y="222"/>
      <point x="170" y="189"/>
      <point x="108" y="189"/>
    </contour>
  </outline>
</glyph>
<glyph name="mysql" format="2">
  <advance width="512"/>
  <unicode hex="E229"/>
  <note>
mysql
</note>
  <outline>
    <contour>
      <point x="12" y="216" type="line" smooth="yes"/>
      <point x="12" y="225"/>
      <point x="19" y="226" type="qcurve"/>
      <point x="38" y="232"/>
      <point x="43" y="219" type="qcurve" smooth="yes"/>
      <point x="67" y="164" type="line"/>
      <point x="92" y="219" type="line" smooth="yes"/>
      <point x="98" y="232"/>
      <point x="116" y="226" type="qcurve" smooth="yes"/>
      <point x="124" y="224"/>
      <point x="124" y="216" type="qcurve" smooth="yes"/>
      <point x="124" y="152" type="line"/>
      <point x="108" y="152" type="line"/>
      <point x="108" y="216" type="line"/>
      <point x="83" y="160" type="line" smooth="yes"/>
      <point x="79" y="151"/>
      <point x="57" y="151"/>
      <point x="53" y="160" type="qcurve" smooth="yes"/>
      <point x="28" y="216" type="line"/>
      <point x="28" y="152" type="line"/>
      <point x="12" y="152" type="line"/>
    </contour>
    <contour>
      <point x="137" y="167" type="line" smooth="yes"/>
      <point x="137" y="152"/>
      <point x="164" y="152" type="qcurve" smooth="yes"/>
      <point x="198" y="152" type="line"/>
      <point x="198" y="148" type="line" smooth="yes"/>
      <point x="198" y="146"/>
      <point x="198" y="144"/>
      <point x="194" y="140"/>
      <point x="189" y="140" type="qcurve" smooth="yes"/>
      <point x="138" y="140" type="line"/>
      <point x="138" y="129" type="line"/>
      <point x="189" y="129" type="line" smooth="yes"/>
      <point x="215" y="129"/>
      <point x="214" y="146" type="qcurve" smooth="yes"/>
      <point x="214" y="204" type="line"/>
      <point x="198" y="204" type="line"/>
      <point x="198" y="162" type="line"/>
      <point x="163" y="162" type="line" smooth="yes"/>
      <point x="159" y="162"/>
      <point x="154" y="165"/>
      <point x="154" y="168"/>
      <point x="154" y="169" type="qcurve" smooth="yes"/>
      <point x="154" y="204" type="line"/>
      <point x="137" y="204" type="line"/>
    </contour>
    <contour>
      <point x="227" y="163" type="line"/>
      <point x="272" y="163" type="line"/>
      <point x="273" y="163" type="line" smooth="yes"/>
      <point x="278" y="163"/>
      <point x="280" y="165" type="qcurve"/>
      <point x="283" y="166"/>
      <point x="283" y="169" type="qcurve" smooth="yes"/>
      <point x="283" y="178" type="line" smooth="yes"/>
      <point x="283" y="179"/>
      <point x="281" y="181" type="qcurve"/>
      <point x="280" y="184"/>
      <point x="272" y="184" type="qcurve" smooth="yes"/>
      <point x="271" y="184" type="line"/>
      <point x="254" y="184" type="line" smooth="yes"/>
      <point x="251" y="184"/>
      <point x="249" y="185" type="qcurve"/>
      <point x="227" y="187"/>
      <point x="227" y="200" type="qcurve" smooth="yes"/>
      <point x="227" y="209" type="line" smooth="yes"/>
      <point x="227" y="221"/>
      <point x="241" y="225" type="qcurve" smooth="yes"/>
      <point x="244" y="226"/>
      <point x="254" y="226" type="qcurve" smooth="yes"/>
      <point x="299" y="226" type="line"/>
      <point x="299" y="216" type="line"/>
      <point x="253" y="216" type="line"/>
      <point x="252" y="216" type="line" smooth="yes"/>
      <point x="244" y="215"/>
      <point x="243" y="211" type="qcurve" smooth="yes"/>
      <point x="243" y="209" type="line"/>
      <point x="243" y="202" type="line"/>
      <point x="243" y="201" type="line" smooth="yes"/>
      <point x="244" y="194"/>
      <point x="254" y="194" type="qcurve" smooth="yes"/>
      <point x="273" y="194" type="line" smooth="yes"/>
      <point x="279" y="194"/>
      <point x="287" y="192" type="qcurve" smooth="yes"/>
      <point x="299" y="188"/>
      <point x="299" y="180" type="qcurve" smooth="yes"/>
      <point x="299" y="168" type="line" smooth="yes"/>
      <point x="299" y="160"/>
      <point x="288" y="155" type="qcurve" smooth="yes"/>
      <point x="282" y="152"/>
      <point x="273" y="152" type="qcurve" smooth="yes"/>
      <point x="227" y="152" type="line"/>
    </contour>
    <contour>
      <point x="400" y="226" type="line"/>
      <point x="416" y="226" type="line"/>
      <point x="416" y="171" type="line" smooth="yes"/>
      <point x="416" y="162"/>
      <point x="429" y="162" type="qcurve" smooth="yes"/>
      <point x="472" y="162" type="line"/>
      <point x="472" y="152" type="line"/>
      <point x="430" y="152" type="line"/>
      <point x="425" y="152" type="line" smooth="yes"/>
      <point x="400" y="153"/>
      <point x="400" y="170" type="qcurve" smooth="yes"/>
    </contour>
    <contour>
      <point x="309" y="157"/>
      <point x="325" y="153" type="qcurve" smooth="yes"/>
      <point x="331" y="151"/>
      <point x="334" y="151" type="qcurve" smooth="yes"/>
      <point x="351" y="151" type="line"/>
      <point x="364" y="152" type="line"/>
      <point x="377" y="141" type="line"/>
      <point x="396" y="141" type="line"/>
      <point x="380" y="155" type="line"/>
      <point x="390" y="159"/>
      <point x="390" y="170" type="qcurve" smooth="yes"/>
      <point x="390" y="208" type="line" smooth="yes"/>
      <point x="390" y="223"/>
      <point x="369" y="226" type="qcurve" smooth="yes"/>
      <point x="365" y="226" type="line"/>
      <point x="334" y="226" type="line"/>
      <point x="330" y="226" type="line" smooth="yes"/>
      <point x="309" y="223"/>
      <point x="309" y="208" type="qcurve" smooth="yes"/>
      <point x="309" y="170" type="line" smooth="yes"/>
    </contour>
    <contour>
      <point x="327" y="207" type="line" smooth="yes"/>
      <point x="327" y="215"/>
      <point x="339" y="215" type="qcurve" smooth="yes"/>
      <point x="363" y="215" type="line" smooth="yes"/>
      <point x="374" y="215"/>
      <point x="374" y="209" type="qcurve"/>
      <point x="375" y="208"/>
      <point x="375" y="207" type="qcurve" smooth="yes"/>
      <point x="375" y="171" type="line" smooth="yes"/>
      <point x="375" y="169"/>
      <point x="374" y="169" type="qcurve"/>
      <point x="374" y="165"/>
      <point x="370" y="164" type="qcurve"/>
      <point x="359" y="174" type="line"/>
      <point x="340" y="174" type="line"/>
      <point x="353" y="162" type="line"/>
      <point x="339" y="162" type="line" smooth="yes"/>
      <point x="329" y="162"/>
      <point x="327" y="169" type="qcurve"/>
      <point x="327" y="171" type="line"/>
    </contour>
    <contour>
      <point x="486" y="248"/>
      <point x="477" y="251" type="qcurve"/>
      <point x="465" y="260" type="line"/>
      <point x="464" y="260"/>
      <point x="458" y="262"/>
      <point x="456" y="264"/>
      <point x="449" y="266"/>
      <point x="445" y="268"/>
      <point x="444" y="269" type="qcurve" smooth="yes"/>
      <point x="441" y="272"/>
      <point x="435" y="285" type="qcurve" smooth="yes"/>
      <point x="429" y="297"/>
      <point x="427" y="303" type="qcurve"/>
      <point x="426" y="304"/>
      <point x="424" y="310"/>
      <point x="423" y="312" type="qcurve" smooth="yes"/>
      <point x="408" y="340"/>
      <point x="384" y="354" type="qcurve"/>
      <point x="377" y="360"/>
      <point x="367" y="363" type="qcurve" smooth="yes"/>
      <point x="365" y="364"/>
      <point x="356" y="364"/>
      <point x="354" y="364" type="qcurve" smooth="yes"/>
      <point x="352" y="364" type="line"/>
      <point x="350" y="365"/>
      <point x="346" y="369" type="qcurve"/>
      <point x="334" y="375" type="line"/>
      <point x="333" y="375"/>
      <point x="329" y="376"/>
      <point x="327" y="376"/>
      <point x="326" y="376" type="qcurve" smooth="yes"/>
      <point x="324" y="376"/>
      <point x="324" y="374" type="qcurve"/>
      <point x="323" y="373"/>
      <point x="325" y="369" type="qcurve" smooth="yes"/>
      <point x="331" y="360" type="line" smooth="yes"/>
      <point x="332" y="359"/>
      <point x="338" y="350" type="qcurve" smooth="yes"/>
      <point x="340" y="346"/>
      <point x="343" y="331"/>
      <point x="345" y="328" type="qcurve" smooth="yes"/>
      <point x="346" y="326"/>
      <point x="350" y="320" type="qcurve"/>
      <point x="354" y="316"/>
      <point x="354" y="315" type="qcurve"/>
      <point x="355" y="313"/>
      <point x="351" y="301" type="qcurve" smooth="yes"/>
      <point x="346" y="285"/>
      <point x="352" y="268" type="qcurve"/>
      <point x="357" y="260"/>
      <point x="359" y="260" type="qcurve" smooth="yes"/>
      <point x="360" y="260" type="line"/>
      <point x="362" y="277"/>
      <point x="364" y="281"/>
      <point x="368" y="286"/>
      <point x="369" y="287" type="qcurve"/>
      <point x="370" y="287"/>
      <point x="370" y="285" type="qcurve"/>
      <point x="371" y="283" type="line" smooth="yes"/>
      <point x="375" y="275"/>
      <point x="376" y="271" type="qcurve" smooth="yes"/>
      <point x="377" y="269"/>
      <point x="387" y="252"/>
      <point x="390" y="248" type="qcurve" smooth="yes"/>
      <point x="397" y="241" type="line"/>
      <point x="400" y="238" type="line"/>
      <point x="400" y="238" type="line"/>
      <point x="398" y="239"/>
      <point x="392" y="244"/>
      <point x="391" y="245" type="qcurve" smooth="yes"/>
      <point x="378" y="256"/>
      <point x="375" y="262" type="qcurve" smooth="yes"/>
      <point x="370" y="272" type="line"/>
      <point x="370" y="273" type="line"/>
      <point x="369" y="272"/>
      <point x="369" y="269" type="qcurve"/>
      <point x="364" y="254"/>
      <point x="363" y="254" type="qcurve"/>
      <point x="357" y="251"/>
      <point x="350" y="261" type="qcurve" smooth="yes"/>
      <point x="339" y="277"/>
      <point x="346" y="303" type="qcurve"/>
      <point x="346" y="304"/>
      <point x="347" y="308"/>
      <point x="348" y="311"/>
      <point x="349" y="312" type="qcurve"/>
      <point x="349" y="313"/>
      <point x="346" y="316" type="qcurve"/>
      <point x="345" y="318"/>
      <point x="342" y="323"/>
      <point x="341" y="324" type="qcurve"/>
      <point x="339" y="329"/>
      <point x="335" y="341" type="qcurve"/>
      <point x="334" y="342"/>
      <point x="334" y="346"/>
      <point x="333" y="347" type="qcurve" smooth="yes"/>
      <point x="332" y="349"/>
      <point x="328" y="355"/>
      <point x="327" y="357" type="qcurve"/>
      <point x="316" y="371"/>
      <point x="319" y="377" type="qcurve" smooth="yes"/>
      <point x="325" y="392"/>
      <point x="349" y="375" type="qcurve" smooth="yes"/>
      <point x="350" y="374"/>
      <point x="354" y="372"/>
      <point x="355" y="371" type="qcurve"/>
      <point x="361" y="371"/>
      <point x="364" y="370" type="qcurve" smooth="yes"/>
      <point x="376" y="368"/>
      <point x="380" y="365" type="qcurve"/>
      <point x="409" y="349"/>
      <point x="428" y="319" type="qcurve" smooth="yes"/>
      <point x="429" y="317"/>
      <point x="434" y="305" type="qcurve" smooth="yes"/>
      <point x="445" y="283" type="line"/>
      <point x="447" y="276"/>
      <point x="450" y="274" type="qcurve"/>
      <point x="450" y="273"/>
      <point x="455" y="271" type="qcurve"/>
      <point x="456" y="271"/>
      <point x="466" y="267"/>
      <point x="468" y="265" type="qcurve" smooth="yes"/>
      <point x="474" y="261"/>
      <point x="488" y="250" type="qcurve" smooth="yes"/>
      <point x="490" y="248"/>
      <point x="494" y="242" type="qcurve"/>
      <point x="494" y="241" type="line"/>
      <point x="493" y="241"/>
      <point x="489" y="240"/>
      <point x="488" y="240" type="qcurve"/>
      <point x="486" y="239"/>
      <point x="477" y="238"/>
      <point x="476" y="238" type="qcurve"/>
      <point x="470" y="236"/>
      <point x="467" y="236" type="qcurve"/>
      <point x="468" y="235" type="line"/>
      <point x="468" y="234"/>
      <point x="482" y="224" type="qcurve" smooth="yes"/>
      <point x="489" y="220"/>
      <point x="495" y="212" type="qcurve" smooth="yes"/>
      <point x="497" y="209"/>
      <point x="498" y="208" type="qcurve" smooth="yes"/>
      <point x="500" y="206"/>
      <point x="500" y="204" type="qcurve"/>
      <point x="497" y="207" type="line"/>
      <point x="488" y="213" type="line"/>
      <point x="486" y="215"/>
      <point x="475" y="220"/>
      <point x="471" y="222"/>
      <point x="465" y="226" type="qcurve"/>
      <point x="460" y="231"/>
      <point x="459" y="234" type="qcurve"/>
      <point x="458" y="234"/>
      <point x="458" y="238"/>
      <point x="457" y="238" type="qcurve"/>
      <point x="462" y="241" type="line" smooth="yes"/>
      <point x="471" y="246"/>
      <point x="486" y="244" type="qcurve"/>
    </contour>
    <contour>
      <point x="360" y="351" type="line" smooth="yes"/>
      <point x="362" y="350"/>
      <point x="363" y="349" type="qcurve" smooth="yes"/>
      <point x="364" y="347" type="line"/>
      <point x="364" y="343"/>
      <point x="362" y="341" type="qcurve" smooth="yes"/>
      <point x="361" y="340" type="line"/>
      <point x="360" y="341"/>
      <point x="360" y="345"/>
      <point x="359" y="346" type="qcurve" smooth="yes"/>
      <point x="356" y="349"/>
      <point x="355" y="351" type="qcurve"/>
      <point x="354" y="351" type="line"/>
      <point x="354" y="352" type="line"/>
      <point x="359" y="352" type="line"/>
    </contour>
    <contour>
      <point x="12" y="245" type="line"/>
      <point x="15" y="245" type="line"/>
      <point x="15" y="255" type="line"/>
      <point x="18" y="255" type="line" smooth="yes"/>
      <point x="22" y="255"/>
      <point x="26" y="257" type="qcurve"/>
      <point x="28" y="261"/>
      <point x="28" y="263" type="qcurve" smooth="yes"/>
      <point x="28" y="266"/>
      <point x="25" y="268" type="qcurve" smooth="yes"/>
      <point x="23" y="270"/>
      <point x="18" y="270" type="qcurve" smooth="yes"/>
      <point x="12" y="270" type="line"/>
    </contour>
    <contour>
      <point x="16" y="267" type="line"/>
      <point x="19" y="267" type="line" smooth="yes"/>
      <point x="24" y="267"/>
      <point x="24" y="263" type="qcurve" smooth="yes"/>
      <point x="24" y="257"/>
      <point x="18" y="257" type="qcurve" smooth="yes"/>
      <point x="16" y="257" type="line"/>
    </contour>
    <contour>
      <point x="48" y="263"/>
      <point x="39" y="263" type="qcurve" smooth="yes"/>
      <point x="31" y="263"/>
      <point x="31" y="254" type="qcurve" smooth="yes"/>
      <point x="31" y="244"/>
      <point x="39" y="244" type="qcurve" smooth="yes"/>
      <point x="48" y="244"/>
      <point x="48" y="254" type="qcurve" smooth="yes"/>
    </contour>
    <contour>
      <point x="39" y="261" type="qcurve" smooth="yes"/>
      <point x="45" y="261"/>
      <point x="45" y="247"/>
      <point x="39" y="247" type="qcurve" smooth="yes"/>
      <point x="34" y="247"/>
      <point x="34" y="261"/>
    </contour>
    <contour>
      <point x="50" y="263" type="line"/>
      <point x="56" y="245" type="line"/>
      <point x="59" y="245" type="line"/>
      <point x="61" y="253" type="line"/>
      <point x="63" y="257"/>
      <point x="63" y="259" type="qcurve"/>
      <point x="64" y="258"/>
      <point x="64" y="254"/>
      <point x="65" y="253" type="qcurve"/>
      <point x="68" y="245" type="line"/>
      <point x="70" y="245" type="line"/>
      <point x="76" y="263" type="line"/>
      <point x="73" y="263" type="line"/>
      <point x="70" y="254" type="line"/>
      <point x="70" y="253"/>
      <point x="69" y="249"/>
      <point x="69" y="248" type="qcurve" smooth="yes"/>
      <point x="69" y="250"/>
      <point x="67" y="254" type="qcurve"/>
      <point x="65" y="263" type="line"/>
      <point x="62" y="263" type="line"/>
      <point x="59" y="254" type="line"/>
      <point x="58" y="253"/>
      <point x="58" y="249"/>
      <point x="57" y="248" type="qcurve"/>
      <point x="57" y="249"/>
      <point x="56" y="253"/>
      <point x="56" y="254" type="qcurve" smooth="yes"/>
      <point x="54" y="263" type="line"/>
    </contour>
    <contour>
      <point x="94" y="253" type="line"/>
      <point x="94" y="255" type="line" smooth="yes"/>
      <point x="94" y="263"/>
      <point x="87" y="263" type="qcurve" smooth="yes"/>
      <point x="78" y="263"/>
      <point x="78" y="254" type="qcurve" smooth="yes"/>
      <point x="78" y="244"/>
      <point x="87" y="244" type="qcurve" smooth="yes"/>
      <point x="91" y="244"/>
      <point x="93" y="246" type="qcurve"/>
      <point x="92" y="248" type="line"/>
      <point x="91" y="247"/>
      <point x="87" y="247" type="qcurve" smooth="yes"/>
      <point x="81" y="247"/>
      <point x="81" y="253" type="qcurve"/>
    </contour>
    <contour>
      <point x="81" y="256" type="line"/>
      <point x="84" y="261"/>
      <point x="86" y="261" type="qcurve" smooth="yes"/>
      <point x="91" y="261"/>
      <point x="91" y="256" type="qcurve"/>
    </contour>
    <contour>
      <point x="98" y="245" type="line"/>
      <point x="101" y="245" type="line"/>
      <point x="101" y="254" type="line"/>
      <point x="101" y="256" type="line"/>
      <point x="103" y="260"/>
      <point x="106" y="260" type="qcurve" smooth="yes"/>
      <point x="107" y="260" type="line"/>
      <point x="107" y="263" type="line"/>
      <point x="106" y="263" type="line" smooth="yes"/>
      <point x="102" y="263"/>
      <point x="101" y="259" type="qcurve"/>
      <point x="101" y="263" type="line"/>
      <point x="98" y="263" type="line"/>
      <point x="98" y="257" type="line"/>
    </contour>
    <contour>
      <point x="125" y="253" type="line"/>
      <point x="125" y="255" type="line" smooth="yes"/>
      <point x="125" y="263"/>
      <point x="109" y="263"/>
      <point x="109" y="254" type="qcurve" smooth="yes"/>
      <point x="109" y="244"/>
      <point x="118" y="244" type="qcurve" smooth="yes"/>
      <point x="122" y="244"/>
      <point x="124" y="246" type="qcurve"/>
      <point x="123" y="248" type="line"/>
      <point x="122" y="247"/>
      <point x="118" y="247" type="qcurve" smooth="yes"/>
      <point x="112" y="247"/>
      <point x="112" y="253" type="qcurve"/>
    </contour>
    <contour>
      <point x="112" y="256" type="line"/>
      <point x="112" y="261"/>
      <point x="122" y="261"/>
      <point x="122" y="256" type="qcurve"/>
    </contour>
    <contour>
      <point x="141" y="271" type="line"/>
      <point x="141" y="260" type="line"/>
      <point x="140" y="263"/>
      <point x="136" y="263" type="qcurve" smooth="yes"/>
      <point x="127" y="263"/>
      <point x="127" y="254" type="qcurve" smooth="yes"/>
      <point x="127" y="244"/>
      <point x="135" y="244" type="qcurve" smooth="yes"/>
      <point x="139" y="244"/>
      <point x="141" y="248" type="qcurve"/>
      <point x="142" y="245" type="line"/>
      <point x="144" y="245" type="line"/>
      <point x="144" y="249" type="line"/>
      <point x="144" y="271" type="line"/>
    </contour>
    <contour>
      <point x="141" y="252" type="line"/>
      <point x="141" y="251" type="line"/>
      <point x="139" y="247"/>
      <point x="136" y="247" type="qcurve" smooth="yes"/>
      <point x="131" y="247"/>
      <point x="131" y="261"/>
      <point x="136" y="261" type="qcurve" smooth="yes"/>
      <point x="139" y="261"/>
      <point x="141" y="257" type="qcurve"/>
      <point x="141" y="255" type="line"/>
    </contour>
    <contour>
      <point x="158" y="249" type="line" smooth="yes"/>
      <point x="158" y="248"/>
      <point x="157" y="246"/>
      <point x="157" y="245" type="qcurve"/>
      <point x="160" y="245" type="line"/>
      <point x="160" y="248" type="line"/>
      <point x="163" y="244"/>
      <point x="167" y="244" type="qcurve" smooth="yes"/>
      <point x="175" y="244"/>
      <point x="175" y="254" type="qcurve" smooth="yes"/>
      <point x="175" y="263"/>
      <point x="167" y="263" type="qcurve" smooth="yes"/>
      <point x="162" y="263"/>
      <point x="161" y="260" type="qcurve"/>
      <point x="161" y="271" type="line"/>
      <point x="158" y="271" type="line"/>
    </contour>
    <contour>
      <point x="161" y="255" type="line"/>
      <point x="161" y="257" type="line"/>
      <point x="163" y="261"/>
      <point x="166" y="261" type="qcurve" smooth="yes"/>
      <point x="171" y="261"/>
      <point x="171" y="247"/>
      <point x="161" y="247"/>
      <point x="161" y="251" type="qcurve" smooth="yes"/>
      <point x="161" y="252" type="line"/>
    </contour>
    <contour>
      <point x="176" y="263" type="line"/>
      <point x="183" y="246" type="line"/>
      <point x="183" y="245" type="line"/>
      <point x="182" y="243"/>
      <point x="180" y="241" type="qcurve"/>
      <point x="180" y="240"/>
      <point x="178" y="240" type="qcurve"/>
      <point x="178" y="240"/>
      <point x="177" y="239" type="qcurve"/>
      <point x="178" y="237" type="line"/>
      <point x="180" y="237"/>
      <point x="182" y="239" type="qcurve" smooth="yes"/>
      <point x="186" y="242"/>
      <point x="188" y="250" type="qcurve" smooth="yes"/>
      <point x="193" y="263" type="line"/>
      <point x="190" y="263" type="line"/>
      <point x="186" y="252" type="line" smooth="yes"/>
      <point x="185" y="250"/>
      <point x="185" y="249" type="qcurve"/>
      <point x="185" y="250"/>
      <point x="184" y="251" type="qcurve"/>
      <point x="184" y="252" type="line"/>
      <point x="180" y="263" type="line"/>
    </contour>
  </outline>
</glyph>
<glyph name="nintendo" format="2">
  <advance width="512"/>
  <unicode hex="E22A"/>
  <note>
nintendo
</note>
  <outline>
    <contour>
      <point x="465" y="316"/>
      <point x="501" y="281"/>
      <point x="501" y="231"/>
      <point x="465" y="196"/>
      <point x="437" y="196" type="qcurve" smooth="yes"/>
      <point x="75" y="196" type="line" smooth="yes"/>
      <point x="47" y="196"/>
      <point x="11" y="231"/>
      <point x="11" y="281"/>
      <point x="47" y="316"/>
      <point x="75" y="316" type="qcurve" smooth="yes"/>
      <point x="437" y="316" type="line" smooth="yes"/>
    </contour>
    <contour>
      <point x="459" y="210"/>
      <point x="486" y="237"/>
      <point x="486" y="275"/>
      <point x="459" y="301"/>
      <point x="437" y="301" type="qcurve" smooth="yes"/>
      <point x="75" y="301" type="line" smooth="yes"/>
      <point x="53" y="301"/>
      <point x="26" y="275"/>
      <point x="26" y="237"/>
      <point x="53" y="210"/>
      <point x="75" y="211" type="qcurve" smooth="yes"/>
      <point x="437" y="211" type="line" smooth="yes"/>
    </contour>
    <contour>
      <point x="102" y="285" type="line"/>
      <point x="119" y="285" type="line"/>
      <point x="119" y="228" type="line"/>
      <point x="102" y="228" type="line"/>
      <point x="77" y="267" type="line"/>
      <point x="77" y="228" type="line"/>
      <point x="60" y="228" type="line"/>
      <point x="60" y="285" type="line"/>
      <point x="78" y="285" type="line"/>
      <point x="102" y="245" type="line"/>
    </contour>
    <contour>
      <point x="232" y="265" type="line"/>
      <point x="232" y="228" type="line"/>
      <point x="215" y="228" type="line"/>
      <point x="215" y="265" type="line"/>
      <point x="206" y="265" type="line"/>
      <point x="206" y="271" type="line"/>
      <point x="215" y="271" type="line"/>
      <point x="215" y="279" type="line"/>
      <point x="232" y="279" type="line"/>
      <point x="232" y="271" type="line"/>
      <point x="241" y="271" type="line"/>
      <point x="241" y="265" type="line"/>
    </contour>
    <contour>
      <point x="129" y="228" type="line"/>
      <point x="146" y="228" type="line"/>
      <point x="146" y="265" type="line"/>
      <point x="129" y="265" type="line"/>
    </contour>
    <contour>
      <point x="129" y="273" type="line"/>
      <point x="146" y="273" type="line"/>
      <point x="146" y="285" type="line"/>
      <point x="129" y="285" type="line"/>
    </contour>
    <contour>
      <point x="439" y="268"/>
      <point x="453" y="256"/>
      <point x="453" y="238"/>
      <point x="439" y="226"/>
      <point x="428" y="226" type="qcurve" smooth="yes"/>
      <point x="418" y="226"/>
      <point x="403" y="238"/>
      <point x="403" y="256"/>
      <point x="418" y="268"/>
      <point x="428" y="268" type="qcurve" smooth="yes"/>
    </contour>
    <contour>
      <point x="435" y="247" type="line"/>
      <point x="435" y="255" type="line" smooth="yes"/>
      <point x="435" y="263"/>
      <point x="421" y="263"/>
      <point x="421" y="255" type="qcurve" smooth="yes"/>
      <point x="421" y="247" type="line"/>
      <point x="421" y="239" type="line" smooth="yes"/>
      <point x="421" y="230"/>
      <point x="435" y="230"/>
      <point x="435" y="239" type="qcurve" smooth="yes"/>
    </contour>
    <contour>
      <point x="381" y="285" type="line"/>
      <point x="398" y="285" type="line"/>
      <point x="398" y="228" type="line"/>
      <point x="381" y="228" type="line"/>
      <point x="381" y="230" type="line"/>
      <point x="372" y="224"/>
      <point x="361" y="229" type="qcurve"/>
      <point x="360" y="229"/>
      <point x="355" y="232"/>
      <point x="350" y="241"/>
      <point x="350" y="247" type="qcurve" smooth="yes"/>
      <point x="350" y="255"/>
      <point x="362" y="268"/>
      <point x="371" y="267" type="qcurve" smooth="yes"/>
      <point x="372" y="267"/>
      <point x="381" y="264" type="qcurve"/>
    </contour>
    <contour>
      <point x="381" y="254" type="line" smooth="yes"/>
      <point x="381" y="261"/>
      <point x="375" y="261" type="qcurve" smooth="yes"/>
      <point x="368" y="261"/>
      <point x="368" y="254" type="qcurve" smooth="yes"/>
      <point x="368" y="247" type="line"/>
      <point x="368" y="240" type="line" smooth="yes"/>
      <point x="368" y="233"/>
      <point x="375" y="233" type="qcurve" smooth="yes"/>
      <point x="381" y="233"/>
      <point x="381" y="240" type="qcurve" smooth="yes"/>
      <point x="381" y="247" type="line"/>
    </contour>
    <contour>
      <point x="206" y="267"/>
      <point x="206" y="248" type="qcurve" smooth="yes"/>
      <point x="206" y="228" type="line"/>
      <point x="189" y="228" type="line"/>
      <point x="189" y="253" type="line" smooth="yes"/>
      <point x="189" y="259"/>
      <point x="173" y="259"/>
      <point x="173" y="253" type="qcurve" smooth="yes"/>
      <point x="173" y="228" type="line"/>
      <point x="156" y="228" type="line"/>
      <point x="156" y="265" type="line"/>
      <point x="173" y="265" type="line"/>
      <point x="173" y="262" type="line"/>
      <point x="178" y="267"/>
      <point x="186" y="267" type="qcurve" smooth="yes"/>
    </contour>
    <contour>
      <point x="331" y="267"/>
      <point x="344" y="258"/>
      <point x="344" y="248" type="qcurve" smooth="yes"/>
      <point x="344" y="228" type="line"/>
      <point x="327" y="228" type="line"/>
      <point x="327" y="253" type="line" smooth="yes"/>
      <point x="327" y="259"/>
      <point x="320" y="259" type="qcurve" smooth="yes"/>
      <point x="311" y="259"/>
      <point x="311" y="253" type="qcurve" smooth="yes"/>
      <point x="311" y="228" type="line"/>
      <point x="295" y="228" type="line"/>
      <point x="295" y="265" type="line"/>
      <point x="311" y="265" type="line"/>
      <point x="311" y="262" type="line"/>
      <point x="318" y="267"/>
      <point x="325" y="267" type="qcurve" smooth="yes"/>
    </contour>
    <contour>
      <point x="257" y="246" type="line"/>
      <point x="257" y="239" type="line" smooth="yes"/>
      <point x="257" y="230"/>
      <point x="271" y="230"/>
      <point x="271" y="239" type="qcurve" smooth="yes"/>
      <point x="271" y="241" type="line"/>
      <point x="288" y="241" type="line"/>
      <point x="283" y="225"/>
      <point x="264" y="225" type="qcurve" smooth="yes"/>
      <point x="254" y="225"/>
      <point x="239" y="238"/>
      <point x="239" y="247" type="qcurve" smooth="yes"/>
      <point x="239" y="255"/>
      <point x="254" y="268"/>
      <point x="274" y="268"/>
      <point x="289" y="255"/>
      <point x="289" y="246" type="qcurve"/>
    </contour>
    <contour>
      <point x="257" y="258"/>
      <point x="257" y="252" type="qcurve"/>
      <point x="271" y="252" type="line"/>
      <point x="271" y="258"/>
      <point x="270" y="260" type="qcurve" smooth="yes"/>
      <point x="268" y="263"/>
      <point x="264" y="263" type="qcurve" smooth="yes"/>
      <point x="261" y="263"/>
      <point x="258" y="260" type="qcurve"/>
    </contour>
  </outline>
</glyph>
<glyph name="palette-color" format="2">
  <advance width="512"/>
  <unicode hex="E22B"/>
  <note>
palette-color
</note>
  <outline>
    <contour>
      <point x="498" y="372"/>
      <point x="498" y="283" type="qcurve" smooth="yes"/>
      <point x="498" y="227"/>
      <point x="420" y="148"/>
      <point x="363" y="148" type="qcurve" smooth="yes"/>
      <point x="315" y="148" type="line" smooth="yes"/>
      <point x="299" y="148"/>
      <point x="275" y="124"/>
      <point x="275" y="108" type="qcurve" smooth="yes"/>
      <point x="275" y="96"/>
      <point x="286" y="81" type="qcurve"/>
      <point x="296" y="71"/>
      <point x="296" y="54" type="qcurve" smooth="yes"/>
      <point x="296" y="38"/>
      <point x="272" y="14"/>
      <point x="256" y="14" type="qcurve" smooth="yes"/>
      <point x="156" y="14"/>
      <point x="14" y="156"/>
      <point x="14" y="356"/>
      <point x="156" y="498"/>
      <point x="356" y="498"/>
    </contour>
    <contour>
      <point x="148" y="280"/>
      <point x="148" y="296"/>
      <point x="148" y="313"/>
      <point x="124" y="337"/>
      <point x="92" y="337"/>
      <point x="68" y="312"/>
      <point x="68" y="280"/>
      <point x="92" y="256"/>
      <point x="124" y="256"/>
    </contour>
    <contour>
      <point x="205" y="364"/>
      <point x="229" y="388"/>
      <point x="229" y="420"/>
      <point x="205" y="444"/>
      <point x="173" y="444"/>
      <point x="148" y="420"/>
      <point x="148" y="388"/>
      <point x="172" y="364"/>
      <point x="189" y="364" type="qcurve" smooth="yes"/>
    </contour>
    <contour>
      <point x="340" y="364"/>
      <point x="363" y="388"/>
      <point x="363" y="420"/>
      <point x="339" y="444"/>
      <point x="307" y="444"/>
      <point x="283" y="420"/>
      <point x="283" y="388"/>
      <point x="307" y="364"/>
      <point x="323" y="364" type="qcurve" smooth="yes"/>
    </contour>
    <contour>
      <point x="444" y="280"/>
      <point x="444" y="312"/>
      <point x="420" y="337"/>
      <point x="388" y="337"/>
      <point x="363" y="312"/>
      <point x="363" y="280"/>
      <point x="388" y="256"/>
      <point x="420" y="256"/>
    </contour>
  </outline>
</glyph>
<glyph name="pi" format="2">
  <advance width="512"/>
  <unicode hex="E22C"/>
  <note>
pi
</note>
  <outline>
    <contour>
      <point x="417" y="97"/>
      <point x="466" y="122"/>
      <point x="469" y="140" type="qcurve"/>
      <point x="472" y="148"/>
      <point x="470" y="161" type="qcurve" smooth="yes"/>
      <point x="469" y="168"/>
      <point x="475" y="168" type="qcurve" smooth="yes"/>
      <point x="487" y="167"/>
      <point x="495" y="146" type="qcurve" smooth="yes"/>
      <point x="505" y="125"/>
      <point x="495" y="93" type="qcurve" smooth="yes"/>
      <point x="484" y="62"/>
      <point x="421" y="25"/>
      <point x="354" y="23"/>
      <point x="297" y="77"/>
      <point x="292" y="128" type="qcurve" smooth="yes"/>
      <point x="281" y="199"/>
      <point x="294" y="392" type="qcurve"/>
      <point x="215" y="392" type="line"/>
      <point x="221" y="157" type="line" smooth="yes"/>
      <point x="225" y="88"/>
      <point x="166" y="14"/>
      <point x="129" y="35" type="qcurve" smooth="yes"/>
      <point x="117" y="42"/>
      <point x="101" y="60"/>
      <point x="98" y="83"/>
      <point x="98" y="101"/>
      <point x="108" y="129"/>
      <point x="115" y="144"/>
      <point x="131" y="176"/>
      <point x="133" y="181" type="qcurve" smooth="yes"/>
      <point x="148" y="215"/>
      <point x="153" y="374"/>
      <point x="147" y="392" type="qcurve"/>
      <point x="138" y="394" type="line" smooth="yes"/>
      <point x="130" y="396"/>
      <point x="75" y="384"/>
      <point x="37" y="368" type="qcurve" smooth="yes"/>
      <point x="18" y="360"/>
      <point x="8" y="370"/>
      <point x="18" y="386" type="qcurve" smooth="yes"/>
      <point x="84" y="488"/>
      <point x="143" y="488" type="qcurve" smooth="yes"/>
      <point x="458" y="488" type="line"/>
      <point x="469" y="488" type="line" smooth="yes"/>
      <point x="480" y="487"/>
      <point x="501" y="462"/>
      <point x="501" y="439" type="qcurve" smooth="yes"/>
      <point x="501" y="420"/>
      <point x="481" y="397"/>
      <point x="464" y="392"/>
      <point x="457" y="392" type="qcurve" smooth="yes"/>
      <point x="371" y="392" type="line"/>
      <point x="360" y="334" type="line" smooth="yes"/>
      <point x="350" y="276"/>
      <point x="361" y="136"/>
      <point x="392" y="112" type="qcurve"/>
    </contour>
  </outline>
</glyph>
<glyph name="pizza" format="2">
  <advance width="512"/>
  <unicode hex="E22D"/>
  <note>
pizza
</note>
  <outline>
    <contour>
      <point x="505" y="148"/>
      <point x="492" y="128"/>
      <point x="481" y="125" type="qcurve" smooth="yes"/>
      <point x="478" y="124"/>
      <point x="474" y="124" type="qcurve" smooth="yes"/>
      <point x="451" y="124"/>
      <point x="446" y="146" type="qcurve" smooth="yes"/>
      <point x="446" y="147"/>
      <point x="444" y="150"/>
      <point x="444" y="151" type="qcurve"/>
      <point x="238" y="80" type="line"/>
      <point x="127" y="42" type="line"/>
      <point x="44" y="13" type="line" smooth="yes"/>
      <point x="36" y="11"/>
      <point x="33" y="11" type="qcurve" smooth="yes"/>
      <point x="23" y="11"/>
      <point x="16" y="18" type="qcurve" smooth="yes"/>
      <point x="6" y="28"/>
      <point x="12" y="46" type="qcurve" smooth="yes"/>
      <point x="149" y="444" type="line"/>
      <point x="123" y="450"/>
      <point x="126" y="475" type="qcurve" smooth="yes"/>
      <point x="127" y="487"/>
      <point x="146" y="502"/>
      <point x="157" y="501" type="qcurve" smooth="yes"/>
      <point x="159" y="501" type="line" smooth="yes"/>
      <point x="173" y="499"/>
      <point x="219" y="487"/>
      <point x="314" y="442"/>
      <point x="396" y="374"/>
      <point x="480" y="244"/>
      <point x="502" y="160" type="qcurve" smooth="yes"/>
    </contour>
    <contour>
      <point x="436" y="179" type="line"/>
      <point x="418" y="233"/>
      <point x="362" y="322"/>
      <point x="307" y="375"/>
      <point x="243" y="415"/>
      <point x="198" y="433"/>
      <point x="177" y="438" type="qcurve"/>
      <point x="121" y="276" type="line"/>
      <point x="146" y="286"/>
      <point x="165" y="267" type="qcurve" smooth="yes"/>
      <point x="177" y="255"/>
      <point x="177" y="221"/>
      <point x="153" y="197"/>
      <point x="119" y="197"/>
      <point x="107" y="209" type="qcurve"/>
      <point x="107" y="209"/>
      <point x="101" y="218" type="qcurve"/>
      <point x="41" y="43" type="line"/>
      <point x="113" y="68" type="line"/>
      <point x="101" y="103"/>
      <point x="129" y="131" type="qcurve" smooth="yes"/>
      <point x="148" y="150"/>
      <point x="201" y="150"/>
      <point x="220" y="131" type="qcurve" smooth="yes"/>
      <point x="230" y="119"/>
      <point x="234" y="109" type="qcurve"/>
    </contour>
    <contour>
      <point x="253" y="385"/>
      <point x="245" y="385" type="qcurve" smooth="yes"/>
      <point x="226" y="385"/>
      <point x="226" y="366" type="qcurve" smooth="yes"/>
      <point x="226" y="358"/>
      <point x="237" y="346"/>
      <point x="253" y="346"/>
      <point x="265" y="358"/>
      <point x="265" y="374"/>
    </contour>
    <contour>
      <point x="258" y="201"/>
      <point x="284" y="201"/>
      <point x="293" y="191" type="qcurve" smooth="yes"/>
      <point x="302" y="182"/>
      <point x="302" y="156"/>
      <point x="284" y="138"/>
      <point x="258" y="138"/>
      <point x="249" y="147" type="qcurve" smooth="yes"/>
      <point x="239" y="156"/>
      <point x="239" y="182"/>
      <point x="249" y="191" type="qcurve" smooth="yes"/>
    </contour>
    <contour>
      <point x="354" y="286"/>
      <point x="330" y="310"/>
      <point x="314" y="310" type="qcurve" smooth="yes"/>
      <point x="297" y="310"/>
      <point x="273" y="287"/>
      <point x="273" y="253"/>
      <point x="297" y="229"/>
      <point x="331" y="229"/>
      <point x="354" y="253"/>
      <point x="354" y="270" type="qcurve" smooth="yes"/>
    </contour>
  </outline>
</glyph>
<glyph name="planet" format="2">
  <advance width="512"/>
  <unicode hex="E22E"/>
  <note>
planet
</note>
  <outline>
    <contour>
      <point x="416" y="356"/>
      <point x="494" y="322"/>
      <point x="502" y="268"/>
      <point x="439" y="211"/>
      <point x="383" y="190" type="qcurve" smooth="yes"/>
      <point x="332" y="170"/>
      <point x="272" y="161" type="qcurve" smooth="yes"/>
      <point x="228" y="153"/>
      <point x="178" y="153" type="qcurve" smooth="yes"/>
      <point x="156" y="153" type="line" smooth="yes"/>
      <point x="96" y="156"/>
      <point x="18" y="190"/>
      <point x="10" y="244"/>
      <point x="72" y="300"/>
      <point x="129" y="322" type="qcurve"/>
      <point x="130" y="323"/>
      <point x="132" y="326"/>
      <point x="132" y="327" type="qcurve"/>
      <point x="133" y="328"/>
      <point x="135" y="332" type="qcurve" smooth="yes"/>
      <point x="177" y="399"/>
      <point x="256" y="399" type="qcurve" smooth="yes"/>
      <point x="308" y="399"/>
      <point x="347" y="366" type="qcurve"/>
      <point x="349" y="365"/>
      <point x="352" y="362" type="qcurve" smooth="yes"/>
      <point x="355" y="360"/>
      <point x="356" y="359" type="qcurve"/>
    </contour>
    <contour>
      <point x="445" y="294"/>
      <point x="442" y="320" type="qcurve" smooth="yes"/>
      <point x="436" y="350"/>
      <point x="357" y="357" type="qcurve"/>
      <point x="358" y="356"/>
      <point x="360" y="354"/>
      <point x="361" y="354" type="qcurve"/>
      <point x="362" y="352"/>
      <point x="364" y="350" type="qcurve" smooth="yes"/>
      <point x="391" y="316"/>
      <point x="397" y="277" type="qcurve"/>
      <point x="396" y="276"/>
      <point x="390" y="273" type="qcurve" smooth="yes"/>
      <point x="338" y="245"/>
      <point x="260" y="233" type="qcurve" smooth="yes"/>
      <point x="218" y="226"/>
      <point x="175" y="226" type="qcurve" smooth="yes"/>
      <point x="142" y="226"/>
      <point x="115" y="231" type="qcurve"/>
      <point x="113" y="247"/>
      <point x="113" y="256" type="qcurve" smooth="yes"/>
      <point x="113" y="283"/>
      <point x="123" y="310" type="qcurve"/>
      <point x="124" y="311"/>
      <point x="126" y="314"/>
      <point x="126" y="316"/>
      <point x="128" y="319"/>
      <point x="129" y="320" type="qcurve"/>
      <point x="94" y="305"/>
      <point x="57" y="273"/>
      <point x="60" y="258" type="qcurve" smooth="yes"/>
      <point x="63" y="235"/>
      <point x="117" y="223" type="qcurve" smooth="yes"/>
      <point x="140" y="219"/>
      <point x="175" y="219" type="qcurve" smooth="yes"/>
      <point x="219" y="219"/>
      <point x="261" y="226" type="qcurve" smooth="yes"/>
      <point x="343" y="239"/>
      <point x="398" y="269" type="qcurve" smooth="yes"/>
    </contour>
    <contour>
      <point x="220" y="145"/>
      <point x="273" y="153" type="qcurve" smooth="yes"/>
      <point x="331" y="164"/>
      <point x="377" y="180" type="qcurve"/>
      <point x="335" y="113"/>
      <point x="256" y="113" type="qcurve" smooth="yes"/>
      <point x="204" y="113"/>
      <point x="165" y="146" type="qcurve"/>
      <point x="167" y="146"/>
      <point x="175" y="145"/>
      <point x="178" y="145" type="qcurve" smooth="yes"/>
    </contour>
  </outline>
</glyph>
<glyph name="plant" format="2">
  <advance width="512"/>
  <unicode hex="E22F"/>
  <note>
plant
</note>
  <outline>
    <contour>
      <point x="299" y="297"/>
      <point x="332" y="360"/>
      <point x="385" y="390"/>
      <point x="460" y="409"/>
      <point x="491" y="412"/>
      <point x="500" y="412" type="qcurve"/>
      <point x="498" y="392" type="line" smooth="yes"/>
      <point x="497" y="371"/>
      <point x="482" y="314"/>
      <point x="458" y="257"/>
      <point x="405" y="219"/>
      <point x="370" y="221" type="qcurve"/>
      <point x="373" y="270"/>
      <point x="418" y="321" type="qcurve"/>
      <point x="389" y="300"/>
      <point x="360" y="262" type="qcurve" smooth="yes"/>
      <point x="334" y="226"/>
      <point x="322" y="201" type="qcurve"/>
      <point x="304" y="173"/>
      <point x="294" y="126" type="qcurve"/>
      <point x="298" y="90"/>
      <point x="298" y="33" type="qcurve" smooth="yes"/>
      <point x="298" y="24"/>
      <point x="285" y="11"/>
      <point x="267" y="11"/>
      <point x="254" y="24"/>
      <point x="254" y="33" type="qcurve" smooth="yes"/>
      <point x="254" y="172"/>
      <point x="219" y="246" type="qcurve"/>
      <point x="205" y="284"/>
      <point x="166" y="346" type="qcurve" smooth="yes"/>
      <point x="152" y="366"/>
      <point x="136" y="388" type="qcurve"/>
      <point x="157" y="337" type="line"/>
      <point x="162" y="320"/>
      <point x="165" y="308" type="qcurve" smooth="yes"/>
      <point x="171" y="284"/>
      <point x="171" y="259" type="qcurve"/>
      <point x="129" y="257"/>
      <point x="65" y="308"/>
      <point x="34" y="373"/>
      <point x="15" y="458"/>
      <point x="12" y="491"/>
      <point x="12" y="501" type="qcurve"/>
      <point x="28" y="500" type="line" smooth="yes"/>
      <point x="44" y="499"/>
      <point x="92" y="491"/>
      <point x="150" y="474"/>
      <point x="202" y="445"/>
      <point x="242" y="401"/>
      <point x="254" y="337"/>
      <point x="242" y="295" type="qcurve"/>
      <point x="264" y="262"/>
      <point x="278" y="212" type="qcurve"/>
      <point x="292" y="239"/>
      <point x="310" y="255" type="qcurve"/>
    </contour>
  </outline>
</glyph>
<glyph name="playstation" format="2">
  <advance width="512"/>
  <unicode hex="E230"/>
  <note>
playstation
</note>
  <outline>
    <contour>
      <point x="303" y="374"/>
      <point x="290" y="383"/>
      <point x="282" y="382" type="qcurve"/>
      <point x="280" y="381" type="line"/>
      <point x="274" y="374"/>
      <point x="274" y="364" type="qcurve" smooth="yes"/>
      <point x="274" y="92" type="line" smooth="yes"/>
      <point x="274" y="76"/>
      <point x="275" y="68" type="qcurve"/>
      <point x="271" y="68" type="line"/>
      <point x="273" y="70" type="line"/>
      <point x="271" y="69"/>
      <point x="263" y="72" type="qcurve"/>
      <point x="261" y="72"/>
      <point x="254" y="74"/>
      <point x="252" y="75" type="qcurve"/>
      <point x="252" y="76"/>
      <point x="248" y="76"/>
      <point x="248" y="77" type="qcurve"/>
      <point x="244" y="77" type="line"/>
      <point x="244" y="78" type="line"/>
      <point x="235" y="81" type="line"/>
      <point x="232" y="81"/>
      <point x="228" y="83" type="qcurve"/>
      <point x="227" y="83"/>
      <point x="225" y="84" type="qcurve"/>
      <point x="222" y="84"/>
      <point x="220" y="86" type="qcurve"/>
      <point x="217" y="86"/>
      <point x="216" y="87" type="qcurve"/>
      <point x="215" y="87"/>
      <point x="212" y="88"/>
      <point x="211" y="88" type="qcurve" smooth="yes"/>
      <point x="209" y="88"/>
      <point x="202" y="91"/>
      <point x="200" y="92" type="qcurve"/>
      <point x="198" y="92"/>
      <point x="194" y="94" type="qcurve"/>
      <point x="194" y="444" type="line"/>
      <point x="199" y="444"/>
      <point x="203" y="442"/>
      <point x="206" y="442" type="qcurve"/>
      <point x="214" y="440"/>
      <point x="217" y="439" type="qcurve"/>
      <point x="221" y="439"/>
      <point x="222" y="438" type="qcurve"/>
      <point x="223" y="438"/>
      <point x="225" y="438" type="qcurve"/>
      <point x="227" y="437" type="line"/>
      <point x="235" y="435"/>
      <point x="237" y="435" type="qcurve"/>
      <point x="237" y="434" type="line"/>
      <point x="245" y="432"/>
      <point x="251" y="430" type="qcurve" smooth="yes"/>
      <point x="261" y="428"/>
      <point x="264" y="426" type="qcurve"/>
      <point x="268" y="426" type="line"/>
      <point x="268" y="425" type="line"/>
      <point x="272" y="425" type="line"/>
      <point x="274" y="423"/>
      <point x="276" y="423" type="qcurve"/>
      <point x="285" y="420" type="line" smooth="yes"/>
      <point x="289" y="419"/>
      <point x="301" y="415"/>
      <point x="303" y="415" type="qcurve"/>
      <point x="305" y="413"/>
      <point x="308" y="413" type="qcurve"/>
      <point x="308" y="412"/>
      <point x="310" y="412" type="qcurve"/>
      <point x="310" y="412"/>
      <point x="311" y="411" type="qcurve"/>
      <point x="312" y="411"/>
      <point x="316" y="410"/>
      <point x="317" y="410" type="qcurve"/>
      <point x="319" y="408"/>
      <point x="321" y="408" type="qcurve"/>
      <point x="325" y="406" type="line" smooth="yes"/>
      <point x="329" y="404"/>
      <point x="332" y="403" type="qcurve" smooth="yes"/>
      <point x="338" y="400" type="line"/>
      <point x="339" y="400" type="line"/>
      <point x="348" y="394" type="line"/>
      <point x="350" y="393" type="line" smooth="yes"/>
      <point x="352" y="392"/>
      <point x="352" y="391" type="qcurve"/>
      <point x="356" y="389"/>
      <point x="369" y="378" type="qcurve"/>
      <point x="368" y="377" type="line"/>
      <point x="369" y="377" type="line"/>
      <point x="374" y="371"/>
      <point x="379" y="364" type="qcurve"/>
      <point x="380" y="364"/>
      <point x="381" y="362" type="qcurve" smooth="yes"/>
      <point x="382" y="360" type="line"/>
      <point x="382" y="359"/>
      <point x="384" y="355" type="qcurve"/>
      <point x="384" y="353"/>
      <point x="386" y="351" type="qcurve"/>
      <point x="386" y="348"/>
      <point x="390" y="338"/>
      <point x="390" y="335" type="qcurve"/>
      <point x="391" y="334" type="line"/>
      <point x="391" y="326" type="line"/>
      <point x="392" y="326" type="line"/>
      <point x="394" y="294"/>
      <point x="393" y="285" type="qcurve" smooth="yes"/>
      <point x="393" y="279"/>
      <point x="392" y="277" type="qcurve" smooth="yes"/>
      <point x="391" y="274"/>
      <point x="391" y="270" type="qcurve"/>
      <point x="389" y="264"/>
      <point x="389" y="262" type="qcurve"/>
      <point x="387" y="260"/>
      <point x="387" y="257" type="qcurve"/>
      <point x="386" y="256"/>
      <point x="384" y="253"/>
      <point x="384" y="252" type="qcurve" smooth="yes"/>
      <point x="384" y="251" type="line"/>
      <point x="382" y="249"/>
      <point x="382" y="247"/>
      <point x="380" y="244"/>
      <point x="379" y="243" type="qcurve"/>
      <point x="378" y="243"/>
      <point x="377" y="242" type="qcurve" smooth="yes"/>
      <point x="375" y="240" type="line"/>
      <point x="371" y="236" type="line" smooth="yes"/>
      <point x="370" y="235"/>
      <point x="368" y="234" type="qcurve"/>
      <point x="366" y="232" type="line"/>
      <point x="365" y="232"/>
      <point x="363" y="230" type="qcurve"/>
      <point x="362" y="230" type="line"/>
      <point x="352" y="225"/>
      <point x="327" y="227" type="qcurve"/>
      <point x="324" y="228"/>
      <point x="314" y="231"/>
      <point x="313" y="231" type="qcurve"/>
      <point x="309" y="233"/>
      <point x="308" y="233" type="qcurve"/>
      <point x="308" y="234" type="line"/>
      <point x="306" y="234" type="line"/>
      <point x="306" y="235" type="line"/>
      <point x="305" y="235" type="line"/>
      <point x="305" y="329" type="line" smooth="yes"/>
      <point x="305" y="354"/>
      <point x="304" y="366" type="qcurve" smooth="yes"/>
    </contour>
    <contour>
      <point x="179" y="116" type="line"/>
      <point x="177" y="115"/>
      <point x="171" y="114"/>
      <point x="167" y="114"/>
      <point x="159" y="113"/>
      <point x="156" y="113" type="qcurve"/>
      <point x="157" y="112" type="line"/>
      <point x="147" y="112"/>
      <point x="142" y="111" type="qcurve"/>
      <point x="125" y="111"/>
      <point x="117" y="112" type="qcurve" smooth="yes"/>
      <point x="102" y="112" type="line"/>
      <point x="102" y="113" type="line"/>
      <point x="101" y="113"/>
      <point x="93" y="114"/>
      <point x="91" y="114" type="qcurve"/>
      <point x="91" y="119"/>
      <point x="89" y="115" type="qcurve"/>
      <point x="85" y="115" type="line"/>
      <point x="84" y="116" type="line"/>
      <point x="80" y="116"/>
      <point x="78" y="117" type="qcurve"/>
      <point x="74" y="117"/>
      <point x="70" y="119"/>
      <point x="67" y="119" type="qcurve" smooth="yes"/>
      <point x="66" y="119"/>
      <point x="64" y="120" type="qcurve"/>
      <point x="63" y="120"/>
      <point x="62" y="121" type="qcurve"/>
      <point x="57" y="121" type="line"/>
      <point x="57" y="122" type="line"/>
      <point x="49" y="124"/>
      <point x="45" y="126" type="qcurve"/>
      <point x="43" y="126"/>
      <point x="39" y="128" type="qcurve"/>
      <point x="37" y="128"/>
      <point x="35" y="130" type="qcurve"/>
      <point x="34" y="130" type="line"/>
      <point x="32" y="131"/>
      <point x="31" y="131" type="qcurve"/>
      <point x="29" y="133"/>
      <point x="25" y="135" type="qcurve"/>
      <point x="21" y="139"/>
      <point x="19" y="140" type="qcurve"/>
      <point x="17" y="142"/>
      <point x="15" y="146" type="qcurve" smooth="yes"/>
      <point x="10" y="154"/>
      <point x="15" y="163" type="qcurve" smooth="yes"/>
      <point x="16" y="165"/>
      <point x="24" y="173" type="qcurve"/>
      <point x="29" y="174"/>
      <point x="31" y="177" type="qcurve"/>
      <point x="31" y="178" type="line"/>
      <point x="32" y="178"/>
      <point x="33" y="177" type="qcurve"/>
      <point x="33" y="178" type="line"/>
      <point x="35" y="179"/>
      <point x="39" y="181" type="qcurve"/>
      <point x="40" y="182"/>
      <point x="42" y="182"/>
      <point x="47" y="184"/>
      <point x="48" y="185" type="qcurve"/>
      <point x="48" y="185"/>
      <point x="52" y="187" type="qcurve"/>
      <point x="53" y="188"/>
      <point x="61" y="190"/>
      <point x="62" y="190" type="qcurve"/>
      <point x="62" y="191" type="line"/>
      <point x="66" y="191" type="line"/>
      <point x="68" y="193"/>
      <point x="70" y="194" type="qcurve"/>
      <point x="72" y="194" type="line"/>
      <point x="73" y="195"/>
      <point x="76" y="195" type="qcurve"/>
      <point x="78" y="196"/>
      <point x="86" y="199"/>
      <point x="88" y="200" type="qcurve"/>
      <point x="90" y="200" type="line"/>
      <point x="91" y="201"/>
      <point x="92" y="201" type="qcurve"/>
      <point x="98" y="204" type="line"/>
      <point x="101" y="204" type="line"/>
      <point x="103" y="205"/>
      <point x="111" y="208"/>
      <point x="113" y="209" type="qcurve" smooth="yes"/>
      <point x="121" y="212"/>
      <point x="123" y="213" type="qcurve"/>
      <point x="126" y="213" type="line"/>
      <point x="132" y="216" type="line"/>
      <point x="135" y="216"/>
      <point x="136" y="217" type="qcurve"/>
      <point x="140" y="218"/>
      <point x="146" y="220" type="qcurve" smooth="yes"/>
      <point x="152" y="223" type="line"/>
      <point x="161" y="226" type="line"/>
      <point x="162" y="226"/>
      <point x="166" y="228" type="qcurve"/>
      <point x="168" y="228" type="line"/>
      <point x="170" y="229"/>
      <point x="171" y="229" type="qcurve"/>
      <point x="172" y="230"/>
      <point x="174" y="230"/>
      <point x="175" y="231" type="qcurve"/>
      <point x="175" y="232" type="line"/>
      <point x="179" y="232" type="line"/>
      <point x="179" y="186" type="line"/>
      <point x="173" y="184"/>
      <point x="171" y="183" type="qcurve"/>
      <point x="169" y="183"/>
      <point x="168" y="182" type="qcurve"/>
      <point x="166" y="182"/>
      <point x="164" y="180" type="qcurve"/>
      <point x="162" y="180" type="line"/>
      <point x="160" y="179"/>
      <point x="149" y="175"/>
      <point x="146" y="174" type="qcurve"/>
      <point x="142" y="174" type="line"/>
      <point x="142" y="173" type="line"/>
      <point x="141" y="172"/>
      <point x="138" y="171"/>
      <point x="137" y="171" type="qcurve"/>
      <point x="135" y="170"/>
      <point x="132" y="170" type="qcurve"/>
      <point x="133" y="169" type="line"/>
      <point x="132" y="169"/>
      <point x="129" y="168"/>
      <point x="127" y="168"/>
      <point x="123" y="166"/>
      <point x="122" y="166" type="qcurve"/>
      <point x="122" y="165" type="line"/>
      <point x="119" y="165" type="line"/>
      <point x="115" y="163"/>
      <point x="112" y="162" type="qcurve" smooth="yes"/>
      <point x="108" y="161"/>
      <point x="96" y="156"/>
      <point x="95" y="156" type="qcurve"/>
      <point x="94" y="155"/>
      <point x="90" y="153" type="qcurve"/>
      <point x="90" y="153"/>
      <point x="86" y="151" type="qcurve"/>
      <point x="86" y="150"/>
      <point x="85" y="146"/>
      <point x="85" y="145" type="qcurve"/>
      <point x="86" y="145" type="line"/>
      <point x="87" y="143" type="line"/>
      <point x="91" y="141"/>
      <point x="92" y="141" type="qcurve"/>
      <point x="94" y="140"/>
      <point x="97" y="140" type="qcurve"/>
      <point x="97" y="139" type="line"/>
      <point x="111" y="137"/>
      <point x="125" y="139" type="qcurve"/>
      <point x="125" y="140" type="line"/>
      <point x="134" y="140"/>
      <point x="141" y="143" type="qcurve"/>
      <point x="141" y="144"/>
      <point x="143" y="144" type="qcurve" smooth="yes"/>
      <point x="144" y="144"/>
      <point x="147" y="146"/>
      <point x="149" y="146"/>
      <point x="151" y="147" type="qcurve"/>
      <point x="152" y="147"/>
      <point x="153" y="148" type="qcurve"/>
      <point x="156" y="148"/>
      <point x="158" y="150" type="qcurve"/>
      <point x="159" y="150"/>
      <point x="161" y="150" type="qcurve"/>
      <point x="163" y="151" type="line" smooth="yes"/>
      <point x="164" y="152"/>
      <point x="170" y="154"/>
      <point x="172" y="155" type="qcurve"/>
      <point x="174" y="155" type="line"/>
      <point x="174" y="156" type="line"/>
      <point x="177" y="156"/>
      <point x="179" y="157" type="qcurve"/>
    </contour>
    <contour>
      <point x="499" y="163"/>
      <point x="497" y="160" type="qcurve"/>
      <point x="496" y="160"/>
      <point x="496" y="158" type="qcurve"/>
      <point x="496" y="158"/>
      <point x="495" y="157" type="qcurve"/>
      <point x="495" y="156"/>
      <point x="494" y="155" type="qcurve"/>
      <point x="493" y="155" type="line"/>
      <point x="492" y="153" type="line"/>
      <point x="486" y="148"/>
      <point x="472" y="140" type="qcurve"/>
      <point x="471" y="140"/>
      <point x="464" y="137"/>
      <point x="462" y="136" type="qcurve" smooth="yes"/>
      <point x="461" y="135"/>
      <point x="458" y="135" type="qcurve"/>
      <point x="450" y="131"/>
      <point x="432" y="125" type="qcurve"/>
      <point x="431" y="124"/>
      <point x="427" y="124"/>
      <point x="426" y="123" type="qcurve"/>
      <point x="426" y="122"/>
      <point x="422" y="122"/>
      <point x="422" y="121" type="qcurve"/>
      <point x="419" y="121" type="line"/>
      <point x="413" y="118" type="line"/>
      <point x="412" y="118" type="line"/>
      <point x="410" y="117"/>
      <point x="409" y="117" type="qcurve"/>
      <point x="407" y="116"/>
      <point x="399" y="113"/>
      <point x="397" y="112" type="qcurve"/>
      <point x="396" y="112"/>
      <point x="393" y="111"/>
      <point x="392" y="111" type="qcurve"/>
      <point x="388" y="109"/>
      <point x="387" y="109" type="qcurve"/>
      <point x="386" y="108"/>
      <point x="383" y="108" type="qcurve"/>
      <point x="377" y="105" type="line"/>
      <point x="374" y="105" type="line"/>
      <point x="368" y="102" type="line"/>
      <point x="366" y="102" type="line"/>
      <point x="364" y="101" type="line"/>
      <point x="364" y="100" type="line"/>
      <point x="360" y="99"/>
      <point x="345" y="94"/>
      <point x="342" y="93" type="qcurve"/>
      <point x="342" y="92"/>
      <point x="338" y="92"/>
      <point x="338" y="91" type="qcurve"/>
      <point x="329" y="88" type="line" smooth="yes"/>
      <point x="321" y="85"/>
      <point x="319" y="84" type="qcurve"/>
      <point x="316" y="84"/>
      <point x="315" y="83" type="qcurve"/>
      <point x="309" y="81"/>
      <point x="307" y="80" type="qcurve" smooth="yes"/>
      <point x="289" y="74" type="line"/>
      <point x="289" y="119" type="line"/>
      <point x="295" y="122" type="line"/>
      <point x="304" y="125" type="line" smooth="yes"/>
      <point x="306" y="126"/>
      <point x="311" y="128"/>
      <point x="312" y="128" type="qcurve"/>
      <point x="313" y="129"/>
      <point x="318" y="130"/>
      <point x="319" y="130" type="qcurve"/>
      <point x="319" y="131" type="line"/>
      <point x="324" y="131" type="line"/>
      <point x="323" y="132" type="line"/>
      <point x="327" y="133"/>
      <point x="333" y="135" type="qcurve" smooth="yes"/>
      <point x="339" y="138" type="line"/>
      <point x="340" y="138"/>
      <point x="342" y="139"/>
      <point x="343" y="139" type="qcurve"/>
      <point x="344" y="140"/>
      <point x="347" y="140" type="qcurve"/>
      <point x="353" y="143" type="line"/>
      <point x="360" y="144"/>
      <point x="369" y="148" type="qcurve"/>
      <point x="370" y="148"/>
      <point x="372" y="150"/>
      <point x="373" y="150" type="qcurve" smooth="yes"/>
      <point x="375" y="150" type="line"/>
      <point x="377" y="152"/>
      <point x="379" y="152" type="qcurve" smooth="yes"/>
      <point x="380" y="152"/>
      <point x="381" y="152" type="qcurve"/>
      <point x="382" y="153" type="line"/>
      <point x="400" y="159" type="line"/>
      <point x="401" y="160"/>
      <point x="404" y="160" type="qcurve"/>
      <point x="404" y="161" type="line"/>
      <point x="405" y="161"/>
      <point x="406" y="162" type="qcurve"/>
      <point x="408" y="162" type="line"/>
      <point x="417" y="165"/>
      <point x="418" y="165" type="qcurve"/>
      <point x="418" y="166" type="line"/>
      <point x="424" y="169" type="line"/>
      <point x="425" y="169" type="line"/>
      <point x="426" y="171" type="line"/>
      <point x="428" y="172" type="line"/>
      <point x="431" y="176"/>
      <point x="425" y="180" type="qcurve" smooth="yes"/>
      <point x="421" y="182" type="line" smooth="yes"/>
      <point x="418" y="183"/>
      <point x="412" y="183" type="qcurve"/>
      <point x="413" y="184" type="line"/>
      <point x="396" y="184"/>
      <point x="393" y="183" type="qcurve"/>
      <point x="388" y="183"/>
      <point x="386" y="182" type="qcurve"/>
      <point x="377" y="180"/>
      <point x="376" y="179" type="qcurve" smooth="yes"/>
      <point x="374" y="178"/>
      <point x="367" y="176"/>
      <point x="365" y="176" type="qcurve"/>
      <point x="363" y="175" type="line" smooth="yes"/>
      <point x="362" y="174"/>
      <point x="361" y="174" type="qcurve" smooth="yes"/>
      <point x="358" y="174" type="line"/>
      <point x="352" y="171" type="line" smooth="yes"/>
      <point x="350" y="170"/>
      <point x="343" y="168"/>
      <point x="341" y="168" type="qcurve"/>
      <point x="341" y="167" type="line"/>
      <point x="339" y="167"/>
      <point x="335" y="165" type="qcurve"/>
      <point x="333" y="165"/>
      <point x="332" y="164" type="qcurve"/>
      <point x="331" y="164"/>
      <point x="326" y="162"/>
      <point x="325" y="162" type="qcurve"/>
      <point x="324" y="161"/>
      <point x="321" y="160"/>
      <point x="320" y="160" type="qcurve"/>
      <point x="314" y="158"/>
      <point x="310" y="156" type="qcurve"/>
      <point x="308" y="156" type="line"/>
      <point x="304" y="154"/>
      <point x="301" y="153" type="qcurve"/>
      <point x="299" y="153"/>
      <point x="298" y="152" type="qcurve"/>
      <point x="289" y="149" type="line"/>
      <point x="289" y="192" type="line"/>
      <point x="288" y="195"/>
      <point x="290" y="197" type="qcurve"/>
      <point x="292" y="198"/>
      <point x="298" y="200" type="qcurve"/>
      <point x="301" y="200" type="line"/>
      <point x="307" y="202"/>
      <point x="315" y="204" type="qcurve"/>
      <point x="316" y="205"/>
      <point x="321" y="206"/>
      <point x="323" y="206"/>
      <point x="327" y="207"/>
      <point x="328" y="207" type="qcurve"/>
      <point x="330" y="208"/>
      <point x="335" y="208" type="qcurve"/>
      <point x="335" y="209" type="line"/>
      <point x="346" y="209" type="line"/>
      <point x="346" y="210" type="line"/>
      <point x="360" y="212"/>
      <point x="367" y="212" type="qcurve"/>
      <point x="367" y="213" type="line"/>
      <point x="371" y="212"/>
      <point x="383" y="212"/>
      <point x="387" y="212" type="qcurve" smooth="yes"/>
      <point x="393" y="211"/>
      <point x="404" y="211" type="qcurve" smooth="yes"/>
      <point x="406" y="211"/>
      <point x="410" y="210"/>
      <point x="412" y="210" type="qcurve"/>
      <point x="411" y="209" type="line"/>
      <point x="422" y="209" type="line" smooth="yes"/>
      <point x="423" y="209"/>
      <point x="436" y="206" type="qcurve"/>
      <point x="438" y="205"/>
      <point x="441" y="205" type="qcurve"/>
      <point x="441" y="204" type="line"/>
      <point x="442" y="204"/>
      <point x="454" y="201" type="qcurve"/>
      <point x="456" y="201"/>
      <point x="467" y="197"/>
      <point x="470" y="196" type="qcurve"/>
      <point x="472" y="194"/>
      <point x="474" y="194" type="qcurve"/>
      <point x="475" y="193"/>
      <point x="479" y="191" type="qcurve"/>
      <point x="480" y="192" type="line"/>
      <point x="481" y="190" type="line"/>
      <point x="482" y="190" type="line"/>
      <point x="488" y="186"/>
      <point x="490" y="184" type="qcurve"/>
      <point x="492" y="184" type="line"/>
      <point x="492" y="183" type="line"/>
      <point x="494" y="181"/>
      <point x="495" y="179" type="qcurve"/>
      <point x="497" y="177" type="line"/>
      <point x="497" y="176" type="line"/>
      <point x="497" y="176"/>
      <point x="499" y="172" type="qcurve"/>
    </contour>
  </outline>
</glyph>
